           <svg width="256" height="156" viewBox="0 0 256 156" fill="none" xmlns="http://www.w3.org/2000/svg"><path d="M16.9434 4.00006L15.1307 10.7629" stroke="#0A47C2" stroke-width="0.972538"></path><path d="M12.6411 6.47484L19.4271 8.28714" stroke="#0A47C2" stroke-width="0.972538"></path><path d="M38.3071 97.8959L36.4944 104.659" stroke="#0A47C2" stroke-width="0.972538"></path><path d="M34.0049 100.371L40.7909 102.183" stroke="#0A47C2" stroke-width="0.972538"></path><path d="M253.016 46.6852L251.203 53.448" stroke="#0A47C2" stroke-width="0.972538"></path><path d="M248.714 49.1604L255.5 50.9727" stroke="#0A47C2" stroke-width="0.972538"></path><path d="M4.80225 128.239L2.98954 135.001" stroke="#0A47C2" stroke-width="0.972538"></path><path d="M0.5 130.713L7.28599 132.526" stroke="#0A47C2" stroke-width="0.972538"></path><path d="M205.96 10.5707L199.078 11.9784" stroke="#0A47C2" stroke-width="0.972538"></path><path d="M201.814 7.8463L203.227 14.7026" stroke="#0A47C2" stroke-width="0.972538"></path><path d="M50.0801 30.9701L48.2674 37.7329" stroke="#0A47C2" stroke-width="0.972538"></path><path d="M45.7778 33.4449L52.5638 35.2572" stroke="#0A47C2" stroke-width="0.972538"></path><path d="M245.91 142.226L244.481 135.373" stroke="#0A47C2" stroke-width="0.972538"></path><path d="M248.634 138.087L241.756 139.511" stroke="#0A47C2" stroke-width="0.972538"></path><path d="M220.381 103.012L218.952 96.1594" stroke="#0A47C2" stroke-width="0.972538"></path><path d="M223.106 98.8736L216.227 100.298" stroke="#0A47C2" stroke-width="0.972538"></path></svg>
