<svg width="54" height="48" viewBox="0 0 54 48" fill="none" xmlns="http://www.w3.org/2000/svg">
<path d="M32.1704 14.785L32.2734 14.8874L32.4139 14.9247L32.554 14.4002C32.4139 14.9247 32.4139 14.9247 32.414 14.9247L32.4145 14.9248L32.4164 14.9253L32.4242 14.9274L32.4553 14.9357L32.5773 14.9682C32.6845 14.9969 32.8423 15.0391 33.0446 15.0936C33.4492 15.2024 34.0319 15.3601 34.7436 15.5548C36.167 15.9445 38.1058 16.4826 40.1679 17.077C44.1747 18.232 48.59 19.5833 50.6286 20.4689C50.985 21.4063 51.1997 22.0628 51.3257 22.487C51.389 22.7001 51.4299 22.8543 51.455 22.9558L41.3524 46.2827C41.2517 46.2065 41.1388 46.1214 41.0147 46.0286C40.4553 45.6101 39.6687 45.0343 38.7594 44.4047C36.9489 43.151 34.6216 41.6624 32.6255 40.7873C30.6693 39.9298 28.0518 39.232 25.9469 38.751C24.8896 38.5094 23.9528 38.3205 23.28 38.192C22.9435 38.1277 22.6728 38.0784 22.4859 38.0452C22.4302 38.0353 22.382 38.0268 22.3416 38.0198C22.3128 37.9957 22.2789 37.9673 22.24 37.935C22.101 37.8194 21.8989 37.6529 21.6455 37.448C21.1387 37.0384 20.4256 36.4747 19.5994 35.8579C17.9554 34.6306 15.8323 33.1693 13.9891 32.3051C11.8987 31.3249 9.06619 30.5961 6.78579 30.114C5.63972 29.8716 4.62201 29.6894 3.8906 29.5677C3.53245 29.5081 3.24263 29.463 3.03963 29.4324L2.24366 27.1301L13.3982 6.35457C13.5852 6.36685 13.8431 6.38525 14.1576 6.41129C14.8463 6.46833 15.8046 6.56192 16.8824 6.70797C19.0525 7.00204 21.6522 7.50207 23.5181 8.3193C25.4121 9.14887 27.5673 10.7509 29.273 12.1744C30.1201 12.8814 30.8459 13.5354 31.3597 14.0125C31.6165 14.2509 31.82 14.4449 31.959 14.5789C32.0285 14.6459 32.0818 14.6978 32.1175 14.7328L32.1577 14.7723L32.1675 14.7821L32.1698 14.7844L32.1703 14.7849L32.1704 14.7849L32.1704 14.785Z" fill="#1EB5F0" stroke="#0A80D5" stroke-width="1.08606"/>
<path d="M31.1889 11.8727L31.1889 11.8727L31.3183 12.0014L31.4994 12.0258L31.4994 12.0258L31.4995 12.0258L31.5002 12.0259L31.5036 12.0263L31.5176 12.0283L31.5741 12.0361C31.6241 12.0431 31.6985 12.0538 31.7948 12.0679C31.9874 12.0963 32.2678 12.1389 32.6169 12.1957C33.3154 12.3094 34.2878 12.4796 35.3826 12.7057C37.5837 13.1603 40.2369 13.8322 42.1597 14.7079C43.9654 15.5303 46.0916 16.9719 47.7854 18.2266C48.6279 18.8506 49.3554 19.4224 49.872 19.8381C50.0778 20.0036 50.25 20.1443 50.3826 20.2534L40.3709 43.3705C40.2702 43.2942 40.1573 43.2091 40.0332 43.1163C39.4738 42.6978 38.6872 42.1221 37.7779 41.4924C35.9674 40.2388 33.6401 38.7501 31.644 37.8751C29.6878 37.0175 27.0703 36.3198 24.9654 35.8388C23.9081 35.5972 22.9713 35.4083 22.2985 35.2797C21.962 35.2154 21.6913 35.1662 21.5044 35.1329C21.4487 35.123 21.4005 35.1146 21.3601 35.1075C21.3313 35.0834 21.2974 35.0551 21.2584 35.0227C21.1195 34.9072 20.9174 34.7406 20.664 34.5358C20.1572 34.1261 19.4441 33.5625 18.6179 32.9457C16.9739 31.7184 14.8508 30.257 13.0076 29.3928C10.9171 28.4127 8.08465 27.6839 5.80426 27.2017C4.65819 26.9594 3.64048 26.7772 2.90907 26.6555C2.7323 26.626 2.57218 26.6001 2.43093 26.5778L12.4497 3.4445C12.6335 3.45674 12.8797 3.4745 13.1761 3.49904C13.8648 3.55608 14.8231 3.64967 15.9009 3.79572C18.0709 4.08979 20.6707 4.58981 22.5366 5.40705C24.4306 6.23661 26.5858 7.8387 28.2915 9.26218C29.1386 9.96915 29.8644 10.6232 30.3782 11.1003C30.635 11.3387 30.8385 11.5327 30.9775 11.6667C31.047 11.7336 31.1003 11.7856 31.136 11.8206L31.1762 11.8601L31.186 11.8699L31.1883 11.8722L31.1888 11.8727L31.1889 11.8727Z" fill="#8DD5F1" stroke="#0A80D5" stroke-width="1.08606"/>
<path d="M33.8043 2.27216L48.6907 42.4266M32.8228 2.59862L34.7858 1.78247M47.8728 42.7531L49.5086 42.1002" stroke="#0A80D5" stroke-width="0.620606" stroke-linecap="round" stroke-dasharray="2.48 1.24"/>
<path d="M31.3505 11.9028L21.4458 35.0814" stroke="#0A80D5" stroke-width="1.08606"/>
<path d="M21.9459 35.0175C21.8597 34.7303 21.557 34.5673 21.2697 34.6535C20.9825 34.7396 20.8194 35.0424 20.9056 35.3296L21.9459 35.0175ZM21.7214 38.0488C21.8076 38.3361 22.1103 38.4991 22.3975 38.4129C22.6848 38.3267 22.8478 38.024 22.7616 37.7367L21.7214 38.0488ZM20.9056 35.3296L21.7214 38.0488L22.7616 37.7367L21.9459 35.0175L20.9056 35.3296Z" fill="#0A80D5"/>
<path d="M40.3478 43.7324L41.2756 46.322" stroke="#0A80D5" stroke-width="1.08606" stroke-linecap="round" stroke-linejoin="round"/>
<path d="M29.2239 27.7359L34.4587 15.4937L41.3293 34.265L29.2239 27.7359Z" fill="#52C8F5" stroke="#0A80D5" stroke-width="0.620606"/>
<path d="M20.1482 10.2897C20.3475 10.0647 20.7184 10.2254 20.6897 10.5243L20.3143 14.4352C20.2758 14.8363 20.5002 15.2163 20.8701 15.3766L24.4798 16.9405C24.7558 17.0601 24.7168 17.4626 24.423 17.5278L20.5833 18.3792C20.1889 18.4667 19.8956 18.798 19.857 19.1997L19.4819 23.1078C19.4532 23.4068 19.0582 23.495 18.9054 23.2364L16.9051 19.8519C16.7003 19.5054 16.2955 19.33 15.9019 19.4173L12.0579 20.2697C11.7643 20.3348 11.5591 19.9867 11.7585 19.7616L14.3641 16.8198C14.6319 16.5175 14.6743 16.0775 14.4691 15.7302L12.471 12.3495C12.3181 12.0908 12.5863 11.7875 12.8622 11.9071L16.472 13.471C16.8419 13.6313 17.2733 13.5354 17.5407 13.2335L20.1482 10.2897Z" fill="#52C8F5" stroke="#0A80D5" stroke-width="0.620606"/>
<mask id="mask0_1846_3747" style="mask-type:alpha" maskUnits="userSpaceOnUse" x="29" y="15" width="13" height="20">
<path d="M29.2239 27.7359L34.4587 15.4937L41.3293 34.265L29.2239 27.7359Z" fill="#E85300"/>
</mask>
<g mask="url(#mask0_1846_3747)">
<path d="M31.1976 17.4024C31.1976 17.4024 31.6444 17.9394 32.4974 17.8878C33.3504 17.8362 33.7972 18.3733 33.7972 18.3733" fill="#0A80D5"/>
<path d="M31.1976 17.4024C31.1976 17.4024 31.6444 17.9394 32.4974 17.8878C33.3504 17.8362 33.7972 18.3733 33.7972 18.3733" stroke="#0A80D5" stroke-width="0.310303"/>
<path d="M30.8998 18.1951C30.8998 18.1951 31.3466 18.7322 32.1996 18.6805C33.0526 18.6289 33.4994 19.166 33.4994 19.166" fill="#0A80D5"/>
<path d="M30.8998 18.1951C30.8998 18.1951 31.3466 18.7322 32.1996 18.6805C33.0526 18.6289 33.4994 19.166 33.4994 19.166" stroke="#0A80D5" stroke-width="0.310303"/>
<path d="M28.7706 23.8699C28.7706 23.8699 29.2174 24.407 30.0704 24.3553C30.9234 24.3037 31.3702 24.8408 31.3702 24.8408" fill="#0A80D5"/>
<path d="M28.7706 23.8699C28.7706 23.8699 29.2174 24.407 30.0704 24.3553C30.9234 24.3037 31.3702 24.8408 31.3702 24.8408" stroke="#0A80D5" stroke-width="0.310303"/>
<path d="M28.4735 24.6624C28.4735 24.6624 28.9203 25.1994 29.7733 25.1478C30.6263 25.0962 31.0731 25.6333 31.0731 25.6333" fill="#0A80D5"/>
<path d="M28.4735 24.6624C28.4735 24.6624 28.9203 25.1994 29.7733 25.1478C30.6263 25.0962 31.0731 25.6333 31.0731 25.6333" stroke="#0A80D5" stroke-width="0.310303"/>
<path d="M29.9873 20.6275C29.9873 20.6275 30.4342 21.1645 31.2872 21.1129C32.1401 21.0613 32.587 21.5984 32.587 21.5984" fill="#0A80D5"/>
<path d="M29.9873 20.6275C29.9873 20.6275 30.4342 21.1645 31.2872 21.1129C32.1401 21.0613 32.587 21.5984 32.587 21.5984" stroke="#0A80D5" stroke-width="0.310303"/>
<path d="M29.6902 21.4202C29.6902 21.4202 30.137 21.9573 30.99 21.9056C31.843 21.854 32.2898 22.3911 32.2898 22.3911" fill="#0A80D5"/>
<path d="M29.6902 21.4202C29.6902 21.4202 30.137 21.9573 30.99 21.9056C31.843 21.854 32.2898 22.3911 32.2898 22.3911" stroke="#0A80D5" stroke-width="0.310303"/>
<path d="M27.5603 27.0953C27.5603 27.0953 28.0071 27.6324 28.8601 27.5808C29.7131 27.529 30.1599 28.0662 30.1599 28.0662" fill="#0A80D5"/>
<path d="M27.5603 27.0953C27.5603 27.0953 28.0071 27.6324 28.8601 27.5808C29.7131 27.529 30.1599 28.0662 30.1599 28.0662" stroke="#0A80D5" stroke-width="0.310303"/>
<path d="M27.2632 27.8877C27.2632 27.8877 27.7099 28.4249 28.563 28.3732C29.416 28.3216 29.8628 28.8586 29.8628 28.8586" fill="#0A80D5"/>
<path d="M27.2632 27.8877C27.2632 27.8877 27.7099 28.4249 28.563 28.3732C29.416 28.3216 29.8628 28.8586 29.8628 28.8586" stroke="#0A80D5" stroke-width="0.310303"/>
<path d="M32.1306 14.9163C32.1306 14.9163 32.5774 15.4534 33.4304 15.4017C34.2834 15.3501 34.7302 15.8872 34.7302 15.8872" fill="#0A80D5"/>
<path d="M32.1306 14.9163C32.1306 14.9163 32.5774 15.4534 33.4304 15.4017C34.2834 15.3501 34.7302 15.8872 34.7302 15.8872" stroke="#0A80D5" stroke-width="0.310303"/>
<path d="M41.2997 22.0806C41.2997 22.0806 41.7466 22.6177 42.5996 22.566C43.4524 22.5144 43.8992 23.0515 43.8992 23.0515" fill="#0A80D5"/>
<path d="M41.2997 22.0806C41.2997 22.0806 41.7466 22.6177 42.5996 22.566C43.4524 22.5144 43.8992 23.0515 43.8992 23.0515" stroke="#0A80D5" stroke-width="0.310303"/>
<path d="M36.7365 34.241C36.7365 34.241 37.1833 34.7781 38.0363 34.7264C38.8892 34.6748 39.336 35.2119 39.336 35.2119" fill="#0A80D5"/>
<path d="M36.7365 34.241C36.7365 34.241 37.1833 34.7781 38.0363 34.7264C38.8892 34.6748 39.336 35.2119 39.336 35.2119" stroke="#0A80D5" stroke-width="0.310303"/>
<path d="M39.1705 27.7554C39.1705 27.7554 39.6173 28.2925 40.4703 28.2408C41.3232 28.1892 41.77 28.7263 41.77 28.7263" fill="#0A80D5"/>
<path d="M39.1705 27.7554C39.1705 27.7554 39.6173 28.2925 40.4703 28.2408C41.3232 28.1892 41.77 28.7263 41.77 28.7263" stroke="#0A80D5" stroke-width="0.310303"/>
<path d="M38.8727 28.5481C38.8727 28.5481 39.3196 29.0852 40.1726 29.0336C41.0254 28.9819 41.4723 29.519 41.4723 29.519" fill="#0A80D5"/>
<path d="M38.8727 28.5481C38.8727 28.5481 39.3196 29.0852 40.1726 29.0336C41.0254 28.9819 41.4723 29.519 41.4723 29.519" stroke="#0A80D5" stroke-width="0.310303"/>
<path d="M40.3872 24.5132C40.3872 24.5132 40.834 25.0503 41.687 24.9987C42.5399 24.947 42.9867 25.4841 42.9867 25.4841" fill="#0A80D5"/>
<path d="M40.3872 24.5132C40.3872 24.5132 40.834 25.0503 41.687 24.9987C42.5399 24.947 42.9867 25.4841 42.9867 25.4841" stroke="#0A80D5" stroke-width="0.310303"/>
<path d="M40.0901 25.3057C40.0901 25.3057 40.5369 25.8428 41.3899 25.7911C42.2428 25.7395 42.6896 26.2766 42.6896 26.2766" fill="#0A80D5"/>
<path d="M40.0901 25.3057C40.0901 25.3057 40.5369 25.8428 41.3899 25.7911C42.2428 25.7395 42.6896 26.2766 42.6896 26.2766" stroke="#0A80D5" stroke-width="0.310303"/>
<path d="M37.9602 30.9803C37.9602 30.9803 38.4071 31.5174 39.26 31.4658C40.1129 31.414 40.5597 31.9512 40.5597 31.9512" fill="#0A80D5"/>
<path d="M37.9602 30.9803C37.9602 30.9803 38.4071 31.5174 39.26 31.4658C40.1129 31.414 40.5597 31.9512 40.5597 31.9512" stroke="#0A80D5" stroke-width="0.310303"/>
<path d="M37.6631 31.7732C37.6631 31.7732 38.1099 32.3104 38.9629 32.2587C39.8158 32.207 40.2626 32.7441 40.2626 32.7441" fill="#0A80D5"/>
<path d="M37.6631 31.7732C37.6631 31.7732 38.1099 32.3104 38.9629 32.2587C39.8158 32.207 40.2626 32.7441 40.2626 32.7441" stroke="#0A80D5" stroke-width="0.310303"/>
<path d="M36.3972 19.345C36.3972 19.345 36.8441 19.8821 37.697 19.8304C38.55 19.7788 38.9968 20.3159 38.9968 20.3159" fill="#0A80D5"/>
<path d="M36.3972 19.345C36.3972 19.345 36.8441 19.8821 37.697 19.8304C38.55 19.7788 38.9968 20.3159 38.9968 20.3159" stroke="#0A80D5" stroke-width="0.310303"/>
<path d="M36.1 20.1377C36.1 20.1377 36.5469 20.6748 37.3999 20.6232C38.2528 20.5716 38.6997 21.1086 38.6997 21.1086" fill="#0A80D5"/>
<path d="M36.1 20.1377C36.1 20.1377 36.5469 20.6748 37.3999 20.6232C38.2528 20.5716 38.6997 21.1086 38.6997 21.1086" stroke="#0A80D5" stroke-width="0.310303"/>
<path d="M31.5369 32.2984C31.5369 32.2984 31.9837 32.8354 32.8367 32.7838C33.6897 32.7322 34.1365 33.2693 34.1365 33.2693" fill="#0A80D5"/>
<path d="M31.5369 32.2984C31.5369 32.2984 31.9837 32.8354 32.8367 32.7838C33.6897 32.7322 34.1365 33.2693 34.1365 33.2693" stroke="#0A80D5" stroke-width="0.310303"/>
<path d="M31.2391 33.0911C31.2391 33.0911 31.686 33.6282 32.539 33.5765C33.3919 33.5249 33.8388 34.062 33.8388 34.062" fill="#0A80D5"/>
<path d="M31.2391 33.0911C31.2391 33.0911 31.686 33.6282 32.539 33.5765C33.3919 33.5249 33.8388 34.062 33.8388 34.062" stroke="#0A80D5" stroke-width="0.310303"/>
<path d="M33.9702 25.8128C33.9702 25.8128 34.4171 26.3498 35.2701 26.2982C36.123 26.2466 36.5699 26.7837 36.5699 26.7837" fill="#0A80D5"/>
<path d="M33.9702 25.8128C33.9702 25.8128 34.4171 26.3498 35.2701 26.2982C36.123 26.2466 36.5699 26.7837 36.5699 26.7837" stroke="#0A80D5" stroke-width="0.310303"/>
<path d="M33.6731 26.6055C33.6731 26.6055 34.12 27.1426 34.9729 27.0909C35.8259 27.0393 36.2728 27.5764 36.2728 27.5764" fill="#0A80D5"/>
<path d="M33.6731 26.6055C33.6731 26.6055 34.12 27.1426 34.9729 27.0909C35.8259 27.0393 36.2728 27.5764 36.2728 27.5764" stroke="#0A80D5" stroke-width="0.310303"/>
<path d="M35.1876 22.5703C35.1876 22.5703 35.6344 23.1074 36.4874 23.0558C37.3404 23.0042 37.7872 23.5413 37.7872 23.5413" fill="#0A80D5"/>
<path d="M35.1876 22.5703C35.1876 22.5703 35.6344 23.1074 36.4874 23.0558C37.3404 23.0042 37.7872 23.5413 37.7872 23.5413" stroke="#0A80D5" stroke-width="0.310303"/>
<path d="M34.8898 23.3628C34.8898 23.3628 35.3366 23.8999 36.1896 23.8483C37.0426 23.7967 37.4894 24.3337 37.4894 24.3337" fill="#0A80D5"/>
<path d="M34.8898 23.3628C34.8898 23.3628 35.3366 23.8999 36.1896 23.8483C37.0426 23.7967 37.4894 24.3337 37.4894 24.3337" stroke="#0A80D5" stroke-width="0.310303"/>
<path d="M32.7606 29.0377C32.7606 29.0377 33.2074 29.5748 34.0604 29.5231C34.9135 29.4714 35.3602 30.0086 35.3602 30.0086" fill="#0A80D5"/>
<path d="M32.7606 29.0377C32.7606 29.0377 33.2074 29.5748 34.0604 29.5231C34.9135 29.4714 35.3602 30.0086 35.3602 30.0086" stroke="#0A80D5" stroke-width="0.310303"/>
<path d="M32.4628 29.8303C32.4628 29.8303 32.9096 30.3675 33.7626 30.3158C34.6156 30.2642 35.0624 30.8013 35.0624 30.8013" fill="#0A80D5"/>
<path d="M32.4628 29.8303C32.4628 29.8303 32.9096 30.3675 33.7626 30.3158C34.6156 30.2642 35.0624 30.8013 35.0624 30.8013" stroke="#0A80D5" stroke-width="0.310303"/>
<path d="M37.628 16.0664C37.628 16.0664 38.0748 16.6035 38.9278 16.5519C39.7808 16.5003 40.2276 17.0373 40.2276 17.0373" fill="#0A80D5"/>
<path d="M37.628 16.0664C37.628 16.0664 38.0748 16.6035 38.9278 16.5519C39.7808 16.5003 40.2276 17.0373 40.2276 17.0373" stroke="#0A80D5" stroke-width="0.310303"/>
<path d="M37.3302 16.8591C37.3302 16.8591 37.777 17.3962 38.63 17.3446C39.483 17.293 39.9298 17.8301 39.9298 17.8301" fill="#0A80D5"/>
<path d="M37.3302 16.8591C37.3302 16.8591 37.777 17.3962 38.63 17.3446C39.483 17.293 39.9298 17.8301 39.9298 17.8301" stroke="#0A80D5" stroke-width="0.310303"/>
<path d="M33.1958 19.9771C33.1958 19.9771 33.6426 20.5141 34.4956 20.4625C35.3486 20.4109 35.7954 20.948 35.7954 20.948" fill="#0A80D5"/>
<path d="M33.1958 19.9771C33.1958 19.9771 33.6426 20.5141 34.4956 20.4625C35.3486 20.4109 35.7954 20.948 35.7954 20.948" stroke="#0A80D5" stroke-width="0.310303"/>
<path d="M32.8987 20.77C32.8987 20.77 33.3455 21.3071 34.1985 21.2555C35.0515 21.2039 35.4983 21.741 35.4983 21.741" fill="#0A80D5"/>
<path d="M32.8987 20.77C32.8987 20.77 33.3455 21.3071 34.1985 21.2555C35.0515 21.2039 35.4983 21.741 35.4983 21.741" stroke="#0A80D5" stroke-width="0.310303"/>
<path d="M28.3354 32.9304C28.3354 32.9304 28.7823 33.4675 29.6352 33.4159C30.4882 33.3643 30.935 33.9014 30.935 33.9014" fill="#0A80D5"/>
<path d="M28.3354 32.9304C28.3354 32.9304 28.7823 33.4675 29.6352 33.4159C30.4882 33.3643 30.935 33.9014 30.935 33.9014" stroke="#0A80D5" stroke-width="0.310303"/>
<path d="M28.0377 33.7227C28.0377 33.7227 28.4845 34.2597 29.3375 34.2081C30.1905 34.1565 30.6373 34.6936 30.6373 34.6936" fill="#0A80D5"/>
<path d="M28.0377 33.7227C28.0377 33.7227 28.4845 34.2597 29.3375 34.2081C30.1905 34.1565 30.6373 34.6936 30.6373 34.6936" stroke="#0A80D5" stroke-width="0.310303"/>
<path d="M30.7688 26.4448C30.7688 26.4448 31.2156 26.9819 32.0686 26.9303C32.9216 26.8787 33.3684 27.4158 33.3684 27.4158" fill="#0A80D5"/>
<path d="M30.7688 26.4448C30.7688 26.4448 31.2156 26.9819 32.0686 26.9303C32.9216 26.8787 33.3684 27.4158 33.3684 27.4158" stroke="#0A80D5" stroke-width="0.310303"/>
<path d="M30.4717 27.2376C30.4717 27.2376 30.9185 27.7746 31.7715 27.723C32.6245 27.6714 33.0713 28.2085 33.0713 28.2085" fill="#0A80D5"/>
<path d="M30.4717 27.2376C30.4717 27.2376 30.9185 27.7746 31.7715 27.723C32.6245 27.6714 33.0713 28.2085 33.0713 28.2085" stroke="#0A80D5" stroke-width="0.310303"/>
<path d="M35.339 14.2666C35.339 14.2666 35.7859 14.8037 36.6388 14.7521C37.4918 14.7005 37.9386 15.2375 37.9386 15.2375" fill="#0A80D5"/>
<path d="M35.339 14.2666C35.339 14.2666 35.7859 14.8037 36.6388 14.7521C37.4918 14.7005 37.9386 15.2375 37.9386 15.2375" stroke="#0A80D5" stroke-width="0.310303"/>
<path d="M31.9861 23.2024C31.9861 23.2024 32.433 23.7395 33.2859 23.6879C34.1389 23.6363 34.5857 24.1733 34.5857 24.1733" fill="#0A80D5"/>
<path d="M31.9861 23.2024C31.9861 23.2024 32.433 23.7395 33.2859 23.6879C34.1389 23.6363 34.5857 24.1733 34.5857 24.1733" stroke="#0A80D5" stroke-width="0.310303"/>
<path d="M31.6883 23.9949C31.6883 23.9949 32.1351 24.532 32.9881 24.4803C33.8411 24.4287 34.2879 24.9658 34.2879 24.9658" fill="#0A80D5"/>
<path d="M31.6883 23.9949C31.6883 23.9949 32.1351 24.532 32.9881 24.4803C33.8411 24.4287 34.2879 24.9658 34.2879 24.9658" stroke="#0A80D5" stroke-width="0.310303"/>
<path d="M29.5591 29.6699C29.5591 29.6699 30.006 30.207 30.859 30.1554C31.7119 30.1038 32.1588 30.6409 32.1588 30.6409" fill="#0A80D5"/>
<path d="M29.5591 29.6699C29.5591 29.6699 30.006 30.207 30.859 30.1554C31.7119 30.1038 32.1588 30.6409 32.1588 30.6409" stroke="#0A80D5" stroke-width="0.310303"/>
<path d="M29.2613 30.4624C29.2613 30.4624 29.7082 30.9995 30.5611 30.9479C31.4141 30.8963 31.861 31.4333 31.861 31.4333" fill="#0A80D5"/>
<path d="M29.2613 30.4624C29.2613 30.4624 29.7082 30.9995 30.5611 30.9479C31.4141 30.8963 31.861 31.4333 31.861 31.4333" stroke="#0A80D5" stroke-width="0.310303"/>
<path d="M34.4265 16.6987C34.4265 16.6987 34.8733 17.2358 35.7263 17.1842C36.5793 17.1326 37.0261 17.6697 37.0261 17.6697" fill="#0A80D5"/>
<path d="M34.4265 16.6987C34.4265 16.6987 34.8733 17.2358 35.7263 17.1842C36.5793 17.1326 37.0261 17.6697 37.0261 17.6697" stroke="#0A80D5" stroke-width="0.310303"/>
<path d="M34.1287 17.4912C34.1287 17.4912 34.5756 18.0283 35.4285 17.9767C36.2815 17.9251 36.7284 18.4622 36.7284 18.4622" fill="#0A80D5"/>
<path d="M34.1287 17.4912C34.1287 17.4912 34.5756 18.0283 35.4285 17.9767C36.2815 17.9251 36.7284 18.4622 36.7284 18.4622" stroke="#0A80D5" stroke-width="0.310303"/>
<path d="M41.1687 30.3301C41.1687 30.3301 41.6156 30.8672 42.4684 30.8155C43.3214 30.7639 43.7682 31.301 43.7682 31.301" fill="#0A80D5"/>
<path d="M41.1687 30.3301C41.1687 30.3301 41.6156 30.8672 42.4684 30.8155C43.3214 30.7639 43.7682 31.301 43.7682 31.301" stroke="#0A80D5" stroke-width="0.310303"/>
<path d="M40.8709 31.1231C40.8709 31.1231 41.3177 31.6601 42.1706 31.6085C43.0236 31.5569 43.4704 32.0939 43.4704 32.0939" fill="#0A80D5"/>
<path d="M40.8709 31.1231C40.8709 31.1231 41.3177 31.6601 42.1706 31.6085C43.0236 31.5569 43.4704 32.0939 43.4704 32.0939" stroke="#0A80D5" stroke-width="0.310303"/>
<path d="M39.9584 33.5549C39.9584 33.5549 40.4052 34.092 41.2581 34.0404C42.1111 33.9887 42.5579 34.5258 42.5579 34.5258" fill="#0A80D5"/>
<path d="M39.9584 33.5549C39.9584 33.5549 40.4052 34.092 41.2581 34.0404C42.1111 33.9887 42.5579 34.5258 42.5579 34.5258" stroke="#0A80D5" stroke-width="0.310303"/>
<path d="M39.6613 34.3477C39.6613 34.3477 40.1081 34.8848 40.961 34.8331C41.814 34.7815 42.2608 35.3185 42.2608 35.3185" fill="#0A80D5"/>
<path d="M39.6613 34.3477C39.6613 34.3477 40.1081 34.8848 40.961 34.8331C41.814 34.7815 42.2608 35.3185 42.2608 35.3185" stroke="#0A80D5" stroke-width="0.310303"/>
<path d="M38.3954 21.9202C38.3954 21.9202 38.8423 22.4573 39.6952 22.4056C40.5481 22.354 40.9949 22.8911 40.9949 22.8911" fill="#0A80D5"/>
<path d="M38.3954 21.9202C38.3954 21.9202 38.8423 22.4573 39.6952 22.4056C40.5481 22.354 40.9949 22.8911 40.9949 22.8911" stroke="#0A80D5" stroke-width="0.310303"/>
<path d="M38.0983 22.7127C38.0983 22.7127 38.5451 23.2497 39.3981 23.1981C40.2509 23.1465 40.6978 23.6835 40.6978 23.6835" fill="#0A80D5"/>
<path d="M38.0983 22.7127C38.0983 22.7127 38.5451 23.2497 39.3981 23.1981C40.2509 23.1465 40.6978 23.6835 40.6978 23.6835" stroke="#0A80D5" stroke-width="0.310303"/>
<path d="M35.9691 28.3877C35.9691 28.3877 36.4159 28.9248 37.2689 28.8732C38.1217 28.8215 38.5686 29.3586 38.5686 29.3586" fill="#0A80D5"/>
<path d="M35.9691 28.3877C35.9691 28.3877 36.4159 28.9248 37.2689 28.8732C38.1217 28.8215 38.5686 29.3586 38.5686 29.3586" stroke="#0A80D5" stroke-width="0.310303"/>
<path d="M35.6713 29.1804C35.6713 29.1804 36.1181 29.7175 36.9711 29.6659C37.824 29.6142 38.2708 30.1513 38.2708 30.1513" fill="#0A80D5"/>
<path d="M35.6713 29.1804C35.6713 29.1804 36.1181 29.7175 36.9711 29.6659C37.824 29.6142 38.2708 30.1513 38.2708 30.1513" stroke="#0A80D5" stroke-width="0.310303"/>
<path d="M40.8358 15.4165C40.8358 15.4165 41.2827 15.9536 42.1356 15.902C42.9885 15.8503 43.4353 16.3874 43.4353 16.3874" fill="#0A80D5"/>
<path d="M40.8358 15.4165C40.8358 15.4165 41.2827 15.9536 42.1356 15.902C42.9885 15.8503 43.4353 16.3874 43.4353 16.3874" stroke="#0A80D5" stroke-width="0.310303"/>
<path d="M40.5386 16.2092C40.5386 16.2092 40.9855 16.7463 41.8385 16.6947C42.6913 16.643 43.1381 17.1801 43.1381 17.1801" fill="#0A80D5"/>
<path d="M40.5386 16.2092C40.5386 16.2092 40.9855 16.7463 41.8385 16.6947C42.6913 16.643 43.1381 17.1801 43.1381 17.1801" stroke="#0A80D5" stroke-width="0.310303"/>
<path d="M37.1858 25.1448C37.1858 25.1448 37.6326 25.6819 38.4856 25.6303C39.3384 25.5786 39.7853 26.1157 39.7853 26.1157" fill="#0A80D5"/>
<path d="M37.1858 25.1448C37.1858 25.1448 37.6326 25.6819 38.4856 25.6303C39.3384 25.5786 39.7853 26.1157 39.7853 26.1157" stroke="#0A80D5" stroke-width="0.310303"/>
<path d="M36.888 25.9373C36.888 25.9373 37.3348 26.4743 38.1878 26.4227C39.0406 26.3711 39.4875 26.9081 39.4875 26.9081" fill="#0A80D5"/>
<path d="M36.888 25.9373C36.888 25.9373 37.3348 26.4743 38.1878 26.4227C39.0406 26.3711 39.4875 26.9081 39.4875 26.9081" stroke="#0A80D5" stroke-width="0.310303"/>
<path d="M34.7588 31.6126C34.7588 31.6126 35.2056 32.1496 36.0586 32.098C36.9115 32.0464 37.3583 32.5834 37.3583 32.5834" fill="#0A80D5"/>
<path d="M34.7588 31.6126C34.7588 31.6126 35.2056 32.1496 36.0586 32.098C36.9115 32.0464 37.3583 32.5834 37.3583 32.5834" stroke="#0A80D5" stroke-width="0.310303"/>
<path d="M34.461 32.4053C34.461 32.4053 34.9078 32.9424 35.7608 32.8908C36.6137 32.8391 37.0605 33.3762 37.0605 33.3762" fill="#0A80D5"/>
<path d="M34.461 32.4053C34.461 32.4053 34.9078 32.9424 35.7608 32.8908C36.6137 32.8391 37.0605 33.3762 37.0605 33.3762" stroke="#0A80D5" stroke-width="0.310303"/>
<path d="M39.6262 18.6411C39.6262 18.6411 40.073 19.1782 40.926 19.1266C41.7788 19.0749 42.2257 19.612 42.2257 19.612" fill="#0A80D5"/>
<path d="M39.6262 18.6411C39.6262 18.6411 40.073 19.1782 40.926 19.1266C41.7788 19.0749 42.2257 19.612 42.2257 19.612" stroke="#0A80D5" stroke-width="0.310303"/>
<path d="M39.3284 19.4341C39.3284 19.4341 39.7752 19.9712 40.6282 19.9196C41.481 19.8679 41.9279 20.405 41.9279 20.405" fill="#0A80D5"/>
<path d="M39.3284 19.4341C39.3284 19.4341 39.7752 19.9712 40.6282 19.9196C41.481 19.8679 41.9279 20.405 41.9279 20.405" stroke="#0A80D5" stroke-width="0.310303"/>
<path d="M27.9962 18.0347C27.9962 18.0347 28.443 18.5718 29.296 18.5201C30.1488 18.4685 30.5957 19.0056 30.5957 19.0056" fill="#0A80D5"/>
<path d="M27.9962 18.0347C27.9962 18.0347 28.443 18.5718 29.296 18.5201C30.1488 18.4685 30.5957 19.0056 30.5957 19.0056" stroke="#0A80D5" stroke-width="0.310303"/>
<path d="M27.699 18.8272C27.699 18.8272 28.1458 19.3642 28.9988 19.3126C29.8516 19.261 30.2985 19.798 30.2985 19.798" fill="#0A80D5"/>
<path d="M27.699 18.8272C27.699 18.8272 28.1458 19.3642 28.9988 19.3126C29.8516 19.261 30.2985 19.798 30.2985 19.798" stroke="#0A80D5" stroke-width="0.310303"/>
<path d="M26.7858 21.2595C26.7858 21.2595 27.2326 21.7966 28.0856 21.745C28.9385 21.6933 29.3853 22.2304 29.3853 22.2304" fill="#0A80D5"/>
<path d="M26.7858 21.2595C26.7858 21.2595 27.2326 21.7966 28.0856 21.745C28.9385 21.6933 29.3853 22.2304 29.3853 22.2304" stroke="#0A80D5" stroke-width="0.310303"/>
<path d="M26.4887 22.0523C26.4887 22.0523 26.9355 22.5893 27.7885 22.5377C28.6413 22.4861 29.0882 23.0231 29.0882 23.0231" fill="#0A80D5"/>
<path d="M26.4887 22.0523C26.4887 22.0523 26.9355 22.5893 27.7885 22.5377C28.6413 22.4861 29.0882 23.0231 29.0882 23.0231" stroke="#0A80D5" stroke-width="0.310303"/>
<path d="M29.2262 14.7559C29.2262 14.7559 29.673 15.2931 30.526 15.2413C31.3789 15.1897 31.8257 15.7267 31.8257 15.7267" fill="#0A80D5"/>
<path d="M29.2262 14.7559C29.2262 14.7559 29.673 15.2931 30.526 15.2413C31.3789 15.1897 31.8257 15.7267 31.8257 15.7267" stroke="#0A80D5" stroke-width="0.310303"/>
<path d="M28.9291 15.5486C28.9291 15.5486 29.3759 16.0857 30.2289 16.0341C31.0817 15.9824 31.5285 16.5195 31.5285 16.5195" fill="#0A80D5"/>
<path d="M28.9291 15.5486C28.9291 15.5486 29.3759 16.0857 30.2289 16.0341C31.0817 15.9824 31.5285 16.5195 31.5285 16.5195" stroke="#0A80D5" stroke-width="0.310303"/>
</g>
<mask id="mask1_1846_3747" style="mask-type:alpha" maskUnits="userSpaceOnUse" x="11" y="9" width="14" height="15">
<path d="M20.1484 10.2895C20.3477 10.0645 20.7186 10.2251 20.6899 10.5241L20.3145 14.4349C20.276 14.836 20.5003 15.216 20.8703 15.3763L24.48 16.9403C24.756 17.0598 24.717 17.4624 24.4232 17.5275L20.5835 18.379C20.1891 18.4664 19.8957 18.7978 19.8572 19.1994L19.4821 23.1076C19.4534 23.4066 19.0584 23.4947 18.9056 23.2362L16.9053 19.8517C16.7005 19.5052 16.2957 19.3298 15.9021 19.417L12.0581 20.2694C11.7644 20.3346 11.5593 19.9864 11.7587 19.7613L14.3643 16.8196C14.6321 16.5173 14.6745 16.0772 14.4692 15.7299L12.4712 12.3492C12.3183 12.0906 12.5865 11.7873 12.8624 11.9068L16.4722 13.4708C16.8421 13.6311 17.2735 13.5352 17.5409 13.2333L20.1484 10.2895Z" fill="#FDEAFA" stroke="#E85300" stroke-width="0.620606"/>
</mask>
<g mask="url(#mask1_1846_3747)">
<path d="M24.2602 23.4361C24.2602 23.4361 24.4024 24.1194 25.1794 24.4739C25.9564 24.8284 26.0986 25.5117 26.0986 25.5117" stroke="#0A80D5" stroke-width="0.310303"/>
<path d="M19.4918 12.8529C19.4918 12.8529 19.6341 13.5362 20.4111 13.8907C21.1879 14.2451 21.3302 14.9284 21.3302 14.9284" stroke="#0A80D5" stroke-width="0.310303"/>
<path d="M18.856 13.4139C18.856 13.4139 18.9983 14.0972 19.7752 14.4517C20.5521 14.8061 20.6944 15.4894 20.6944 15.4894" stroke="#0A80D5" stroke-width="0.310303"/>
<path d="M14.3056 17.4263C14.3056 17.4263 14.4478 18.1097 15.2248 18.4641C16.0017 18.8185 16.144 19.5018 16.144 19.5018" stroke="#0A80D5" stroke-width="0.310303"/>
<path d="M13.6704 17.9869C13.6704 17.9869 13.8127 18.6702 14.5897 19.0247C15.3666 19.3791 15.5088 20.0624 15.5088 20.0624" stroke="#0A80D5" stroke-width="0.310303"/>
<path d="M24.7068 8.25398C24.7068 8.25398 24.849 8.9373 25.626 9.29179C26.4029 9.64618 26.5451 10.3295 26.5451 10.3295" stroke="#0A80D5" stroke-width="0.310303"/>
<path d="M24.071 8.81502C24.071 8.81502 24.2132 9.49837 24.9902 9.85282C25.7671 10.2072 25.9093 10.8905 25.9093 10.8905" stroke="#0A80D5" stroke-width="0.310303"/>
<path d="M16.9063 15.1334C16.9063 15.1334 17.0486 15.8167 17.8256 16.1712C18.6025 16.5256 18.7447 17.2089 18.7447 17.2089" stroke="#0A80D5" stroke-width="0.310303"/>
<path d="M16.2706 15.6939C16.2706 15.6939 16.4128 16.3772 17.1898 16.7317C17.9667 17.0861 18.1089 17.7694 18.1089 17.7694" stroke="#0A80D5" stroke-width="0.310303"/>
<path d="M11.7201 19.7067C11.7201 19.7067 11.8623 20.39 12.6393 20.7445C13.4163 21.0988 13.5585 21.7822 13.5585 21.7822" stroke="#0A80D5" stroke-width="0.310303"/>
<path d="M11.0844 20.2674C11.0844 20.2674 11.2265 20.9508 12.0036 21.3052C12.7805 21.6596 12.9227 22.3429 12.9227 22.3429" stroke="#0A80D5" stroke-width="0.310303"/>
<path d="M22.1214 10.5343C22.1214 10.5343 22.2636 11.2176 23.0406 11.5721C23.8175 11.9265 23.9597 12.6098 23.9597 12.6098" stroke="#0A80D5" stroke-width="0.310303"/>
<path d="M21.4855 11.0953C21.4855 11.0953 21.6278 11.7786 22.4048 12.1331C23.1817 12.4875 23.3239 13.1708 23.3239 13.1708" stroke="#0A80D5" stroke-width="0.310303"/>
<path d="M15.8149 8.70223C15.8149 8.70223 15.9572 9.38553 16.7342 9.74003C17.5112 10.0945 17.6534 10.7778 17.6534 10.7778" stroke="#0A80D5" stroke-width="0.310303"/>
<path d="M15.1798 9.26253C15.1798 9.26253 15.322 9.94584 16.099 10.3003C16.876 10.6548 17.0182 11.3381 17.0182 11.3381" stroke="#0A80D5" stroke-width="0.310303"/>
<path d="M10.6294 13.2755C10.6294 13.2755 10.7716 13.9588 11.5486 14.3133C12.3256 14.6678 12.4678 15.3511 12.4678 15.3511" stroke="#0A80D5" stroke-width="0.310303"/>
<path d="M9.99357 13.836C9.99357 13.836 10.1358 14.5193 10.9128 14.8738C11.6898 15.2283 11.832 15.9116 11.832 15.9116" stroke="#0A80D5" stroke-width="0.310303"/>
<path d="M13.2295 10.9823C13.2295 10.9823 13.3717 11.6656 14.1487 12.0201C14.9257 12.3746 15.0679 13.0579 15.0679 13.0579" stroke="#0A80D5" stroke-width="0.310303"/>
<path d="M12.5937 11.543C12.5937 11.543 12.7359 12.2264 13.5129 12.5808C14.2899 12.9353 14.4321 13.6187 14.4321 13.6187" stroke="#0A80D5" stroke-width="0.310303"/>
<path d="M23.1687 17.0047C23.1687 17.0047 23.311 17.688 24.0879 18.0424C24.8649 18.3969 25.0071 19.0802 25.0071 19.0802" stroke="#0A80D5" stroke-width="0.310303"/>
<path d="M22.5336 17.5653C22.5336 17.5653 22.6758 18.2486 23.4527 18.603C24.2297 18.9575 24.3719 19.6408 24.3719 19.6408" stroke="#0A80D5" stroke-width="0.310303"/>
<path d="M17.9832 21.5772C17.9832 21.5772 18.1254 22.2605 18.9023 22.6149C19.6793 22.9694 19.8215 23.6527 19.8215 23.6527" stroke="#0A80D5" stroke-width="0.310303"/>
<path d="M17.3473 22.1385C17.3473 22.1385 17.4896 22.8218 18.2665 23.1762C19.0434 23.5307 19.1857 24.214 19.1857 24.214" stroke="#0A80D5" stroke-width="0.310303"/>
<path d="M20.5833 19.2845C20.5833 19.2845 20.7255 19.9678 21.5024 20.3222C22.2794 20.6767 22.4216 21.36 22.4216 21.36" stroke="#0A80D5" stroke-width="0.310303"/>
<path d="M19.9475 19.8455C19.9475 19.8455 20.0897 20.5288 20.8666 20.8832C21.6436 21.2377 21.7858 21.921 21.7858 21.921" stroke="#0A80D5" stroke-width="0.310303"/>
<path d="M15.397 23.858C15.397 23.858 15.5393 24.5413 16.3162 24.8957C17.0932 25.2501 17.2354 25.9335 17.2354 25.9335" stroke="#0A80D5" stroke-width="0.310303"/>
<path d="M25.1625 15.2464C25.1625 15.2464 25.3047 15.9297 26.0816 16.2841C26.8586 16.6386 27.0008 17.3219 27.0008 17.3219" stroke="#0A80D5" stroke-width="0.310303"/>
<path d="M12.6908 7.76009C12.6908 7.76009 12.8331 8.44339 13.6101 8.79789C14.387 9.15239 14.5292 9.83559 14.5292 9.83559" stroke="#0A80D5" stroke-width="0.310303"/>
<path d="M12.0556 8.32063C12.0556 8.32063 12.1979 9.00394 12.9749 9.35844C13.7519 9.71293 13.894 10.3961 13.894 10.3961" stroke="#0A80D5" stroke-width="0.310303"/>
<path d="M10.1054 10.0406C10.1054 10.0406 10.2476 10.7239 11.0246 11.0784C11.8016 11.4329 11.9437 12.1161 11.9437 12.1161" stroke="#0A80D5" stroke-width="0.310303"/>
<path d="M9.46958 10.6009C9.46958 10.6009 9.61181 11.2842 10.3888 11.6387C11.1658 11.9932 11.3079 12.6764 11.3079 12.6764" stroke="#0A80D5" stroke-width="0.310303"/>
<path d="M20.0446 16.0626C20.0446 16.0626 20.1869 16.7459 20.9638 17.1004C21.7408 17.4549 21.883 18.1381 21.883 18.1381" stroke="#0A80D5" stroke-width="0.310303"/>
<path d="M19.4095 16.6234C19.4095 16.6234 19.5517 17.3067 20.3287 17.6612C21.1057 18.0157 21.2478 18.6989 21.2478 18.6989" stroke="#0A80D5" stroke-width="0.310303"/>
<path d="M14.859 20.6361C14.859 20.6361 15.0013 21.3194 15.7783 21.6739C16.5553 22.0284 16.6974 22.7116 16.6974 22.7116" stroke="#0A80D5" stroke-width="0.310303"/>
<path d="M14.2232 21.1966C14.2232 21.1966 14.3654 21.8799 15.1424 22.2344C15.9194 22.5889 16.0616 23.2721 16.0616 23.2721" stroke="#0A80D5" stroke-width="0.310303"/>
<path d="M25.2596 11.4632C25.2596 11.4632 25.4018 12.1465 26.1788 12.501C26.9558 12.8555 27.0979 13.5387 27.0979 13.5387" stroke="#0A80D5" stroke-width="0.310303"/>
<path d="M24.6238 12.0242C24.6238 12.0242 24.766 12.7076 25.543 13.062C26.32 13.4165 26.4621 14.0997 26.4621 14.0997" stroke="#0A80D5" stroke-width="0.310303"/>
<path d="M17.4592 18.3431C17.4592 18.3431 17.6014 19.0264 18.3784 19.3809C19.1554 19.7354 19.2975 20.4186 19.2975 20.4186" stroke="#0A80D5" stroke-width="0.310303"/>
<path d="M16.8233 18.9034C16.8233 18.9034 16.9656 19.5867 17.7426 19.9412C18.5196 20.2957 18.6617 20.9789 18.6617 20.9789" stroke="#0A80D5" stroke-width="0.310303"/>
<path d="M12.2729 22.9161C12.2729 22.9161 12.4152 23.5994 13.1921 23.9539C13.9691 24.3084 14.1113 24.9916 14.1113 24.9916" stroke="#0A80D5" stroke-width="0.310303"/>
<path d="M11.6371 23.4766C11.6371 23.4766 11.7794 24.1599 12.5563 24.5144C13.3333 24.8689 13.4755 25.5521 13.4755 25.5521" stroke="#0A80D5" stroke-width="0.310303"/>
<path d="M22.6741 13.744C22.6741 13.744 22.8163 14.4274 23.5934 14.7818C24.3704 15.1363 24.5125 15.8195 24.5125 15.8195" stroke="#0A80D5" stroke-width="0.310303"/>
<path d="M22.0383 14.3045C22.0383 14.3045 22.1805 14.9878 22.9575 15.3423C23.7345 15.6968 23.8767 16.38 23.8767 16.38" stroke="#0A80D5" stroke-width="0.310303"/>
<path d="M16.3677 11.9115C16.3677 11.9115 16.5099 12.5948 17.2869 12.9493C18.0639 13.3038 18.2062 13.9871 18.2062 13.9871" stroke="#0A80D5" stroke-width="0.310303"/>
<path d="M15.7325 12.472C15.7325 12.472 15.8748 13.1553 16.6517 13.5098C17.4287 13.8643 17.571 14.5476 17.571 14.5476" stroke="#0A80D5" stroke-width="0.310303"/>
<path d="M11.1821 16.4847C11.1821 16.4847 11.3244 17.168 12.1014 17.5225C12.8783 17.877 13.0206 18.5603 13.0206 18.5603" stroke="#0A80D5" stroke-width="0.310303"/>
<path d="M10.5463 17.0452C10.5463 17.0452 10.6885 17.7285 11.4655 18.083C12.2425 18.4375 12.3847 19.1208 12.3847 19.1208" stroke="#0A80D5" stroke-width="0.310303"/>
<path d="M20.9468 7.87288C20.9468 7.87288 21.0891 8.55619 21.8661 8.91068C22.6431 9.26518 22.7853 9.94848 22.7853 9.94848" stroke="#0A80D5" stroke-width="0.310303"/>
<path d="M13.7823 14.192C13.7823 14.192 13.9245 14.8753 14.7015 15.2298C15.4785 15.5843 15.6207 16.2676 15.6207 16.2676" stroke="#0A80D5" stroke-width="0.310303"/>
<path d="M13.1464 14.752C13.1464 14.752 13.2887 15.4353 14.0657 15.7898C14.8426 16.1443 14.9849 16.8276 14.9849 16.8276" stroke="#0A80D5" stroke-width="0.310303"/>
<path d="M18.9972 9.59261C18.9972 9.59261 19.1394 10.276 19.9165 10.6304C20.6934 10.9849 20.8357 11.6682 20.8357 11.6682" stroke="#0A80D5" stroke-width="0.310303"/>
<path d="M18.3614 10.1536C18.3614 10.1536 18.5036 10.8369 19.2806 11.1914C20.0576 11.5459 20.1998 12.2292 20.1998 12.2292" stroke="#0A80D5" stroke-width="0.310303"/>
<path d="M23.7221 20.2139C23.7221 20.2139 23.8643 20.8972 24.6413 21.2517C25.4182 21.6061 25.5605 22.2894 25.5605 22.2894" stroke="#0A80D5" stroke-width="0.310303"/>
<path d="M23.0863 20.7745C23.0863 20.7745 23.2285 21.4578 24.0055 21.8123C24.7824 22.1667 24.9246 22.85 24.9246 22.85" stroke="#0A80D5" stroke-width="0.310303"/>
<path d="M21.1361 22.4942C21.1361 22.4942 21.2783 23.1775 22.0553 23.532C22.8322 23.8864 22.9744 24.5697 22.9744 24.5697" stroke="#0A80D5" stroke-width="0.310303"/>
<path d="M20.5002 23.055C20.5002 23.055 20.6425 23.7383 21.4194 24.0928C22.1963 24.4472 22.3386 25.1305 22.3386 25.1305" stroke="#0A80D5" stroke-width="0.310303"/>
</g>
</svg>
