<svg width="48" height="42" viewBox="0 0 48 42" fill="none" xmlns="http://www.w3.org/2000/svg">
<path d="M12.7533 12.7046L5.25683 17.3777L1.47937 15.476L8.97587 10.7964L12.7533 12.7046Z" fill="#FF7E3B" stroke="#DA5107" stroke-width="1.3617" stroke-miterlimit="10" stroke-linejoin="round"/>
<path d="M18.783 27.7299L18.5753 23.6928L33.3152 6.08417L40.8117 1.40454L18.783 27.7299Z" fill="#FFC2A2" stroke="#DA5107" stroke-width="1.3617" stroke-miterlimit="10" stroke-linejoin="round"/>
<path d="M40.812 1.40454L18.7833 27.7299L17.8357 9.16714L14.6943 7.66135L10.6118 5.52599L3.11534 10.1991L1.47974 15.4759L8.97623 10.7963L12.7537 12.7044L13.6104 32.5588L19.8478 35.7132L46.4003 4.2279L40.812 1.40454Z" fill="#FFC2A2" stroke="#DA5107" stroke-width="1.3617" stroke-miterlimit="10" stroke-linejoin="round"/>
<path d="M19.8474 35.7132L12.3509 40.3863L6.10712 37.2385L13.6101 32.5588L19.8474 35.7132Z" fill="#FF7E3B" stroke="#DA5107" stroke-width="1.3617" stroke-miterlimit="10" stroke-linejoin="round"/>
<path d="M13.6101 32.5589L6.10709 37.2386L5.25684 17.3777L12.7533 12.7046L13.6101 32.5589Z" fill="#FF7E3B" stroke="#DA5107" stroke-width="1.3617" stroke-miterlimit="10" stroke-linejoin="round"/>
<mask id="mask0_1846_18109" style="mask-type:alpha" maskUnits="userSpaceOnUse" x="0" y="10" width="14" height="9">
<path d="M12.7533 12.7043L5.25683 17.3775L1.47937 15.4758L8.97587 10.7961L12.7533 12.7043Z" fill="#FF7E3B" stroke="#E85300" stroke-width="1.3617" stroke-miterlimit="10" stroke-linejoin="round"/>
</mask>
<g mask="url(#mask0_1846_18109)">
<path d="M13.5713 13.1652C13.7919 13.1652 13.9672 13.295 14.1359 13.295C14.2138 13.295 14.2722 13.256 14.3436 13.1587L14.5578 13.3274C14.441 13.5027 14.3112 13.5741 14.1489 13.5741C13.9347 13.5741 13.74 13.4443 13.5907 13.4443C13.5063 13.4443 13.4479 13.4832 13.3765 13.5806L13.1818 13.4118C13.2987 13.2366 13.409 13.1652 13.5713 13.1652Z" fill="#DA5107"/>
<path d="M11.624 14.1388C11.8447 14.1388 12.02 14.2686 12.1887 14.2686C12.2666 14.2686 12.325 14.2297 12.3964 14.1323L12.6106 14.3011C12.4938 14.4763 12.364 14.5477 12.2017 14.5477C11.9875 14.5477 11.7928 14.4179 11.6435 14.4179C11.5591 14.4179 11.5007 14.4568 11.4293 14.5542L11.2346 14.3855C11.3514 14.2102 11.4618 14.1388 11.624 14.1388Z" fill="#DA5107"/>
<path d="M9.6769 13.1652C9.89758 13.1652 10.0728 13.295 10.2416 13.295C10.3195 13.295 10.3779 13.256 10.4493 13.1587L10.6635 13.3274C10.5466 13.5027 10.4168 13.5741 10.2546 13.5741C10.0404 13.5741 9.84565 13.4443 9.69637 13.4443C9.612 13.4443 9.55358 13.4832 9.48219 13.5806L9.28748 13.4118C9.4043 13.2366 9.51464 13.1652 9.6769 13.1652Z" fill="#DA5107"/>
<path d="M13.5713 11.2179C13.7919 11.2179 13.9672 11.3477 14.1359 11.3477C14.2138 11.3477 14.2722 11.3088 14.3436 11.2114L14.5578 11.3802C14.441 11.5554 14.3112 11.6268 14.1489 11.6268C13.9347 11.6268 13.74 11.497 13.5907 11.497C13.5063 11.497 13.4479 11.5359 13.3765 11.6333L13.1818 11.4646C13.2987 11.2893 13.409 11.2179 13.5713 11.2179Z" fill="#DA5107"/>
<path d="M11.624 12.1915C11.8447 12.1915 12.02 12.3214 12.1887 12.3214C12.2666 12.3214 12.325 12.2824 12.3964 12.1851L12.6106 12.3538C12.4938 12.5291 12.364 12.6004 12.2017 12.6004C11.9875 12.6004 11.7928 12.4706 11.6435 12.4706C11.5591 12.4706 11.5007 12.5096 11.4293 12.6069L11.2346 12.4382C11.3514 12.2629 11.4618 12.1915 11.624 12.1915Z" fill="#DA5107"/>
<path d="M9.6769 11.2179C9.89758 11.2179 10.0728 11.3477 10.2416 11.3477C10.3195 11.3477 10.3779 11.3088 10.4493 11.2114L10.6635 11.3802C10.5466 11.5554 10.4168 11.6268 10.2546 11.6268C10.0404 11.6268 9.84565 11.497 9.69637 11.497C9.612 11.497 9.55358 11.5359 9.48219 11.6333L9.28748 11.4646C9.4043 11.2893 9.51464 11.2179 9.6769 11.2179Z" fill="#DA5107"/>
<path d="M11.624 10.2445C11.8447 10.2445 12.02 10.3743 12.1887 10.3743C12.2666 10.3743 12.325 10.3354 12.3964 10.238L12.6106 10.4068C12.4938 10.582 12.364 10.6534 12.2017 10.6534C11.9875 10.6534 11.7928 10.5236 11.6435 10.5236C11.5591 10.5236 11.5007 10.5626 11.4293 10.6599L11.2346 10.4912C11.3514 10.3159 11.4618 10.2445 11.624 10.2445Z" fill="#DA5107"/>
<path d="M13.5713 17.0595C13.7919 17.0595 13.9672 17.1893 14.1359 17.1893C14.2138 17.1893 14.2722 17.1503 14.3436 17.053L14.5578 17.2217C14.441 17.397 14.3112 17.4684 14.1489 17.4684C13.9347 17.4684 13.74 17.3386 13.5907 17.3386C13.5063 17.3386 13.4479 17.3775 13.3765 17.4749L13.1818 17.3061C13.2987 17.1309 13.409 17.0595 13.5713 17.0595Z" fill="#DA5107"/>
<path d="M11.624 18.0331C11.8447 18.0331 12.02 18.1629 12.1887 18.1629C12.2666 18.1629 12.325 18.124 12.3964 18.0266L12.6106 18.1954C12.4938 18.3706 12.364 18.442 12.2017 18.442C11.9875 18.442 11.7928 18.3122 11.6435 18.3122C11.5591 18.3122 11.5007 18.3511 11.4293 18.4485L11.2346 18.2797C11.3514 18.1045 11.4618 18.0331 11.624 18.0331Z" fill="#DA5107"/>
<path d="M9.6769 17.0595C9.89758 17.0595 10.0728 17.1893 10.2416 17.1893C10.3195 17.1893 10.3779 17.1503 10.4493 17.053L10.6635 17.2217C10.5466 17.397 10.4168 17.4684 10.2546 17.4684C10.0404 17.4684 9.84565 17.3386 9.69637 17.3386C9.612 17.3386 9.55358 17.3775 9.48219 17.4749L9.28748 17.3061C9.4043 17.1309 9.51464 17.0595 9.6769 17.0595Z" fill="#DA5107"/>
<path d="M13.5713 15.1122C13.7919 15.1122 13.9672 15.242 14.1359 15.242C14.2138 15.242 14.2722 15.2031 14.3436 15.1057L14.5578 15.2745C14.441 15.4497 14.3112 15.5211 14.1489 15.5211C13.9347 15.5211 13.74 15.3913 13.5907 15.3913C13.5063 15.3913 13.4479 15.4302 13.3765 15.5276L13.1818 15.3588C13.2987 15.1836 13.409 15.1122 13.5713 15.1122Z" fill="#DA5107"/>
<path d="M11.624 16.0858C11.8447 16.0858 12.02 16.2156 12.1887 16.2156C12.2666 16.2156 12.325 16.1767 12.3964 16.0793L12.6106 16.2481C12.4938 16.4233 12.364 16.4947 12.2017 16.4947C11.9875 16.4947 11.7928 16.3649 11.6435 16.3649C11.5591 16.3649 11.5007 16.4039 11.4293 16.5012L11.2346 16.3325C11.3514 16.1572 11.4618 16.0858 11.624 16.0858Z" fill="#DA5107"/>
<path d="M9.6769 15.1122C9.89758 15.1122 10.0728 15.242 10.2416 15.242C10.3195 15.242 10.3779 15.2031 10.4493 15.1057L10.6635 15.2745C10.5466 15.4497 10.4168 15.5211 10.2546 15.5211C10.0404 15.5211 9.84565 15.3913 9.69637 15.3913C9.612 15.3913 9.55358 15.4302 9.48219 15.5276L9.28748 15.3588C9.4043 15.1836 9.51464 15.1122 9.6769 15.1122Z" fill="#DA5107"/>
<path d="M11.624 14.1388C11.8447 14.1388 12.02 14.2686 12.1887 14.2686C12.2666 14.2686 12.325 14.2297 12.3964 14.1323L12.6106 14.3011C12.4938 14.4763 12.364 14.5477 12.2017 14.5477C11.9875 14.5477 11.7928 14.4179 11.6435 14.4179C11.5591 14.4179 11.5007 14.4568 11.4293 14.5542L11.2346 14.3855C11.3514 14.2102 11.4618 14.1388 11.624 14.1388Z" fill="#DA5107"/>
<path d="M9.67684 13.1652C9.89752 13.1652 10.0728 13.295 10.2415 13.295C10.3194 13.295 10.3778 13.256 10.4492 13.1587L10.6634 13.3274C10.5466 13.5027 10.4168 13.5741 10.2545 13.5741C10.0403 13.5741 9.84559 13.4443 9.69631 13.4443C9.61194 13.4443 9.55352 13.4832 9.48213 13.5806L9.28741 13.4118C9.40424 13.2366 9.51458 13.1652 9.67684 13.1652Z" fill="#DA5107"/>
<path d="M7.72976 14.1388C7.95044 14.1388 8.12567 14.2686 8.29443 14.2686C8.37231 14.2686 8.43073 14.2297 8.50213 14.1323L8.71631 14.3011C8.59948 14.4763 8.46967 14.5477 8.30741 14.5477C8.09323 14.5477 7.89851 14.4179 7.74923 14.4179C7.66485 14.4179 7.60644 14.4568 7.53504 14.5542L7.34033 14.3855C7.45716 14.2102 7.5675 14.1388 7.72976 14.1388Z" fill="#DA5107"/>
<path d="M5.78262 13.1652C6.00329 13.1652 6.17853 13.295 6.34728 13.295C6.42517 13.295 6.48359 13.256 6.55498 13.1587L6.76917 13.3274C6.65234 13.5027 6.52253 13.5741 6.36027 13.5741C6.14608 13.5741 5.95137 13.4443 5.80209 13.4443C5.71771 13.4443 5.65929 13.4832 5.5879 13.5806L5.39319 13.4118C5.51002 13.2366 5.62035 13.1652 5.78262 13.1652Z" fill="#DA5107"/>
<path d="M9.67684 11.2179C9.89752 11.2179 10.0728 11.3477 10.2415 11.3477C10.3194 11.3477 10.3778 11.3088 10.4492 11.2114L10.6634 11.3802C10.5466 11.5554 10.4168 11.6268 10.2545 11.6268C10.0403 11.6268 9.84559 11.497 9.69631 11.497C9.61194 11.497 9.55352 11.5359 9.48213 11.6333L9.28741 11.4646C9.40424 11.2893 9.51458 11.2179 9.67684 11.2179Z" fill="#DA5107"/>
<path d="M7.72976 12.1915C7.95044 12.1915 8.12567 12.3214 8.29443 12.3214C8.37231 12.3214 8.43073 12.2824 8.50213 12.1851L8.71631 12.3538C8.59948 12.5291 8.46967 12.6004 8.30741 12.6004C8.09323 12.6004 7.89851 12.4706 7.74923 12.4706C7.66485 12.4706 7.60644 12.5096 7.53504 12.6069L7.34033 12.4382C7.45716 12.2629 7.5675 12.1915 7.72976 12.1915Z" fill="#DA5107"/>
<path d="M5.78262 11.2179C6.00329 11.2179 6.17853 11.3477 6.34728 11.3477C6.42517 11.3477 6.48359 11.3088 6.55498 11.2114L6.76917 11.3802C6.65234 11.5554 6.52253 11.6268 6.36027 11.6268C6.14608 11.6268 5.95137 11.497 5.80209 11.497C5.71771 11.497 5.65929 11.5359 5.5879 11.6333L5.39319 11.4646C5.51002 11.2893 5.62035 11.2179 5.78262 11.2179Z" fill="#DA5107"/>
<path d="M7.72976 10.2445C7.95044 10.2445 8.12567 10.3743 8.29443 10.3743C8.37231 10.3743 8.43073 10.3354 8.50213 10.238L8.71631 10.4068C8.59948 10.582 8.46967 10.6534 8.30741 10.6534C8.09323 10.6534 7.89851 10.5236 7.74923 10.5236C7.66485 10.5236 7.60644 10.5626 7.53504 10.6599L7.34033 10.4912C7.45716 10.3159 7.5675 10.2445 7.72976 10.2445Z" fill="#DA5107"/>
<path d="M9.67684 17.0595C9.89752 17.0595 10.0728 17.1893 10.2415 17.1893C10.3194 17.1893 10.3778 17.1503 10.4492 17.053L10.6634 17.2217C10.5466 17.397 10.4168 17.4684 10.2545 17.4684C10.0403 17.4684 9.84559 17.3386 9.69631 17.3386C9.61194 17.3386 9.55352 17.3775 9.48213 17.4749L9.28741 17.3061C9.40424 17.1309 9.51458 17.0595 9.67684 17.0595Z" fill="#DA5107"/>
<path d="M7.72976 18.0331C7.95044 18.0331 8.12567 18.1629 8.29443 18.1629C8.37231 18.1629 8.43073 18.124 8.50213 18.0266L8.71631 18.1954C8.59948 18.3706 8.46967 18.442 8.30741 18.442C8.09323 18.442 7.89851 18.3122 7.74923 18.3122C7.66485 18.3122 7.60644 18.3511 7.53504 18.4485L7.34033 18.2797C7.45716 18.1045 7.5675 18.0331 7.72976 18.0331Z" fill="#DA5107"/>
<path d="M5.78262 17.0595C6.00329 17.0595 6.17853 17.1893 6.34728 17.1893C6.42517 17.1893 6.48359 17.1503 6.55498 17.053L6.76917 17.2217C6.65234 17.397 6.52253 17.4684 6.36027 17.4684C6.14608 17.4684 5.95137 17.3386 5.80209 17.3386C5.71771 17.3386 5.65929 17.3775 5.5879 17.4749L5.39319 17.3061C5.51002 17.1309 5.62035 17.0595 5.78262 17.0595Z" fill="#DA5107"/>
<path d="M9.67684 15.1122C9.89752 15.1122 10.0728 15.242 10.2415 15.242C10.3194 15.242 10.3778 15.2031 10.4492 15.1057L10.6634 15.2745C10.5466 15.4497 10.4168 15.5211 10.2545 15.5211C10.0403 15.5211 9.84559 15.3913 9.69631 15.3913C9.61194 15.3913 9.55352 15.4302 9.48213 15.5276L9.28741 15.3588C9.40424 15.1836 9.51458 15.1122 9.67684 15.1122Z" fill="#DA5107"/>
<path d="M7.72976 16.0858C7.95044 16.0858 8.12567 16.2156 8.29443 16.2156C8.37231 16.2156 8.43073 16.1767 8.50213 16.0793L8.71631 16.2481C8.59948 16.4233 8.46967 16.4947 8.30741 16.4947C8.09323 16.4947 7.89851 16.3649 7.74923 16.3649C7.66485 16.3649 7.60644 16.4039 7.53504 16.5012L7.34033 16.3325C7.45716 16.1572 7.5675 16.0858 7.72976 16.0858Z" fill="#DA5107"/>
<path d="M5.78262 15.1122C6.00329 15.1122 6.17853 15.242 6.34728 15.242C6.42517 15.242 6.48359 15.2031 6.55498 15.1057L6.76917 15.2745C6.65234 15.4497 6.52253 15.5211 6.36027 15.5211C6.14608 15.5211 5.95137 15.3913 5.80209 15.3913C5.71771 15.3913 5.65929 15.4302 5.5879 15.5276L5.39319 15.3588C5.51002 15.1836 5.62035 15.1122 5.78262 15.1122Z" fill="#DA5107"/>
<path d="M7.72976 14.1388C7.95044 14.1388 8.12567 14.2686 8.29443 14.2686C8.37231 14.2686 8.43073 14.2297 8.50213 14.1323L8.71631 14.3011C8.59948 14.4763 8.46967 14.5477 8.30741 14.5477C8.09323 14.5477 7.89851 14.4179 7.74923 14.4179C7.66485 14.4179 7.60644 14.4568 7.53504 14.5542L7.34033 14.3855C7.45716 14.2102 7.5675 14.1388 7.72976 14.1388Z" fill="#DA5107"/>
<path d="M5.78268 13.1652C6.00335 13.1652 6.17859 13.295 6.34734 13.295C6.42523 13.295 6.48365 13.256 6.55504 13.1587L6.76923 13.3274C6.6524 13.5027 6.52259 13.5741 6.36033 13.5741C6.14614 13.5741 5.95143 13.4443 5.80215 13.4443C5.71777 13.4443 5.65936 13.4832 5.58796 13.5806L5.39325 13.4118C5.51008 13.2366 5.62041 13.1652 5.78268 13.1652Z" fill="#DA5107"/>
<path d="M3.83547 14.1388C4.05615 14.1388 4.23139 14.2686 4.40014 14.2686C4.47803 14.2686 4.53644 14.2297 4.60784 14.1323L4.82202 14.3011C4.70519 14.4763 4.57539 14.5477 4.41312 14.5477C4.19894 14.5477 4.00422 14.4179 3.85494 14.4179C3.77057 14.4179 3.71215 14.4568 3.64076 14.5542L3.44604 14.3855C3.56287 14.2102 3.67321 14.1388 3.83547 14.1388Z" fill="#DA5107"/>
<path d="M1.88833 13.1652C2.109 13.1652 2.28424 13.295 2.453 13.295C2.53088 13.295 2.5893 13.256 2.6607 13.1587L2.87488 13.3274C2.75805 13.5027 2.62824 13.5741 2.46598 13.5741C2.25179 13.5741 2.05708 13.4443 1.9078 13.4443C1.82342 13.4443 1.76501 13.4832 1.69361 13.5806L1.4989 13.4118C1.61573 13.2366 1.72607 13.1652 1.88833 13.1652Z" fill="#DA5107"/>
<path d="M5.78268 11.2179C6.00335 11.2179 6.17859 11.3477 6.34734 11.3477C6.42523 11.3477 6.48365 11.3088 6.55504 11.2114L6.76923 11.3802C6.6524 11.5554 6.52259 11.6268 6.36033 11.6268C6.14614 11.6268 5.95143 11.497 5.80215 11.497C5.71777 11.497 5.65936 11.5359 5.58796 11.6333L5.39325 11.4646C5.51008 11.2893 5.62041 11.2179 5.78268 11.2179Z" fill="#DA5107"/>
<path d="M3.83547 12.1915C4.05615 12.1915 4.23139 12.3214 4.40014 12.3214C4.47803 12.3214 4.53644 12.2824 4.60784 12.1851L4.82202 12.3538C4.70519 12.5291 4.57539 12.6004 4.41312 12.6004C4.19894 12.6004 4.00422 12.4706 3.85494 12.4706C3.77057 12.4706 3.71215 12.5096 3.64076 12.6069L3.44604 12.4382C3.56287 12.2629 3.67321 12.1915 3.83547 12.1915Z" fill="#DA5107"/>
<path d="M1.88833 11.2179C2.109 11.2179 2.28424 11.3477 2.453 11.3477C2.53088 11.3477 2.5893 11.3088 2.6607 11.2114L2.87488 11.3802C2.75805 11.5554 2.62824 11.6268 2.46598 11.6268C2.25179 11.6268 2.05708 11.497 1.9078 11.497C1.82342 11.497 1.76501 11.5359 1.69361 11.6333L1.4989 11.4646C1.61573 11.2893 1.72607 11.2179 1.88833 11.2179Z" fill="#DA5107"/>
<path d="M3.83547 10.2445C4.05615 10.2445 4.23139 10.3743 4.40014 10.3743C4.47803 10.3743 4.53644 10.3354 4.60784 10.238L4.82202 10.4068C4.70519 10.582 4.57539 10.6534 4.41312 10.6534C4.19894 10.6534 4.00422 10.5236 3.85494 10.5236C3.77057 10.5236 3.71215 10.5626 3.64076 10.6599L3.44604 10.4912C3.56287 10.3159 3.67321 10.2445 3.83547 10.2445Z" fill="#DA5107"/>
<path d="M5.78268 17.0595C6.00335 17.0595 6.17859 17.1893 6.34734 17.1893C6.42523 17.1893 6.48365 17.1503 6.55504 17.053L6.76923 17.2217C6.6524 17.397 6.52259 17.4684 6.36033 17.4684C6.14614 17.4684 5.95143 17.3386 5.80215 17.3386C5.71777 17.3386 5.65936 17.3775 5.58796 17.4749L5.39325 17.3061C5.51008 17.1309 5.62041 17.0595 5.78268 17.0595Z" fill="#DA5107"/>
<path d="M3.83547 18.0331C4.05615 18.0331 4.23139 18.1629 4.40014 18.1629C4.47803 18.1629 4.53644 18.124 4.60784 18.0266L4.82202 18.1954C4.70519 18.3706 4.57539 18.442 4.41312 18.442C4.19894 18.442 4.00422 18.3122 3.85494 18.3122C3.77057 18.3122 3.71215 18.3511 3.64076 18.4485L3.44604 18.2797C3.56287 18.1045 3.67321 18.0331 3.83547 18.0331Z" fill="#DA5107"/>
<path d="M1.88833 17.0595C2.109 17.0595 2.28424 17.1893 2.453 17.1893C2.53088 17.1893 2.5893 17.1503 2.6607 17.053L2.87488 17.2217C2.75805 17.397 2.62824 17.4684 2.46598 17.4684C2.25179 17.4684 2.05708 17.3386 1.9078 17.3386C1.82342 17.3386 1.76501 17.3775 1.69361 17.4749L1.4989 17.3061C1.61573 17.1309 1.72607 17.0595 1.88833 17.0595Z" fill="#DA5107"/>
<path d="M5.78268 15.1122C6.00335 15.1122 6.17859 15.242 6.34734 15.242C6.42523 15.242 6.48365 15.2031 6.55504 15.1057L6.76923 15.2745C6.6524 15.4497 6.52259 15.5211 6.36033 15.5211C6.14614 15.5211 5.95143 15.3913 5.80215 15.3913C5.71777 15.3913 5.65936 15.4302 5.58796 15.5276L5.39325 15.3588C5.51008 15.1836 5.62041 15.1122 5.78268 15.1122Z" fill="#DA5107"/>
<path d="M3.83547 16.0858C4.05615 16.0858 4.23139 16.2156 4.40014 16.2156C4.47803 16.2156 4.53644 16.1767 4.60784 16.0793L4.82202 16.2481C4.70519 16.4233 4.57539 16.4947 4.41312 16.4947C4.19894 16.4947 4.00422 16.3649 3.85494 16.3649C3.77057 16.3649 3.71215 16.4039 3.64076 16.5012L3.44604 16.3325C3.56287 16.1572 3.67321 16.0858 3.83547 16.0858Z" fill="#DA5107"/>
<path d="M1.88833 15.1122C2.109 15.1122 2.28424 15.242 2.453 15.242C2.53088 15.242 2.5893 15.2031 2.6607 15.1057L2.87488 15.2745C2.75805 15.4497 2.62824 15.5211 2.46598 15.5211C2.25179 15.5211 2.05708 15.3913 1.9078 15.3913C1.82342 15.3913 1.76501 15.4302 1.69361 15.5276L1.4989 15.3588C1.61573 15.1836 1.72607 15.1122 1.88833 15.1122Z" fill="#DA5107"/>
<path d="M3.83547 14.1388C4.05615 14.1388 4.23139 14.2686 4.40014 14.2686C4.47803 14.2686 4.53644 14.2297 4.60784 14.1323L4.82202 14.3011C4.70519 14.4763 4.57539 14.5477 4.41312 14.5477C4.19894 14.5477 4.00422 14.4179 3.85494 14.4179C3.77057 14.4179 3.71215 14.4568 3.64076 14.5542L3.44604 14.3855C3.56287 14.2102 3.67321 14.1388 3.83547 14.1388Z" fill="#DA5107"/>
<path d="M1.88839 13.1652C2.10907 13.1652 2.28431 13.295 2.45306 13.295C2.53094 13.295 2.58936 13.256 2.66076 13.1587L2.87494 13.3274C2.75811 13.5027 2.6283 13.5741 2.46604 13.5741C2.25186 13.5741 2.05714 13.4443 1.90786 13.4443C1.82348 13.4443 1.76507 13.4832 1.69367 13.5806L1.49896 13.4118C1.61579 13.2366 1.72613 13.1652 1.88839 13.1652Z" fill="#DA5107"/>
<path d="M-0.058815 14.1388C0.161861 14.1388 0.337101 14.2686 0.505853 14.2686C0.583738 14.2686 0.642157 14.2297 0.713553 14.1323L0.927734 14.3011C0.810906 14.4763 0.681098 14.5477 0.518836 14.5477C0.304651 14.5477 0.109936 14.4179 -0.0393443 14.4179C-0.12372 14.4179 -0.182136 14.4568 -0.253531 14.5542L-0.448242 14.3855C-0.331414 14.2102 -0.221077 14.1388 -0.058815 14.1388Z" fill="#DA5107"/>
<path d="M1.88839 11.2179C2.10907 11.2179 2.28431 11.3477 2.45306 11.3477C2.53094 11.3477 2.58936 11.3088 2.66076 11.2114L2.87494 11.3802C2.75811 11.5554 2.6283 11.6268 2.46604 11.6268C2.25186 11.6268 2.05714 11.497 1.90786 11.497C1.82348 11.497 1.76507 11.536 1.69367 11.6333L1.49896 11.4646C1.61579 11.2893 1.72613 11.2179 1.88839 11.2179Z" fill="#DA5107"/>
<path d="M-0.058815 12.1915C0.161861 12.1915 0.337101 12.3214 0.505853 12.3214C0.583738 12.3214 0.642157 12.2824 0.713553 12.1851L0.927734 12.3538C0.810906 12.5291 0.681098 12.6004 0.518836 12.6004C0.304651 12.6004 0.109936 12.4706 -0.0393443 12.4706C-0.12372 12.4706 -0.182136 12.5096 -0.253531 12.6069L-0.448242 12.4382C-0.331414 12.2629 -0.221077 12.1915 -0.058815 12.1915Z" fill="#DA5107"/>
<path d="M-0.058815 10.2445C0.161861 10.2445 0.337101 10.3743 0.505853 10.3743C0.583738 10.3743 0.642157 10.3354 0.713553 10.238L0.927734 10.4068C0.810906 10.582 0.681098 10.6534 0.518836 10.6534C0.304651 10.6534 0.109936 10.5236 -0.0393443 10.5236C-0.12372 10.5236 -0.182136 10.5626 -0.253531 10.6599L-0.448242 10.4912C-0.331414 10.3159 -0.221077 10.2445 -0.058815 10.2445Z" fill="#DA5107"/>
<path d="M1.88839 17.0595C2.10907 17.0595 2.28431 17.1893 2.45306 17.1893C2.53094 17.1893 2.58936 17.1503 2.66076 17.053L2.87494 17.2217C2.75811 17.397 2.6283 17.4684 2.46604 17.4684C2.25186 17.4684 2.05714 17.3386 1.90786 17.3386C1.82348 17.3386 1.76507 17.3775 1.69367 17.4749L1.49896 17.3061C1.61579 17.1309 1.72613 17.0595 1.88839 17.0595Z" fill="#DA5107"/>
<path d="M-0.058815 18.0331C0.161861 18.0331 0.337101 18.1629 0.505853 18.1629C0.583738 18.1629 0.642157 18.124 0.713553 18.0266L0.927734 18.1954C0.810906 18.3706 0.681098 18.442 0.518836 18.442C0.304651 18.442 0.109936 18.3122 -0.0393443 18.3122C-0.12372 18.3122 -0.182136 18.3511 -0.253531 18.4485L-0.448242 18.2797C-0.331414 18.1045 -0.221077 18.0331 -0.058815 18.0331Z" fill="#DA5107"/>
<path d="M1.88839 15.1122C2.10907 15.1122 2.28431 15.242 2.45306 15.242C2.53094 15.242 2.58936 15.2031 2.66076 15.1057L2.87494 15.2745C2.75811 15.4497 2.6283 15.5211 2.46604 15.5211C2.25186 15.5211 2.05714 15.3913 1.90786 15.3913C1.82348 15.3913 1.76507 15.4302 1.69367 15.5276L1.49896 15.3588C1.61579 15.1836 1.72613 15.1122 1.88839 15.1122Z" fill="#DA5107"/>
<path d="M-0.058815 16.0858C0.161861 16.0858 0.337101 16.2156 0.505853 16.2156C0.583738 16.2156 0.642157 16.1767 0.713553 16.0793L0.927734 16.2481C0.810906 16.4233 0.681098 16.4947 0.518836 16.4947C0.304651 16.4947 0.109936 16.3649 -0.0393443 16.3649C-0.12372 16.3649 -0.182136 16.4039 -0.253531 16.5012L-0.448242 16.3325C-0.331414 16.1572 -0.221077 16.0858 -0.058815 16.0858Z" fill="#DA5107"/>
<path d="M-0.058815 14.1388C0.161861 14.1388 0.337101 14.2686 0.505853 14.2686C0.583738 14.2686 0.642157 14.2297 0.713553 14.1323L0.927734 14.3011C0.810906 14.4763 0.681098 14.5477 0.518836 14.5477C0.304651 14.5477 0.109936 14.4179 -0.0393443 14.4179C-0.12372 14.4179 -0.182136 14.4568 -0.253531 14.5542L-0.448242 14.3855C-0.331414 14.2102 -0.221077 14.1388 -0.058815 14.1388Z" fill="#DA5107"/>
</g>
<mask id="mask1_1846_18109" style="mask-type:alpha" maskUnits="userSpaceOnUse" x="5" y="31" width="16" height="11">
<path d="M19.8473 35.7132L12.3508 40.3863L6.10693 37.2385L13.6099 32.5588L19.8473 35.7132Z" fill="#FF7E3B" stroke="#E85300" stroke-width="1.3617" stroke-miterlimit="10" stroke-linejoin="round"/>
</mask>
<g mask="url(#mask1_1846_18109)">
<path d="M19.4123 33.6105C19.633 33.6105 19.8082 33.7403 19.977 33.7403C20.0549 33.7403 20.1133 33.7014 20.1847 33.604L20.3989 33.7728C20.282 33.948 20.1522 34.0194 19.99 34.0194C19.7758 34.0194 19.5811 33.8896 19.4318 33.8896C19.3474 33.8896 19.289 33.9285 19.2176 34.0259L19.0229 33.8571C19.1397 33.6819 19.2501 33.6105 19.4123 33.6105Z" fill="#DA5107"/>
<path d="M17.4651 32.6369C17.6858 32.6369 17.861 32.7667 18.0298 32.7667C18.1077 32.7667 18.1661 32.7277 18.2375 32.6304L18.4517 32.7991C18.3348 32.9744 18.205 33.0458 18.0428 33.0458C17.8286 33.0458 17.6339 32.916 17.4846 32.916C17.4002 32.916 17.3418 32.9549 17.2704 33.0523L17.0757 32.8835C17.1925 32.7083 17.3028 32.6369 17.4651 32.6369Z" fill="#DA5107"/>
<path d="M19.4123 31.6632C19.633 31.6632 19.8082 31.793 19.977 31.793C20.0549 31.793 20.1133 31.7541 20.1847 31.6567L20.3989 31.8255C20.282 32.0007 20.1522 32.0721 19.99 32.0721C19.7758 32.0721 19.5811 31.9423 19.4318 31.9423C19.3474 31.9423 19.289 31.9813 19.2176 32.0786L19.0229 31.9099C19.1397 31.7346 19.2501 31.6632 19.4123 31.6632Z" fill="#DA5107"/>
<path d="M19.4123 37.5048C19.633 37.5048 19.8082 37.6346 19.977 37.6346C20.0549 37.6346 20.1133 37.5956 20.1847 37.4983L20.3989 37.667C20.282 37.8423 20.1522 37.9137 19.99 37.9137C19.7758 37.9137 19.5811 37.7839 19.4318 37.7839C19.3474 37.7839 19.289 37.8228 19.2176 37.9202L19.0229 37.7514C19.1397 37.5762 19.2501 37.5048 19.4123 37.5048Z" fill="#DA5107"/>
<path d="M17.4651 36.5311C17.6858 36.5311 17.861 36.661 18.0298 36.661C18.1077 36.661 18.1661 36.622 18.2375 36.5247L18.4517 36.6934C18.3348 36.8687 18.205 36.94 18.0428 36.94C17.8286 36.94 17.6339 36.8102 17.4846 36.8102C17.4002 36.8102 17.3418 36.8492 17.2704 36.9465L17.0757 36.7778C17.1925 36.6025 17.3028 36.5311 17.4651 36.5311Z" fill="#DA5107"/>
<path d="M19.4123 35.5575C19.633 35.5575 19.8082 35.6873 19.977 35.6873C20.0549 35.6873 20.1133 35.6484 20.1847 35.551L20.3989 35.7198C20.282 35.895 20.1522 35.9664 19.99 35.9664C19.7758 35.9664 19.5811 35.8366 19.4318 35.8366C19.3474 35.8366 19.289 35.8755 19.2176 35.9729L19.0229 35.8042C19.1397 35.6289 19.2501 35.5575 19.4123 35.5575Z" fill="#DA5107"/>
<path d="M17.4651 34.5839C17.6858 34.5839 17.861 34.7137 18.0298 34.7137C18.1077 34.7137 18.1661 34.6747 18.2375 34.5774L18.4517 34.7461C18.3348 34.9214 18.205 34.9928 18.0428 34.9928C17.8286 34.9928 17.6339 34.863 17.4846 34.863C17.4002 34.863 17.3418 34.9019 17.2704 34.9993L17.0757 34.8305C17.1925 34.6553 17.3028 34.5839 17.4651 34.5839Z" fill="#DA5107"/>
<path d="M19.4123 33.6105C19.633 33.6105 19.8082 33.7403 19.977 33.7403C20.0549 33.7403 20.1133 33.7014 20.1847 33.604L20.3989 33.7728C20.282 33.948 20.1522 34.0194 19.99 34.0194C19.7758 34.0194 19.5811 33.8896 19.4318 33.8896C19.3474 33.8896 19.289 33.9285 19.2176 34.0259L19.0229 33.8571C19.1397 33.6819 19.2501 33.6105 19.4123 33.6105Z" fill="#DA5107"/>
<path d="M17.4651 40.4254C17.6858 40.4254 17.861 40.5552 18.0298 40.5552C18.1077 40.5552 18.1661 40.5163 18.2375 40.4189L18.4517 40.5877C18.3348 40.7629 18.205 40.8343 18.0428 40.8343C17.8286 40.8343 17.6339 40.7045 17.4846 40.7045C17.4002 40.7045 17.3418 40.7435 17.2704 40.8408L17.0757 40.6721C17.1925 40.4968 17.3028 40.4254 17.4651 40.4254Z" fill="#DA5107"/>
<path d="M19.4123 39.4518C19.633 39.4518 19.8082 39.5816 19.977 39.5816C20.0549 39.5816 20.1133 39.5427 20.1847 39.4453L20.3989 39.6141C20.282 39.7893 20.1522 39.8607 19.99 39.8607C19.7758 39.8607 19.5811 39.7309 19.4318 39.7309C19.3474 39.7309 19.289 39.7698 19.2176 39.8672L19.0229 39.6984C19.1397 39.5232 19.2501 39.4518 19.4123 39.4518Z" fill="#DA5107"/>
<path d="M17.4651 38.4782C17.6858 38.4782 17.861 38.608 18.0298 38.608C18.1077 38.608 18.1661 38.569 18.2375 38.4717L18.4517 38.6404C18.3348 38.8157 18.205 38.8871 18.0428 38.8871C17.8286 38.8871 17.6339 38.7573 17.4846 38.7573C17.4002 38.7573 17.3418 38.7962 17.2704 38.8936L17.0757 38.7248C17.1925 38.5496 17.3028 38.4782 17.4651 38.4782Z" fill="#DA5107"/>
<path d="M19.4123 37.5048C19.633 37.5048 19.8082 37.6346 19.977 37.6346C20.0549 37.6346 20.1133 37.5956 20.1847 37.4983L20.3989 37.667C20.282 37.8423 20.1522 37.9137 19.99 37.9137C19.7758 37.9137 19.5811 37.7839 19.4318 37.7839C19.3474 37.7839 19.289 37.8228 19.2176 37.9202L19.0229 37.7514C19.1397 37.5762 19.2501 37.5048 19.4123 37.5048Z" fill="#DA5107"/>
<path d="M17.4653 32.6369C17.686 32.6369 17.8612 32.7667 18.03 32.7667C18.1078 32.7667 18.1663 32.7277 18.2377 32.6304L18.4518 32.7991C18.335 32.9744 18.2052 33.0458 18.0429 33.0458C17.8288 33.0458 17.634 32.916 17.4848 32.916C17.4004 32.916 17.342 32.9549 17.2706 33.0523L17.0759 32.8835C17.1927 32.7083 17.303 32.6369 17.4653 32.6369Z" fill="#DA5107"/>
<path d="M15.5182 33.6105C15.7388 33.6105 15.9141 33.7403 16.0828 33.7403C16.1607 33.7403 16.2191 33.7014 16.2905 33.604L16.5047 33.7728C16.3879 33.948 16.2581 34.0194 16.0958 34.0194C15.8816 34.0194 15.6869 33.8896 15.5376 33.8896C15.4532 33.8896 15.3948 33.9285 15.3234 34.0259L15.1287 33.8571C15.2456 33.6819 15.3559 33.6105 15.5182 33.6105Z" fill="#DA5107"/>
<path d="M13.571 32.6369C13.7917 32.6369 13.9669 32.7667 14.1357 32.7667C14.2136 32.7667 14.272 32.7277 14.3434 32.6304L14.5576 32.7991C14.4407 32.9744 14.3109 33.0458 14.1487 33.0458C13.9345 33.0458 13.7398 32.916 13.5905 32.916C13.5061 32.916 13.4477 32.9549 13.3763 33.0523L13.1816 32.8835C13.2984 32.7083 13.4087 32.6369 13.571 32.6369Z" fill="#DA5107"/>
<path d="M15.5182 31.6632C15.7388 31.6632 15.9141 31.793 16.0828 31.793C16.1607 31.793 16.2191 31.7541 16.2905 31.6567L16.5047 31.8255C16.3879 32.0007 16.2581 32.0721 16.0958 32.0721C15.8816 32.0721 15.6869 31.9423 15.5376 31.9423C15.4532 31.9423 15.3948 31.9813 15.3234 32.0786L15.1287 31.9099C15.2456 31.7346 15.3559 31.6632 15.5182 31.6632Z" fill="#DA5107"/>
<path d="M17.4653 36.5311C17.686 36.5311 17.8612 36.661 18.03 36.661C18.1078 36.661 18.1663 36.622 18.2377 36.5247L18.4518 36.6934C18.335 36.8687 18.2052 36.94 18.0429 36.94C17.8288 36.94 17.634 36.8102 17.4848 36.8102C17.4004 36.8102 17.342 36.8492 17.2706 36.9465L17.0759 36.7778C17.1927 36.6025 17.303 36.5311 17.4653 36.5311Z" fill="#DA5107"/>
<path d="M15.5182 37.5048C15.7388 37.5048 15.9141 37.6346 16.0828 37.6346C16.1607 37.6346 16.2191 37.5956 16.2905 37.4983L16.5047 37.667C16.3879 37.8423 16.2581 37.9137 16.0958 37.9137C15.8816 37.9137 15.6869 37.7839 15.5376 37.7839C15.4532 37.7839 15.3948 37.8228 15.3234 37.9202L15.1287 37.7514C15.2456 37.5762 15.3559 37.5048 15.5182 37.5048Z" fill="#DA5107"/>
<path d="M13.571 36.5311C13.7917 36.5311 13.9669 36.661 14.1357 36.661C14.2136 36.661 14.272 36.622 14.3434 36.5247L14.5576 36.6934C14.4407 36.8687 14.3109 36.94 14.1487 36.94C13.9345 36.94 13.7398 36.8102 13.5905 36.8102C13.5061 36.8102 13.4477 36.8492 13.3763 36.9465L13.1816 36.7778C13.2984 36.6025 13.4087 36.5311 13.571 36.5311Z" fill="#DA5107"/>
<path d="M17.4653 34.5839C17.686 34.5839 17.8612 34.7137 18.03 34.7137C18.1078 34.7137 18.1663 34.6747 18.2377 34.5774L18.4518 34.7461C18.335 34.9214 18.2052 34.9928 18.0429 34.9928C17.8288 34.9928 17.634 34.863 17.4848 34.863C17.4004 34.863 17.342 34.9019 17.2706 34.9993L17.0759 34.8305C17.1927 34.6553 17.303 34.5839 17.4653 34.5839Z" fill="#DA5107"/>
<path d="M15.5182 35.5575C15.7388 35.5575 15.9141 35.6873 16.0828 35.6873C16.1607 35.6873 16.2191 35.6484 16.2905 35.551L16.5047 35.7198C16.3879 35.895 16.2581 35.9664 16.0958 35.9664C15.8816 35.9664 15.6869 35.8366 15.5376 35.8366C15.4532 35.8366 15.3948 35.8755 15.3234 35.9729L15.1287 35.8042C15.2456 35.6289 15.3559 35.5575 15.5182 35.5575Z" fill="#DA5107"/>
<path d="M13.571 34.5839C13.7917 34.5839 13.9669 34.7137 14.1357 34.7137C14.2136 34.7137 14.272 34.6747 14.3434 34.5774L14.5576 34.7461C14.4407 34.9214 14.3109 34.9928 14.1487 34.9928C13.9345 34.9928 13.7398 34.863 13.5905 34.863C13.5061 34.863 13.4477 34.9019 13.3763 34.9993L13.1816 34.8305C13.2984 34.6553 13.4087 34.5839 13.571 34.5839Z" fill="#DA5107"/>
<path d="M15.5182 33.6105C15.7388 33.6105 15.9141 33.7403 16.0828 33.7403C16.1607 33.7403 16.2191 33.7014 16.2905 33.604L16.5047 33.7728C16.3879 33.948 16.2581 34.0194 16.0958 34.0194C15.8816 34.0194 15.6869 33.8896 15.5376 33.8896C15.4532 33.8896 15.3948 33.9285 15.3234 34.0259L15.1287 33.8571C15.2456 33.6819 15.3559 33.6105 15.5182 33.6105Z" fill="#DA5107"/>
<path d="M17.4653 40.4254C17.686 40.4254 17.8612 40.5552 18.03 40.5552C18.1078 40.5552 18.1663 40.5163 18.2377 40.4189L18.4518 40.5877C18.335 40.7629 18.2052 40.8343 18.0429 40.8343C17.8288 40.8343 17.634 40.7045 17.4848 40.7045C17.4004 40.7045 17.342 40.7435 17.2706 40.8408L17.0759 40.6721C17.1927 40.4968 17.303 40.4254 17.4653 40.4254Z" fill="#DA5107"/>
<path d="M13.571 40.4254C13.7917 40.4254 13.9669 40.5552 14.1357 40.5552C14.2136 40.5552 14.272 40.5163 14.3434 40.4189L14.5576 40.5877C14.4407 40.7629 14.3109 40.8343 14.1487 40.8343C13.9345 40.8343 13.7398 40.7045 13.5905 40.7045C13.5061 40.7045 13.4477 40.7435 13.3763 40.8408L13.1816 40.6721C13.2984 40.4968 13.4087 40.4254 13.571 40.4254Z" fill="#DA5107"/>
<path d="M17.4653 38.4782C17.686 38.4782 17.8612 38.608 18.03 38.608C18.1078 38.608 18.1663 38.569 18.2377 38.4717L18.4518 38.6404C18.335 38.8157 18.2052 38.8871 18.0429 38.8871C17.8288 38.8871 17.634 38.7573 17.4848 38.7573C17.4004 38.7573 17.342 38.7962 17.2706 38.8936L17.0759 38.7248C17.1927 38.5496 17.303 38.4782 17.4653 38.4782Z" fill="#DA5107"/>
<path d="M15.5182 39.4518C15.7388 39.4518 15.9141 39.5816 16.0828 39.5816C16.1607 39.5816 16.2191 39.5427 16.2905 39.4453L16.5047 39.6141C16.3879 39.7893 16.2581 39.8607 16.0958 39.8607C15.8816 39.8607 15.6869 39.7309 15.5376 39.7309C15.4532 39.7309 15.3948 39.7698 15.3234 39.8672L15.1287 39.6984C15.2456 39.5232 15.3559 39.4518 15.5182 39.4518Z" fill="#DA5107"/>
<path d="M13.571 38.4782C13.7917 38.4782 13.9669 38.608 14.1357 38.608C14.2136 38.608 14.272 38.569 14.3434 38.4717L14.5576 38.6404C14.4407 38.8157 14.3109 38.8871 14.1487 38.8871C13.9345 38.8871 13.7398 38.7573 13.5905 38.7573C13.5061 38.7573 13.4477 38.7962 13.3763 38.8936L13.1816 38.7248C13.2984 38.5496 13.4087 38.4782 13.571 38.4782Z" fill="#DA5107"/>
<path d="M15.5182 37.5048C15.7388 37.5048 15.9141 37.6346 16.0828 37.6346C16.1607 37.6346 16.2191 37.5956 16.2905 37.4983L16.5047 37.667C16.3879 37.8423 16.2581 37.9137 16.0958 37.9137C15.8816 37.9137 15.6869 37.7839 15.5376 37.7839C15.4532 37.7839 15.3948 37.8228 15.3234 37.9202L15.1287 37.7514C15.2456 37.5762 15.3559 37.5048 15.5182 37.5048Z" fill="#DA5107"/>
<path d="M13.571 32.6369C13.7917 32.6369 13.9669 32.7667 14.1357 32.7667C14.2136 32.7667 14.272 32.7277 14.3434 32.6304L14.5576 32.7991C14.4407 32.9744 14.3109 33.0458 14.1487 33.0458C13.9345 33.0458 13.7398 32.916 13.5905 32.916C13.5061 32.916 13.4477 32.9549 13.3763 33.0523L13.1816 32.8835C13.2984 32.7083 13.4087 32.6369 13.571 32.6369Z" fill="#DA5107"/>
<path d="M11.6239 33.6105C11.8445 33.6105 12.0198 33.7403 12.1885 33.7403C12.2664 33.7403 12.3248 33.7014 12.3962 33.604L12.6104 33.7728C12.4936 33.948 12.3638 34.0194 12.2015 34.0194C11.9873 34.0194 11.7926 33.8896 11.6433 33.8896C11.559 33.8896 11.5005 33.9285 11.4291 34.0259L11.2344 33.8571C11.3513 33.6819 11.4616 33.6105 11.6239 33.6105Z" fill="#DA5107"/>
<path d="M9.67672 32.6369C9.8974 32.6369 10.0726 32.7667 10.2414 32.7667C10.3193 32.7667 10.3777 32.7277 10.4491 32.6304L10.6633 32.7991C10.5464 32.9744 10.4166 33.0458 10.2544 33.0458C10.0402 33.0458 9.84547 32.916 9.69619 32.916C9.61181 32.916 9.5534 32.9549 9.482 33.0523L9.28729 32.8835C9.40412 32.7083 9.51446 32.6369 9.67672 32.6369Z" fill="#DA5107"/>
<path d="M11.6239 31.6632C11.8445 31.6632 12.0198 31.793 12.1885 31.793C12.2664 31.793 12.3248 31.7541 12.3962 31.6567L12.6104 31.8255C12.4936 32.0007 12.3638 32.0721 12.2015 32.0721C11.9873 32.0721 11.7926 31.9423 11.6433 31.9423C11.559 31.9423 11.5005 31.9813 11.4291 32.0786L11.2344 31.9099C11.3513 31.7346 11.4616 31.6632 11.6239 31.6632Z" fill="#DA5107"/>
<path d="M13.571 36.5311C13.7917 36.5311 13.9669 36.661 14.1357 36.661C14.2136 36.661 14.272 36.622 14.3434 36.5247L14.5576 36.6934C14.4407 36.8687 14.3109 36.94 14.1487 36.94C13.9345 36.94 13.7398 36.8102 13.5905 36.8102C13.5061 36.8102 13.4477 36.8492 13.3763 36.9465L13.1816 36.7778C13.2984 36.6025 13.4087 36.5311 13.571 36.5311Z" fill="#DA5107"/>
<path d="M11.6239 37.5048C11.8445 37.5048 12.0198 37.6346 12.1885 37.6346C12.2664 37.6346 12.3248 37.5956 12.3962 37.4983L12.6104 37.667C12.4936 37.8423 12.3638 37.9137 12.2015 37.9137C11.9873 37.9137 11.7926 37.7839 11.6433 37.7839C11.559 37.7839 11.5005 37.8228 11.4291 37.9202L11.2344 37.7514C11.3513 37.5762 11.4616 37.5048 11.6239 37.5048Z" fill="#DA5107"/>
<path d="M9.67672 36.5311C9.8974 36.5311 10.0726 36.661 10.2414 36.661C10.3193 36.661 10.3777 36.622 10.4491 36.5247L10.6633 36.6934C10.5464 36.8687 10.4166 36.94 10.2544 36.94C10.0402 36.94 9.84547 36.8102 9.69619 36.8102C9.61181 36.8102 9.5534 36.8492 9.482 36.9465L9.28729 36.7778C9.40412 36.6025 9.51446 36.5311 9.67672 36.5311Z" fill="#DA5107"/>
<path d="M13.571 34.5839C13.7917 34.5839 13.9669 34.7137 14.1357 34.7137C14.2136 34.7137 14.272 34.6747 14.3434 34.5774L14.5576 34.7461C14.4407 34.9214 14.3109 34.9928 14.1487 34.9928C13.9345 34.9928 13.7398 34.863 13.5905 34.863C13.5061 34.863 13.4477 34.9019 13.3763 34.9993L13.1816 34.8305C13.2984 34.6553 13.4087 34.5839 13.571 34.5839Z" fill="#DA5107"/>
<path d="M11.6239 35.5575C11.8445 35.5575 12.0198 35.6873 12.1885 35.6873C12.2664 35.6873 12.3248 35.6484 12.3962 35.551L12.6104 35.7198C12.4936 35.895 12.3638 35.9664 12.2015 35.9664C11.9873 35.9664 11.7926 35.8366 11.6433 35.8366C11.559 35.8366 11.5005 35.8755 11.4291 35.9729L11.2344 35.8042C11.3513 35.6289 11.4616 35.5575 11.6239 35.5575Z" fill="#DA5107"/>
<path d="M9.67672 34.5839C9.8974 34.5839 10.0726 34.7137 10.2414 34.7137C10.3193 34.7137 10.3777 34.6747 10.4491 34.5774L10.6633 34.7461C10.5464 34.9214 10.4166 34.9928 10.2544 34.9928C10.0402 34.9928 9.84547 34.863 9.69619 34.863C9.61181 34.863 9.5534 34.9019 9.482 34.9993L9.28729 34.8305C9.40412 34.6553 9.51446 34.5839 9.67672 34.5839Z" fill="#DA5107"/>
<path d="M11.6239 33.6105C11.8445 33.6105 12.0198 33.7403 12.1885 33.7403C12.2664 33.7403 12.3248 33.7014 12.3962 33.604L12.6104 33.7728C12.4936 33.948 12.3638 34.0194 12.2015 34.0194C11.9873 34.0194 11.7926 33.8896 11.6433 33.8896C11.559 33.8896 11.5005 33.9285 11.4291 34.0259L11.2344 33.8571C11.3513 33.6819 11.4616 33.6105 11.6239 33.6105Z" fill="#DA5107"/>
<path d="M13.571 40.4254C13.7917 40.4254 13.9669 40.5552 14.1357 40.5552C14.2136 40.5552 14.272 40.5163 14.3434 40.4189L14.5576 40.5877C14.4407 40.7629 14.3109 40.8343 14.1487 40.8343C13.9345 40.8343 13.7398 40.7045 13.5905 40.7045C13.5061 40.7045 13.4477 40.7435 13.3763 40.8408L13.1816 40.6721C13.2984 40.4968 13.4087 40.4254 13.571 40.4254Z" fill="#DA5107"/>
<path d="M9.67672 40.4254C9.8974 40.4254 10.0726 40.5552 10.2414 40.5552C10.3193 40.5552 10.3777 40.5163 10.4491 40.4189L10.6633 40.5877C10.5464 40.7629 10.4166 40.8343 10.2544 40.8343C10.0402 40.8343 9.84547 40.7045 9.69619 40.7045C9.61181 40.7045 9.5534 40.7435 9.482 40.8408L9.28729 40.6721C9.40412 40.4968 9.51446 40.4254 9.67672 40.4254Z" fill="#DA5107"/>
<path d="M13.571 38.4782C13.7917 38.4782 13.9669 38.608 14.1357 38.608C14.2136 38.608 14.272 38.569 14.3434 38.4717L14.5576 38.6404C14.4407 38.8157 14.3109 38.8871 14.1487 38.8871C13.9345 38.8871 13.7398 38.7573 13.5905 38.7573C13.5061 38.7573 13.4477 38.7962 13.3763 38.8936L13.1816 38.7248C13.2984 38.5496 13.4087 38.4782 13.571 38.4782Z" fill="#DA5107"/>
<path d="M11.6239 39.4518C11.8445 39.4518 12.0198 39.5816 12.1885 39.5816C12.2664 39.5816 12.3248 39.5427 12.3962 39.4453L12.6104 39.6141C12.4936 39.7893 12.3638 39.8607 12.2015 39.8607C11.9873 39.8607 11.7926 39.7309 11.6433 39.7309C11.559 39.7309 11.5005 39.7698 11.4291 39.8672L11.2344 39.6984C11.3513 39.5232 11.4616 39.4518 11.6239 39.4518Z" fill="#DA5107"/>
<path d="M9.67672 38.4782C9.8974 38.4782 10.0726 38.608 10.2414 38.608C10.3193 38.608 10.3777 38.569 10.4491 38.4717L10.6633 38.6404C10.5464 38.8157 10.4166 38.8871 10.2544 38.8871C10.0402 38.8871 9.84547 38.7573 9.69619 38.7573C9.61181 38.7573 9.5534 38.7962 9.482 38.8936L9.28729 38.7248C9.40412 38.5496 9.51446 38.4782 9.67672 38.4782Z" fill="#DA5107"/>
<path d="M11.6239 37.5048C11.8445 37.5048 12.0198 37.6346 12.1885 37.6346C12.2664 37.6346 12.3248 37.5956 12.3962 37.4983L12.6104 37.667C12.4936 37.8423 12.3638 37.9137 12.2015 37.9137C11.9873 37.9137 11.7926 37.7839 11.6433 37.7839C11.559 37.7839 11.5005 37.8228 11.4291 37.9202L11.2344 37.7514C11.3513 37.5762 11.4616 37.5048 11.6239 37.5048Z" fill="#DA5107"/>
<path d="M9.67672 32.6369C9.8974 32.6369 10.0726 32.7667 10.2414 32.7667C10.3193 32.7667 10.3777 32.7277 10.4491 32.6304L10.6633 32.7991C10.5464 32.9744 10.4166 33.0458 10.2544 33.0458C10.0402 33.0458 9.84547 32.916 9.69619 32.916C9.61181 32.916 9.5534 32.9549 9.482 33.0523L9.28729 32.8835C9.40412 32.7083 9.51446 32.6369 9.67672 32.6369Z" fill="#DA5107"/>
<path d="M7.72964 33.6105C7.95031 33.6105 8.12555 33.7403 8.2943 33.7403C8.37219 33.7403 8.43061 33.7014 8.502 33.604L8.71619 33.7728C8.59936 33.948 8.46955 34.0194 8.30729 34.0194C8.0931 34.0194 7.89839 33.8896 7.74911 33.8896C7.66473 33.8896 7.60632 33.9285 7.53492 34.0259L7.34021 33.8571C7.45704 33.6819 7.56738 33.6105 7.72964 33.6105Z" fill="#DA5107"/>
<path d="M5.78243 32.6369C6.00311 32.6369 6.17835 32.7667 6.3471 32.7667C6.42499 32.7667 6.4834 32.7277 6.5548 32.6304L6.76898 32.7991C6.65215 32.9744 6.52235 33.0458 6.36008 33.0458C6.1459 33.0458 5.95118 32.916 5.8019 32.916C5.71753 32.916 5.65911 32.9549 5.58772 33.0523L5.39301 32.8835C5.50983 32.7083 5.62017 32.6369 5.78243 32.6369Z" fill="#DA5107"/>
<path d="M7.72964 31.6632C7.95031 31.6632 8.12555 31.793 8.2943 31.793C8.37219 31.793 8.43061 31.7541 8.502 31.6567L8.71619 31.8255C8.59936 32.0007 8.46955 32.0721 8.30729 32.0721C8.0931 32.0721 7.89839 31.9423 7.74911 31.9423C7.66473 31.9423 7.60632 31.9813 7.53492 32.0786L7.34021 31.9099C7.45704 31.7346 7.56738 31.6632 7.72964 31.6632Z" fill="#DA5107"/>
<path d="M9.67666 36.5311C9.89733 36.5311 10.0726 36.661 10.2413 36.661C10.3192 36.661 10.3776 36.622 10.449 36.5247L10.6632 36.6934C10.5464 36.8687 10.4166 36.94 10.2543 36.94C10.0401 36.94 9.84541 36.8102 9.69613 36.8102C9.61175 36.8102 9.55334 36.8492 9.48194 36.9465L9.28723 36.7778C9.40406 36.6025 9.5144 36.5311 9.67666 36.5311Z" fill="#DA5107"/>
<path d="M7.72958 37.5048C7.95025 37.5048 8.12549 37.6346 8.29424 37.6346C8.37213 37.6346 8.43055 37.5956 8.50194 37.4983L8.71613 37.667C8.5993 37.8423 8.46949 37.9137 8.30723 37.9137C8.09304 37.9137 7.89833 37.7839 7.74905 37.7839C7.66467 37.7839 7.60626 37.8228 7.53486 37.9202L7.34015 37.7514C7.45698 37.5762 7.56731 37.5048 7.72958 37.5048Z" fill="#DA5107"/>
<path d="M5.78243 36.5311C6.00311 36.5311 6.17835 36.661 6.3471 36.661C6.42499 36.661 6.4834 36.622 6.5548 36.5247L6.76898 36.6934C6.65215 36.8687 6.52235 36.94 6.36008 36.94C6.1459 36.94 5.95118 36.8102 5.8019 36.8102C5.71753 36.8102 5.65911 36.8492 5.58772 36.9465L5.39301 36.7778C5.50983 36.6025 5.62017 36.5311 5.78243 36.5311Z" fill="#DA5107"/>
<path d="M9.67666 34.5839C9.89733 34.5839 10.0726 34.7137 10.2413 34.7137C10.3192 34.7137 10.3776 34.6747 10.449 34.5774L10.6632 34.7461C10.5464 34.9214 10.4166 34.9928 10.2543 34.9928C10.0401 34.9928 9.84541 34.863 9.69613 34.863C9.61175 34.863 9.55334 34.9019 9.48194 34.9993L9.28723 34.8305C9.40406 34.6553 9.5144 34.5839 9.67666 34.5839Z" fill="#DA5107"/>
<path d="M7.72958 35.5575C7.95025 35.5575 8.12549 35.6873 8.29424 35.6873C8.37213 35.6873 8.43055 35.6484 8.50194 35.551L8.71613 35.7198C8.5993 35.895 8.46949 35.9664 8.30723 35.9664C8.09304 35.9664 7.89833 35.8366 7.74905 35.8366C7.66467 35.8366 7.60626 35.8755 7.53486 35.9729L7.34015 35.8042C7.45698 35.6289 7.56731 35.5575 7.72958 35.5575Z" fill="#DA5107"/>
<path d="M5.78243 34.5839C6.00311 34.5839 6.17835 34.7137 6.3471 34.7137C6.42499 34.7137 6.4834 34.6747 6.5548 34.5774L6.76898 34.7461C6.65215 34.9214 6.52235 34.9928 6.36008 34.9928C6.1459 34.9928 5.95118 34.863 5.8019 34.863C5.71753 34.863 5.65911 34.9019 5.58772 34.9993L5.39301 34.8305C5.50983 34.6553 5.62017 34.5839 5.78243 34.5839Z" fill="#DA5107"/>
<path d="M7.72958 33.6105C7.95025 33.6105 8.12549 33.7403 8.29424 33.7403C8.37213 33.7403 8.43055 33.7014 8.50194 33.604L8.71613 33.7728C8.5993 33.948 8.46949 34.0194 8.30723 34.0194C8.09304 34.0194 7.89833 33.8896 7.74905 33.8896C7.66467 33.8896 7.60626 33.9285 7.53486 34.0259L7.34015 33.8571C7.45698 33.6819 7.56731 33.6105 7.72958 33.6105Z" fill="#DA5107"/>
<path d="M9.67666 40.4254C9.89733 40.4254 10.0726 40.5552 10.2413 40.5552C10.3192 40.5552 10.3776 40.5163 10.449 40.4189L10.6632 40.5877C10.5464 40.7629 10.4166 40.8343 10.2543 40.8343C10.0401 40.8343 9.84541 40.7045 9.69613 40.7045C9.61175 40.7045 9.55334 40.7435 9.48194 40.8408L9.28723 40.6721C9.40406 40.4968 9.5144 40.4254 9.67666 40.4254Z" fill="#DA5107"/>
<path d="M5.78243 40.4254C6.00311 40.4254 6.17835 40.5552 6.3471 40.5552C6.42499 40.5552 6.4834 40.5163 6.5548 40.4189L6.76898 40.5877C6.65215 40.7629 6.52235 40.8343 6.36008 40.8343C6.1459 40.8343 5.95118 40.7045 5.8019 40.7045C5.71753 40.7045 5.65911 40.7435 5.58772 40.8408L5.39301 40.6721C5.50983 40.4968 5.62017 40.4254 5.78243 40.4254Z" fill="#DA5107"/>
<path d="M9.67666 38.4782C9.89733 38.4782 10.0726 38.608 10.2413 38.608C10.3192 38.608 10.3776 38.569 10.449 38.4717L10.6632 38.6404C10.5464 38.8157 10.4166 38.8871 10.2543 38.8871C10.0401 38.8871 9.84541 38.7573 9.69613 38.7573C9.61175 38.7573 9.55334 38.7962 9.48194 38.8936L9.28723 38.7248C9.40406 38.5496 9.5144 38.4782 9.67666 38.4782Z" fill="#DA5107"/>
<path d="M7.72958 39.4518C7.95025 39.4518 8.12549 39.5816 8.29424 39.5816C8.37213 39.5816 8.43055 39.5427 8.50194 39.4453L8.71613 39.6141C8.5993 39.7893 8.46949 39.8607 8.30723 39.8607C8.09304 39.8607 7.89833 39.7309 7.74905 39.7309C7.66467 39.7309 7.60626 39.7698 7.53486 39.8672L7.34015 39.6984C7.45698 39.5232 7.56731 39.4518 7.72958 39.4518Z" fill="#DA5107"/>
<path d="M5.78243 38.4782C6.00311 38.4782 6.17835 38.608 6.3471 38.608C6.42499 38.608 6.4834 38.569 6.5548 38.4717L6.76898 38.6404C6.65215 38.8157 6.52235 38.8871 6.36008 38.8871C6.1459 38.8871 5.95118 38.7573 5.8019 38.7573C5.71753 38.7573 5.65911 38.7962 5.58772 38.8936L5.39301 38.7248C5.50983 38.5496 5.62017 38.4782 5.78243 38.4782Z" fill="#DA5107"/>
<path d="M7.72958 37.5048C7.95025 37.5048 8.12549 37.6346 8.29424 37.6346C8.37213 37.6346 8.43055 37.5956 8.50194 37.4983L8.71613 37.667C8.5993 37.8423 8.46949 37.9137 8.30723 37.9137C8.09304 37.9137 7.89833 37.7839 7.74905 37.7839C7.66467 37.7839 7.60626 37.8228 7.53486 37.9202L7.34015 37.7514C7.45698 37.5762 7.56731 37.5048 7.72958 37.5048Z" fill="#DA5107"/>
</g>
<mask id="mask2_1846_18109" style="mask-type:alpha" maskUnits="userSpaceOnUse" x="4" y="12" width="11" height="26">
<path d="M13.61 32.5587L6.10703 37.2383L5.25677 17.3775L12.7533 12.7043L13.61 32.5587Z" fill="#FF7E3B" stroke="#E85300" stroke-width="1.3617" stroke-miterlimit="10" stroke-linejoin="round"/>
</mask>
<g mask="url(#mask2_1846_18109)">
<path d="M13.5712 13.1652C13.7919 13.1652 13.9671 13.295 14.1359 13.295C14.2137 13.295 14.2722 13.256 14.3436 13.1587L14.5577 13.3274C14.4409 13.5027 14.3111 13.5741 14.1488 13.5741C13.9347 13.5741 13.7399 13.4443 13.5907 13.4443C13.5063 13.4443 13.4479 13.4832 13.3765 13.5806L13.1818 13.4118C13.2986 13.2366 13.4089 13.1652 13.5712 13.1652Z" fill="#DA5107"/>
<path d="M11.624 14.1388C11.8447 14.1388 12.0199 14.2686 12.1887 14.2686C12.2665 14.2686 12.325 14.2297 12.3964 14.1323L12.6105 14.3011C12.4937 14.4763 12.3639 14.5477 12.2016 14.5477C11.9875 14.5477 11.7927 14.4179 11.6435 14.4179C11.5591 14.4179 11.5007 14.4568 11.4293 14.5542L11.2346 14.3855C11.3514 14.2102 11.4617 14.1388 11.624 14.1388Z" fill="#DA5107"/>
<path d="M9.67684 13.1652C9.89752 13.1652 10.0728 13.295 10.2415 13.295C10.3194 13.295 10.3778 13.256 10.4492 13.1587L10.6634 13.3274C10.5466 13.5027 10.4168 13.5741 10.2545 13.5741C10.0403 13.5741 9.84559 13.4443 9.69631 13.4443C9.61194 13.4443 9.55352 13.4832 9.48213 13.5806L9.28741 13.4118C9.40424 13.2366 9.51458 13.1652 9.67684 13.1652Z" fill="#DA5107"/>
<path d="M11.624 12.1915C11.8447 12.1915 12.0199 12.3214 12.1887 12.3214C12.2665 12.3214 12.325 12.2824 12.3964 12.1851L12.6105 12.3538C12.4937 12.5291 12.3639 12.6004 12.2016 12.6004C11.9875 12.6004 11.7927 12.4706 11.6435 12.4706C11.5591 12.4706 11.5007 12.5096 11.4293 12.6069L11.2346 12.4382C11.3514 12.2629 11.4617 12.1915 11.624 12.1915Z" fill="#DA5107"/>
<path d="M13.5712 17.0595C13.7919 17.0595 13.9671 17.1893 14.1359 17.1893C14.2137 17.1893 14.2722 17.1503 14.3436 17.053L14.5577 17.2217C14.4409 17.397 14.3111 17.4684 14.1488 17.4684C13.9347 17.4684 13.7399 17.3386 13.5907 17.3386C13.5063 17.3386 13.4479 17.3775 13.3765 17.4749L13.1818 17.3061C13.2986 17.1309 13.4089 17.0595 13.5712 17.0595Z" fill="#DA5107"/>
<path d="M11.624 18.0331C11.8447 18.0331 12.0199 18.1629 12.1887 18.1629C12.2665 18.1629 12.325 18.124 12.3964 18.0266L12.6105 18.1954C12.4937 18.3706 12.3639 18.442 12.2016 18.442C11.9875 18.442 11.7927 18.3122 11.6435 18.3122C11.5591 18.3122 11.5007 18.3511 11.4293 18.4485L11.2346 18.2797C11.3514 18.1045 11.4617 18.0331 11.624 18.0331Z" fill="#DA5107"/>
<path d="M9.67684 17.0595C9.89752 17.0595 10.0728 17.1893 10.2415 17.1893C10.3194 17.1893 10.3778 17.1503 10.4492 17.053L10.6634 17.2217C10.5466 17.397 10.4168 17.4684 10.2545 17.4684C10.0403 17.4684 9.84559 17.3386 9.69631 17.3386C9.61194 17.3386 9.55352 17.3775 9.48213 17.4749L9.28741 17.3061C9.40424 17.1309 9.51458 17.0595 9.67684 17.0595Z" fill="#DA5107"/>
<path d="M13.5712 15.1122C13.7919 15.1122 13.9671 15.242 14.1359 15.242C14.2137 15.242 14.2722 15.2031 14.3436 15.1057L14.5577 15.2745C14.4409 15.4497 14.3111 15.5211 14.1488 15.5211C13.9347 15.5211 13.7399 15.3913 13.5907 15.3913C13.5063 15.3913 13.4479 15.4302 13.3765 15.5276L13.1818 15.3588C13.2986 15.1836 13.4089 15.1122 13.5712 15.1122Z" fill="#DA5107"/>
<path d="M11.624 16.0858C11.8447 16.0858 12.0199 16.2156 12.1887 16.2156C12.2665 16.2156 12.325 16.1767 12.3964 16.0793L12.6105 16.2481C12.4937 16.4233 12.3639 16.4947 12.2016 16.4947C11.9875 16.4947 11.7927 16.3649 11.6435 16.3649C11.5591 16.3649 11.5007 16.4039 11.4293 16.5012L11.2346 16.3325C11.3514 16.1572 11.4617 16.0858 11.624 16.0858Z" fill="#DA5107"/>
<path d="M9.67684 15.1122C9.89752 15.1122 10.0728 15.242 10.2415 15.242C10.3194 15.242 10.3778 15.2031 10.4492 15.1057L10.6634 15.2745C10.5466 15.4497 10.4168 15.5211 10.2545 15.5211C10.0403 15.5211 9.84559 15.3913 9.69631 15.3913C9.61194 15.3913 9.55352 15.4302 9.48213 15.5276L9.28741 15.3588C9.40424 15.1836 9.51458 15.1122 9.67684 15.1122Z" fill="#DA5107"/>
<path d="M11.624 14.1388C11.8447 14.1388 12.0199 14.2686 12.1887 14.2686C12.2665 14.2686 12.325 14.2297 12.3964 14.1323L12.6105 14.3011C12.4937 14.4763 12.3639 14.5477 12.2016 14.5477C11.9875 14.5477 11.7927 14.4179 11.6435 14.4179C11.5591 14.4179 11.5007 14.4568 11.4293 14.5542L11.2346 14.3855C11.3514 14.2102 11.4617 14.1388 11.624 14.1388Z" fill="#DA5107"/>
<path d="M13.5712 20.9538C13.7919 20.9538 13.9671 21.0836 14.1359 21.0836C14.2137 21.0836 14.2722 21.0446 14.3436 20.9473L14.5577 21.116C14.4409 21.2913 14.3111 21.3627 14.1488 21.3627C13.9347 21.3627 13.7399 21.2328 13.5907 21.2328C13.5063 21.2328 13.4479 21.2718 13.3765 21.3691L13.1818 21.2004C13.2986 21.0252 13.4089 20.9538 13.5712 20.9538Z" fill="#DA5107"/>
<path d="M11.624 21.9274C11.8447 21.9274 12.0199 22.0572 12.1887 22.0572C12.2665 22.0572 12.325 22.0183 12.3964 21.9209L12.6105 22.0897C12.4937 22.2649 12.3639 22.3363 12.2016 22.3363C11.9875 22.3363 11.7927 22.2065 11.6435 22.2065C11.5591 22.2065 11.5007 22.2454 11.4293 22.3428L11.2346 22.174C11.3514 21.9988 11.4617 21.9274 11.624 21.9274Z" fill="#DA5107"/>
<path d="M9.67684 20.9538C9.89752 20.9538 10.0728 21.0836 10.2415 21.0836C10.3194 21.0836 10.3778 21.0446 10.4492 20.9473L10.6634 21.116C10.5466 21.2913 10.4168 21.3627 10.2545 21.3627C10.0403 21.3627 9.84559 21.2328 9.69631 21.2328C9.61194 21.2328 9.55352 21.2718 9.48213 21.3691L9.28741 21.2004C9.40424 21.0252 9.51458 20.9538 9.67684 20.9538Z" fill="#DA5107"/>
<path d="M13.5712 19.0065C13.7919 19.0065 13.9671 19.1363 14.1359 19.1363C14.2137 19.1363 14.2722 19.0974 14.3436 19L14.5577 19.1688C14.4409 19.344 14.3111 19.4154 14.1488 19.4154C13.9347 19.4154 13.7399 19.2856 13.5907 19.2856C13.5063 19.2856 13.4479 19.3245 13.3765 19.4219L13.1818 19.2531C13.2986 19.0779 13.4089 19.0065 13.5712 19.0065Z" fill="#DA5107"/>
<path d="M11.624 19.9801C11.8447 19.9801 12.0199 20.1099 12.1887 20.1099C12.2665 20.1099 12.325 20.071 12.3964 19.9736L12.6105 20.1424C12.4937 20.3176 12.3639 20.389 12.2016 20.389C11.9875 20.389 11.7927 20.2592 11.6435 20.2592C11.5591 20.2592 11.5007 20.2982 11.4293 20.3955L11.2346 20.2268C11.3514 20.0515 11.4617 19.9801 11.624 19.9801Z" fill="#DA5107"/>
<path d="M9.67684 19.0065C9.89752 19.0065 10.0728 19.1363 10.2415 19.1363C10.3194 19.1363 10.3778 19.0974 10.4492 19L10.6634 19.1688C10.5466 19.344 10.4168 19.4154 10.2545 19.4154C10.0403 19.4154 9.84559 19.2856 9.69631 19.2856C9.61194 19.2856 9.55352 19.3245 9.48213 19.4219L9.28741 19.2531C9.40424 19.0779 9.51458 19.0065 9.67684 19.0065Z" fill="#DA5107"/>
<path d="M11.624 18.0331C11.8447 18.0331 12.0199 18.1629 12.1887 18.1629C12.2665 18.1629 12.325 18.124 12.3964 18.0266L12.6105 18.1954C12.4937 18.3706 12.3639 18.442 12.2016 18.442C11.9875 18.442 11.7927 18.3122 11.6435 18.3122C11.5591 18.3122 11.5007 18.3511 11.4293 18.4485L11.2346 18.2797C11.3514 18.1045 11.4617 18.0331 11.624 18.0331Z" fill="#DA5107"/>
<path d="M13.5712 24.848C13.7919 24.848 13.9671 24.9779 14.1359 24.9779C14.2137 24.9779 14.2722 24.9389 14.3436 24.8416L14.5577 25.0103C14.4409 25.1855 14.3111 25.2569 14.1488 25.2569C13.9347 25.2569 13.7399 25.1271 13.5907 25.1271C13.5063 25.1271 13.4479 25.1661 13.3765 25.2634L13.1818 25.0947C13.2986 24.9194 13.4089 24.848 13.5712 24.848Z" fill="#DA5107"/>
<path d="M11.624 25.8217C11.8447 25.8217 12.0199 25.9515 12.1887 25.9515C12.2665 25.9515 12.325 25.9125 12.3964 25.8152L12.6105 25.9839C12.4937 26.1592 12.3639 26.2306 12.2016 26.2306C11.9875 26.2306 11.7927 26.1008 11.6435 26.1008C11.5591 26.1008 11.5007 26.1397 11.4293 26.2371L11.2346 26.0683C11.3514 25.8931 11.4617 25.8217 11.624 25.8217Z" fill="#DA5107"/>
<path d="M9.67684 24.848C9.89752 24.848 10.0728 24.9779 10.2415 24.9779C10.3194 24.9779 10.3778 24.9389 10.4492 24.8416L10.6634 25.0103C10.5466 25.1855 10.4168 25.2569 10.2545 25.2569C10.0403 25.2569 9.84559 25.1271 9.69631 25.1271C9.61194 25.1271 9.55352 25.1661 9.48213 25.2634L9.28741 25.0947C9.40424 24.9194 9.51458 24.848 9.67684 24.848Z" fill="#DA5107"/>
<path d="M13.5712 22.9008C13.7919 22.9008 13.9671 23.0306 14.1359 23.0306C14.2137 23.0306 14.2722 22.9916 14.3436 22.8943L14.5577 23.063C14.4409 23.2383 14.3111 23.3097 14.1488 23.3097C13.9347 23.3097 13.7399 23.1799 13.5907 23.1799C13.5063 23.1799 13.4479 23.2188 13.3765 23.3162L13.1818 23.1474C13.2986 22.9722 13.4089 22.9008 13.5712 22.9008Z" fill="#DA5107"/>
<path d="M11.624 23.8744C11.8447 23.8744 12.0199 24.0042 12.1887 24.0042C12.2665 24.0042 12.325 23.9653 12.3964 23.8679L12.6105 24.0367C12.4937 24.2119 12.3639 24.2833 12.2016 24.2833C11.9875 24.2833 11.7927 24.1535 11.6435 24.1535C11.5591 24.1535 11.5007 24.1924 11.4293 24.2898L11.2346 24.121C11.3514 23.9458 11.4617 23.8744 11.624 23.8744Z" fill="#DA5107"/>
<path d="M9.67684 22.9008C9.89752 22.9008 10.0728 23.0306 10.2415 23.0306C10.3194 23.0306 10.3778 22.9916 10.4492 22.8943L10.6634 23.063C10.5466 23.2383 10.4168 23.3097 10.2545 23.3097C10.0403 23.3097 9.84559 23.1799 9.69631 23.1799C9.61194 23.1799 9.55352 23.2188 9.48213 23.3162L9.28741 23.1474C9.40424 22.9722 9.51458 22.9008 9.67684 22.9008Z" fill="#DA5107"/>
<path d="M11.624 21.9274C11.8447 21.9274 12.0199 22.0572 12.1887 22.0572C12.2665 22.0572 12.325 22.0183 12.3964 21.9209L12.6105 22.0896C12.4937 22.2649 12.3639 22.3363 12.2016 22.3363C11.9875 22.3363 11.7927 22.2065 11.6435 22.2065C11.5591 22.2065 11.5007 22.2454 11.4293 22.3428L11.2346 22.174C11.3514 21.9988 11.4617 21.9274 11.624 21.9274Z" fill="#DA5107"/>
<path d="M13.5712 28.7423C13.7919 28.7423 13.9671 28.8721 14.1359 28.8721C14.2137 28.8721 14.2722 28.8332 14.3436 28.7358L14.5577 28.9046C14.4409 29.0798 14.3111 29.1512 14.1488 29.1512C13.9347 29.1512 13.7399 29.0214 13.5907 29.0214C13.5063 29.0214 13.4479 29.0604 13.3765 29.1577L13.1818 28.989C13.2986 28.8137 13.4089 28.7423 13.5712 28.7423Z" fill="#DA5107"/>
<path d="M11.624 29.716C11.8447 29.716 12.0199 29.8458 12.1887 29.8458C12.2665 29.8458 12.325 29.8068 12.3964 29.7095L12.6105 29.8782C12.4937 30.0535 12.3639 30.1249 12.2016 30.1249C11.9875 30.1249 11.7927 29.9951 11.6435 29.9951C11.5591 29.9951 11.5007 30.034 11.4293 30.1314L11.2346 29.9626C11.3514 29.7874 11.4617 29.716 11.624 29.716Z" fill="#DA5107"/>
<path d="M9.67684 28.7423C9.89752 28.7423 10.0728 28.8721 10.2415 28.8721C10.3194 28.8721 10.3778 28.8332 10.4492 28.7358L10.6634 28.9046C10.5466 29.0798 10.4168 29.1512 10.2545 29.1512C10.0403 29.1512 9.84559 29.0214 9.69631 29.0214C9.61194 29.0214 9.55352 29.0604 9.48213 29.1577L9.28741 28.989C9.40424 28.8137 9.51458 28.7423 9.67684 28.7423Z" fill="#DA5107"/>
<path d="M13.5712 26.7951C13.7919 26.7951 13.9671 26.9249 14.1359 26.9249C14.2137 26.9249 14.2722 26.8859 14.3436 26.7886L14.5577 26.9573C14.4409 27.1326 14.3111 27.204 14.1488 27.204C13.9347 27.204 13.7399 27.0742 13.5907 27.0742C13.5063 27.0742 13.4479 27.1131 13.3765 27.2105L13.1818 27.0417C13.2986 26.8665 13.4089 26.7951 13.5712 26.7951Z" fill="#DA5107"/>
<path d="M11.624 27.7687C11.8447 27.7687 12.0199 27.8985 12.1887 27.8985C12.2665 27.8985 12.325 27.8596 12.3964 27.7622L12.6105 27.931C12.4937 28.1062 12.3639 28.1776 12.2016 28.1776C11.9875 28.1776 11.7927 28.0478 11.6435 28.0478C11.5591 28.0478 11.5007 28.0867 11.4293 28.1841L11.2346 28.0153C11.3514 27.8401 11.4617 27.7687 11.624 27.7687Z" fill="#DA5107"/>
<path d="M9.67684 26.7951C9.89752 26.7951 10.0728 26.9249 10.2415 26.9249C10.3194 26.9249 10.3778 26.8859 10.4492 26.7886L10.6634 26.9573C10.5466 27.1326 10.4168 27.204 10.2545 27.204C10.0403 27.204 9.84559 27.0742 9.69631 27.0742C9.61194 27.0742 9.55352 27.1131 9.48213 27.2105L9.28741 27.0417C9.40424 26.8665 9.51458 26.7951 9.67684 26.7951Z" fill="#DA5107"/>
<path d="M11.624 25.8217C11.8447 25.8217 12.0199 25.9515 12.1887 25.9515C12.2665 25.9515 12.325 25.9125 12.3964 25.8152L12.6105 25.9839C12.4937 26.1592 12.3639 26.2306 12.2016 26.2306C11.9875 26.2306 11.7927 26.1008 11.6435 26.1008C11.5591 26.1008 11.5007 26.1397 11.4293 26.2371L11.2346 26.0683C11.3514 25.8931 11.4617 25.8217 11.624 25.8217Z" fill="#DA5107"/>
<path d="M13.5712 32.6366C13.7919 32.6366 13.9671 32.7664 14.1359 32.7664C14.2137 32.7664 14.2722 32.7275 14.3436 32.6301L14.5577 32.7989C14.4409 32.9741 14.3111 33.0455 14.1488 33.0455C13.9347 33.0455 13.7399 32.9157 13.5907 32.9157C13.5063 32.9157 13.4479 32.9546 13.3765 33.052L13.1818 32.8833C13.2986 32.708 13.4089 32.6366 13.5712 32.6366Z" fill="#DA5107"/>
<path d="M11.624 33.6102C11.8447 33.6102 12.0199 33.7401 12.1887 33.7401C12.2665 33.7401 12.325 33.7011 12.3964 33.6038L12.6105 33.7725C12.4937 33.9478 12.3639 34.0192 12.2016 34.0192C11.9875 34.0192 11.7927 33.8893 11.6435 33.8893C11.5591 33.8893 11.5007 33.9283 11.4293 34.0256L11.2346 33.8569C11.3514 33.6816 11.4617 33.6102 11.624 33.6102Z" fill="#DA5107"/>
<path d="M9.67684 32.6366C9.89752 32.6366 10.0728 32.7664 10.2415 32.7664C10.3194 32.7664 10.3778 32.7275 10.4492 32.6301L10.6634 32.7989C10.5466 32.9741 10.4168 33.0455 10.2545 33.0455C10.0403 33.0455 9.84559 32.9157 9.69631 32.9157C9.61194 32.9157 9.55352 32.9546 9.48213 33.052L9.28741 32.8833C9.40424 32.708 9.51458 32.6366 9.67684 32.6366Z" fill="#DA5107"/>
<path d="M13.5712 30.6894C13.7919 30.6894 13.9671 30.8192 14.1359 30.8192C14.2137 30.8192 14.2722 30.7802 14.3436 30.6829L14.5577 30.8516C14.4409 31.0269 14.3111 31.0983 14.1488 31.0983C13.9347 31.0983 13.7399 30.9684 13.5907 30.9684C13.5063 30.9684 13.4479 31.0074 13.3765 31.1047L13.1818 30.936C13.2986 30.7607 13.4089 30.6894 13.5712 30.6894Z" fill="#DA5107"/>
<path d="M11.624 31.663C11.8447 31.663 12.0199 31.7928 12.1887 31.7928C12.2665 31.7928 12.325 31.7539 12.3964 31.6565L12.6105 31.8252C12.4937 32.0005 12.3639 32.0719 12.2016 32.0719C11.9875 32.0719 11.7927 31.9421 11.6435 31.9421C11.5591 31.9421 11.5007 31.981 11.4293 32.0784L11.2346 31.9096C11.3514 31.7344 11.4617 31.663 11.624 31.663Z" fill="#DA5107"/>
<path d="M9.67684 30.6894C9.89752 30.6894 10.0728 30.8192 10.2415 30.8192C10.3194 30.8192 10.3778 30.7802 10.4492 30.6829L10.6634 30.8516C10.5466 31.0269 10.4168 31.0983 10.2545 31.0983C10.0403 31.0983 9.84559 30.9684 9.69631 30.9684C9.61194 30.9684 9.55352 31.0074 9.48213 31.1047L9.28741 30.936C9.40424 30.7607 9.51458 30.6894 9.67684 30.6894Z" fill="#DA5107"/>
<path d="M11.624 29.716C11.8447 29.716 12.0199 29.8458 12.1887 29.8458C12.2665 29.8458 12.325 29.8068 12.3964 29.7095L12.6105 29.8782C12.4937 30.0535 12.3639 30.1249 12.2016 30.1249C11.9875 30.1249 11.7927 29.9951 11.6435 29.9951C11.5591 29.9951 11.5007 30.034 11.4293 30.1314L11.2346 29.9626C11.3514 29.7874 11.4617 29.716 11.624 29.716Z" fill="#DA5107"/>
<path d="M13.5712 36.5309C13.7919 36.5309 13.9671 36.6607 14.1359 36.6607C14.2137 36.6607 14.2722 36.6218 14.3436 36.5244L14.5577 36.6932C14.4409 36.8684 14.3111 36.9398 14.1488 36.9398C13.9347 36.9398 13.7399 36.81 13.5907 36.81C13.5063 36.81 13.4479 36.8489 13.3765 36.9463L13.1818 36.7775C13.2986 36.6023 13.4089 36.5309 13.5712 36.5309Z" fill="#DA5107"/>
<path d="M11.624 37.5045C11.8447 37.5045 12.0199 37.6343 12.1887 37.6343C12.2665 37.6343 12.325 37.5954 12.3964 37.498L12.6105 37.6668C12.4937 37.842 12.3639 37.9134 12.2016 37.9134C11.9875 37.9134 11.7927 37.7836 11.6435 37.7836C11.5591 37.7836 11.5007 37.8226 11.4293 37.9199L11.2346 37.7512C11.3514 37.5759 11.4617 37.5045 11.624 37.5045Z" fill="#DA5107"/>
<path d="M9.67684 36.5309C9.89752 36.5309 10.0728 36.6607 10.2415 36.6607C10.3194 36.6607 10.3778 36.6218 10.4492 36.5244L10.6634 36.6932C10.5466 36.8684 10.4168 36.9398 10.2545 36.9398C10.0403 36.9398 9.84559 36.81 9.69631 36.81C9.61194 36.81 9.55352 36.8489 9.48213 36.9463L9.28741 36.7775C9.40424 36.6023 9.51458 36.5309 9.67684 36.5309Z" fill="#DA5107"/>
<path d="M13.5712 34.5836C13.7919 34.5836 13.9671 34.7134 14.1359 34.7134C14.2137 34.7134 14.2722 34.6745 14.3436 34.5771L14.5577 34.7459C14.4409 34.9211 14.3111 34.9925 14.1488 34.9925C13.9347 34.9925 13.7399 34.8627 13.5907 34.8627C13.5063 34.8627 13.4479 34.9017 13.3765 34.999L13.1818 34.8303C13.2986 34.655 13.4089 34.5836 13.5712 34.5836Z" fill="#DA5107"/>
<path d="M11.624 35.5573C11.8447 35.5573 12.0199 35.6871 12.1887 35.6871C12.2665 35.6871 12.325 35.6481 12.3964 35.5508L12.6105 35.7195C12.4937 35.8948 12.3639 35.9662 12.2016 35.9662C11.9875 35.9662 11.7927 35.8364 11.6435 35.8364C11.5591 35.8364 11.5007 35.8753 11.4293 35.9727L11.2346 35.8039C11.3514 35.6287 11.4617 35.5573 11.624 35.5573Z" fill="#DA5107"/>
<path d="M9.67684 34.5836C9.89752 34.5836 10.0728 34.7134 10.2415 34.7134C10.3194 34.7134 10.3778 34.6745 10.4492 34.5771L10.6634 34.7459C10.5466 34.9211 10.4168 34.9925 10.2545 34.9925C10.0403 34.9925 9.84559 34.8627 9.69631 34.8627C9.61194 34.8627 9.55352 34.9017 9.48213 34.999L9.28741 34.8303C9.40424 34.655 9.51458 34.5836 9.67684 34.5836Z" fill="#DA5107"/>
<path d="M11.624 33.6102C11.8447 33.6102 12.0199 33.7401 12.1887 33.7401C12.2665 33.7401 12.325 33.7011 12.3964 33.6038L12.6105 33.7725C12.4937 33.9478 12.3639 34.0192 12.2016 34.0192C11.9875 34.0192 11.7927 33.8893 11.6435 33.8893C11.5591 33.8893 11.5007 33.9283 11.4293 34.0256L11.2346 33.8569C11.3514 33.6816 11.4617 33.6102 11.624 33.6102Z" fill="#DA5107"/>
<path d="M9.67678 13.1652C9.89746 13.1652 10.0727 13.295 10.2414 13.295C10.3193 13.295 10.3778 13.256 10.4491 13.1587L10.6633 13.3274C10.5465 13.5027 10.4167 13.5741 10.2544 13.5741C10.0402 13.5741 9.84553 13.4443 9.69625 13.4443C9.61188 13.4443 9.55346 13.4832 9.48206 13.5806L9.28735 13.4118C9.40418 13.2366 9.51452 13.1652 9.67678 13.1652Z" fill="#DA5107"/>
<path d="M7.72964 14.1388C7.95031 14.1388 8.12555 14.2686 8.2943 14.2686C8.37219 14.2686 8.43061 14.2297 8.502 14.1323L8.71619 14.3011C8.59936 14.4763 8.46955 14.5477 8.30729 14.5477C8.0931 14.5477 7.89839 14.4179 7.74911 14.4179C7.66473 14.4179 7.60632 14.4568 7.53492 14.5542L7.34021 14.3855C7.45704 14.2102 7.56738 14.1388 7.72964 14.1388Z" fill="#DA5107"/>
<path d="M5.78255 13.1652C6.00323 13.1652 6.17847 13.295 6.34722 13.295C6.42511 13.295 6.48353 13.256 6.55492 13.1587L6.7691 13.3274C6.65228 13.5027 6.52247 13.5741 6.36021 13.5741C6.14602 13.5741 5.95131 13.4443 5.80203 13.4443C5.71765 13.4443 5.65923 13.4832 5.58784 13.5806L5.39313 13.4118C5.50996 13.2366 5.62029 13.1652 5.78255 13.1652Z" fill="#DA5107"/>
<path d="M7.72964 12.1915C7.95031 12.1915 8.12555 12.3214 8.2943 12.3214C8.37219 12.3214 8.43061 12.2824 8.502 12.1851L8.71619 12.3538C8.59936 12.5291 8.46955 12.6004 8.30729 12.6004C8.0931 12.6004 7.89839 12.4706 7.74911 12.4706C7.66473 12.4706 7.60632 12.5096 7.53492 12.6069L7.34021 12.4382C7.45704 12.2629 7.56738 12.1915 7.72964 12.1915Z" fill="#DA5107"/>
<path d="M9.67678 17.0595C9.89746 17.0595 10.0727 17.1893 10.2414 17.1893C10.3193 17.1893 10.3778 17.1503 10.4491 17.053L10.6633 17.2217C10.5465 17.397 10.4167 17.4684 10.2544 17.4684C10.0402 17.4684 9.84553 17.3386 9.69625 17.3386C9.61188 17.3386 9.55346 17.3775 9.48206 17.4749L9.28735 17.3061C9.40418 17.1309 9.51452 17.0595 9.67678 17.0595Z" fill="#DA5107"/>
<path d="M7.72964 18.0331C7.95031 18.0331 8.12555 18.1629 8.2943 18.1629C8.37219 18.1629 8.43061 18.124 8.502 18.0266L8.71619 18.1954C8.59936 18.3706 8.46955 18.442 8.30729 18.442C8.0931 18.442 7.89839 18.3122 7.74911 18.3122C7.66473 18.3122 7.60632 18.3511 7.53492 18.4485L7.34021 18.2797C7.45704 18.1045 7.56738 18.0331 7.72964 18.0331Z" fill="#DA5107"/>
<path d="M5.78255 17.0595C6.00323 17.0595 6.17847 17.1893 6.34722 17.1893C6.42511 17.1893 6.48353 17.1503 6.55492 17.053L6.7691 17.2217C6.65228 17.397 6.52247 17.4684 6.36021 17.4684C6.14602 17.4684 5.95131 17.3386 5.80203 17.3386C5.71765 17.3386 5.65923 17.3775 5.58784 17.4749L5.39313 17.3061C5.50996 17.1309 5.62029 17.0595 5.78255 17.0595Z" fill="#DA5107"/>
<path d="M9.67678 15.1122C9.89746 15.1122 10.0727 15.242 10.2414 15.242C10.3193 15.242 10.3778 15.2031 10.4491 15.1057L10.6633 15.2745C10.5465 15.4497 10.4167 15.5211 10.2544 15.5211C10.0402 15.5211 9.84553 15.3913 9.69625 15.3913C9.61188 15.3913 9.55346 15.4302 9.48206 15.5276L9.28735 15.3588C9.40418 15.1836 9.51452 15.1122 9.67678 15.1122Z" fill="#DA5107"/>
<path d="M7.72964 16.0858C7.95031 16.0858 8.12555 16.2156 8.2943 16.2156C8.37219 16.2156 8.43061 16.1767 8.502 16.0793L8.71619 16.2481C8.59936 16.4233 8.46955 16.4947 8.30729 16.4947C8.0931 16.4947 7.89839 16.3649 7.74911 16.3649C7.66473 16.3649 7.60632 16.4039 7.53492 16.5012L7.34021 16.3325C7.45704 16.1572 7.56738 16.0858 7.72964 16.0858Z" fill="#DA5107"/>
<path d="M5.78255 15.1122C6.00323 15.1122 6.17847 15.242 6.34722 15.242C6.42511 15.242 6.48353 15.2031 6.55492 15.1057L6.7691 15.2745C6.65228 15.4497 6.52247 15.5211 6.36021 15.5211C6.14602 15.5211 5.95131 15.3913 5.80203 15.3913C5.71765 15.3913 5.65923 15.4302 5.58784 15.5276L5.39313 15.3588C5.50996 15.1836 5.62029 15.1122 5.78255 15.1122Z" fill="#DA5107"/>
<path d="M7.72964 14.1388C7.95031 14.1388 8.12555 14.2686 8.2943 14.2686C8.37219 14.2686 8.43061 14.2297 8.502 14.1323L8.71619 14.3011C8.59936 14.4763 8.46955 14.5477 8.30729 14.5477C8.0931 14.5477 7.89839 14.4179 7.74911 14.4179C7.66473 14.4179 7.60632 14.4568 7.53492 14.5542L7.34021 14.3855C7.45704 14.2102 7.56738 14.1388 7.72964 14.1388Z" fill="#DA5107"/>
<path d="M9.67678 20.9538C9.89746 20.9538 10.0727 21.0836 10.2414 21.0836C10.3193 21.0836 10.3778 21.0446 10.4491 20.9473L10.6633 21.116C10.5465 21.2913 10.4167 21.3627 10.2544 21.3627C10.0402 21.3627 9.84553 21.2328 9.69625 21.2328C9.61188 21.2328 9.55346 21.2718 9.48206 21.3691L9.28735 21.2004C9.40418 21.0252 9.51452 20.9538 9.67678 20.9538Z" fill="#DA5107"/>
<path d="M7.72964 21.9274C7.95031 21.9274 8.12555 22.0572 8.2943 22.0572C8.37219 22.0572 8.43061 22.0183 8.502 21.9209L8.71619 22.0897C8.59936 22.2649 8.46955 22.3363 8.30729 22.3363C8.0931 22.3363 7.89839 22.2065 7.74911 22.2065C7.66473 22.2065 7.60632 22.2454 7.53492 22.3428L7.34021 22.174C7.45704 21.9988 7.56738 21.9274 7.72964 21.9274Z" fill="#DA5107"/>
<path d="M5.78255 20.9538C6.00323 20.9538 6.17847 21.0836 6.34722 21.0836C6.42511 21.0836 6.48353 21.0446 6.55492 20.9473L6.7691 21.116C6.65228 21.2913 6.52247 21.3627 6.36021 21.3627C6.14602 21.3627 5.95131 21.2328 5.80203 21.2328C5.71765 21.2328 5.65923 21.2718 5.58784 21.3691L5.39313 21.2004C5.50996 21.0252 5.62029 20.9538 5.78255 20.9538Z" fill="#DA5107"/>
<path d="M9.67678 19.0065C9.89746 19.0065 10.0727 19.1363 10.2414 19.1363C10.3193 19.1363 10.3778 19.0974 10.4491 19L10.6633 19.1688C10.5465 19.344 10.4167 19.4154 10.2544 19.4154C10.0402 19.4154 9.84553 19.2856 9.69625 19.2856C9.61188 19.2856 9.55346 19.3245 9.48206 19.4219L9.28735 19.2531C9.40418 19.0779 9.51452 19.0065 9.67678 19.0065Z" fill="#DA5107"/>
<path d="M7.72964 19.9801C7.95031 19.9801 8.12555 20.1099 8.2943 20.1099C8.37219 20.1099 8.43061 20.071 8.502 19.9736L8.71619 20.1424C8.59936 20.3176 8.46955 20.389 8.30729 20.389C8.0931 20.389 7.89839 20.2592 7.74911 20.2592C7.66473 20.2592 7.60632 20.2982 7.53492 20.3955L7.34021 20.2268C7.45704 20.0515 7.56738 19.9801 7.72964 19.9801Z" fill="#DA5107"/>
<path d="M5.78255 19.0065C6.00323 19.0065 6.17847 19.1363 6.34722 19.1363C6.42511 19.1363 6.48353 19.0974 6.55492 19L6.7691 19.1688C6.65228 19.344 6.52247 19.4154 6.36021 19.4154C6.14602 19.4154 5.95131 19.2856 5.80203 19.2856C5.71765 19.2856 5.65923 19.3245 5.58784 19.4219L5.39313 19.2531C5.50996 19.0779 5.62029 19.0065 5.78255 19.0065Z" fill="#DA5107"/>
<path d="M7.72964 18.0331C7.95031 18.0331 8.12555 18.1629 8.2943 18.1629C8.37219 18.1629 8.43061 18.124 8.502 18.0266L8.71619 18.1954C8.59936 18.3706 8.46955 18.442 8.30729 18.442C8.0931 18.442 7.89839 18.3122 7.74911 18.3122C7.66473 18.3122 7.60632 18.3511 7.53492 18.4485L7.34021 18.2797C7.45704 18.1045 7.56738 18.0331 7.72964 18.0331Z" fill="#DA5107"/>
<path d="M9.67678 24.848C9.89746 24.848 10.0727 24.9779 10.2414 24.9779C10.3193 24.9779 10.3778 24.9389 10.4491 24.8416L10.6633 25.0103C10.5465 25.1855 10.4167 25.2569 10.2544 25.2569C10.0402 25.2569 9.84553 25.1271 9.69625 25.1271C9.61188 25.1271 9.55346 25.1661 9.48206 25.2634L9.28735 25.0947C9.40418 24.9194 9.51452 24.848 9.67678 24.848Z" fill="#DA5107"/>
<path d="M7.72964 25.8217C7.95031 25.8217 8.12555 25.9515 8.2943 25.9515C8.37219 25.9515 8.43061 25.9125 8.502 25.8152L8.71619 25.9839C8.59936 26.1592 8.46955 26.2306 8.30729 26.2306C8.0931 26.2306 7.89839 26.1008 7.74911 26.1008C7.66473 26.1008 7.60632 26.1397 7.53492 26.2371L7.34021 26.0683C7.45704 25.8931 7.56738 25.8217 7.72964 25.8217Z" fill="#DA5107"/>
<path d="M5.78255 24.848C6.00323 24.848 6.17847 24.9779 6.34722 24.9779C6.42511 24.9779 6.48353 24.9389 6.55492 24.8416L6.7691 25.0103C6.65228 25.1855 6.52247 25.2569 6.36021 25.2569C6.14602 25.2569 5.95131 25.1271 5.80203 25.1271C5.71765 25.1271 5.65923 25.1661 5.58784 25.2634L5.39313 25.0947C5.50996 24.9194 5.62029 24.848 5.78255 24.848Z" fill="#DA5107"/>
<path d="M9.67678 22.9008C9.89746 22.9008 10.0727 23.0306 10.2414 23.0306C10.3193 23.0306 10.3778 22.9916 10.4491 22.8943L10.6633 23.063C10.5465 23.2383 10.4167 23.3097 10.2544 23.3097C10.0402 23.3097 9.84553 23.1799 9.69625 23.1799C9.61188 23.1799 9.55346 23.2188 9.48206 23.3162L9.28735 23.1474C9.40418 22.9722 9.51452 22.9008 9.67678 22.9008Z" fill="#DA5107"/>
<path d="M7.72964 23.8744C7.95031 23.8744 8.12555 24.0042 8.2943 24.0042C8.37219 24.0042 8.43061 23.9653 8.502 23.8679L8.71619 24.0367C8.59936 24.2119 8.46955 24.2833 8.30729 24.2833C8.0931 24.2833 7.89839 24.1535 7.74911 24.1535C7.66473 24.1535 7.60632 24.1924 7.53492 24.2898L7.34021 24.121C7.45704 23.9458 7.56738 23.8744 7.72964 23.8744Z" fill="#DA5107"/>
<path d="M5.78255 22.9008C6.00323 22.9008 6.17847 23.0306 6.34722 23.0306C6.42511 23.0306 6.48353 22.9916 6.55492 22.8943L6.7691 23.063C6.65228 23.2383 6.52247 23.3097 6.36021 23.3097C6.14602 23.3097 5.95131 23.1799 5.80203 23.1799C5.71765 23.1799 5.65923 23.2188 5.58784 23.3162L5.39313 23.1474C5.50996 22.9722 5.62029 22.9008 5.78255 22.9008Z" fill="#DA5107"/>
<path d="M7.72964 21.9274C7.95031 21.9274 8.12555 22.0572 8.2943 22.0572C8.37219 22.0572 8.43061 22.0183 8.502 21.9209L8.71619 22.0896C8.59936 22.2649 8.46955 22.3363 8.30729 22.3363C8.0931 22.3363 7.89839 22.2065 7.74911 22.2065C7.66473 22.2065 7.60632 22.2454 7.53492 22.3428L7.34021 22.174C7.45704 21.9988 7.56738 21.9274 7.72964 21.9274Z" fill="#DA5107"/>
<path d="M9.67678 28.7423C9.89746 28.7423 10.0727 28.8721 10.2414 28.8721C10.3193 28.8721 10.3778 28.8332 10.4491 28.7358L10.6633 28.9046C10.5465 29.0798 10.4167 29.1512 10.2544 29.1512C10.0402 29.1512 9.84553 29.0214 9.69625 29.0214C9.61188 29.0214 9.55346 29.0604 9.48206 29.1577L9.28735 28.989C9.40418 28.8137 9.51452 28.7423 9.67678 28.7423Z" fill="#DA5107"/>
<path d="M7.72964 29.716C7.95031 29.716 8.12555 29.8458 8.2943 29.8458C8.37219 29.8458 8.43061 29.8068 8.502 29.7095L8.71619 29.8782C8.59936 30.0535 8.46955 30.1249 8.30729 30.1249C8.0931 30.1249 7.89839 29.9951 7.74911 29.9951C7.66473 29.9951 7.60632 30.034 7.53492 30.1314L7.34021 29.9626C7.45704 29.7874 7.56738 29.716 7.72964 29.716Z" fill="#DA5107"/>
<path d="M5.78255 28.7423C6.00323 28.7423 6.17847 28.8721 6.34722 28.8721C6.42511 28.8721 6.48353 28.8332 6.55492 28.7358L6.7691 28.9046C6.65228 29.0798 6.52247 29.1512 6.36021 29.1512C6.14602 29.1512 5.95131 29.0214 5.80203 29.0214C5.71765 29.0214 5.65923 29.0604 5.58784 29.1577L5.39313 28.989C5.50996 28.8137 5.62029 28.7423 5.78255 28.7423Z" fill="#DA5107"/>
<path d="M9.67678 26.7951C9.89746 26.7951 10.0727 26.9249 10.2414 26.9249C10.3193 26.9249 10.3778 26.8859 10.4491 26.7886L10.6633 26.9573C10.5465 27.1326 10.4167 27.204 10.2544 27.204C10.0402 27.204 9.84553 27.0742 9.69625 27.0742C9.61188 27.0742 9.55346 27.1131 9.48206 27.2105L9.28735 27.0417C9.40418 26.8665 9.51452 26.7951 9.67678 26.7951Z" fill="#DA5107"/>
<path d="M7.72964 27.7687C7.95031 27.7687 8.12555 27.8985 8.2943 27.8985C8.37219 27.8985 8.43061 27.8596 8.502 27.7622L8.71619 27.931C8.59936 28.1062 8.46955 28.1776 8.30729 28.1776C8.0931 28.1776 7.89839 28.0478 7.74911 28.0478C7.66473 28.0478 7.60632 28.0867 7.53492 28.1841L7.34021 28.0153C7.45704 27.8401 7.56738 27.7687 7.72964 27.7687Z" fill="#DA5107"/>
<path d="M5.78255 26.7951C6.00323 26.7951 6.17847 26.9249 6.34722 26.9249C6.42511 26.9249 6.48353 26.8859 6.55492 26.7886L6.7691 26.9573C6.65228 27.1326 6.52247 27.204 6.36021 27.204C6.14602 27.204 5.95131 27.0742 5.80203 27.0742C5.71765 27.0742 5.65923 27.1131 5.58784 27.2105L5.39313 27.0417C5.50996 26.8665 5.62029 26.7951 5.78255 26.7951Z" fill="#DA5107"/>
<path d="M7.72964 25.8217C7.95031 25.8217 8.12555 25.9515 8.2943 25.9515C8.37219 25.9515 8.43061 25.9125 8.502 25.8152L8.71619 25.9839C8.59936 26.1592 8.46955 26.2306 8.30729 26.2306C8.0931 26.2306 7.89839 26.1008 7.74911 26.1008C7.66473 26.1008 7.60632 26.1397 7.53492 26.2371L7.34021 26.0683C7.45704 25.8931 7.56738 25.8217 7.72964 25.8217Z" fill="#DA5107"/>
<path d="M9.67678 32.6366C9.89746 32.6366 10.0727 32.7664 10.2414 32.7664C10.3193 32.7664 10.3778 32.7275 10.4491 32.6301L10.6633 32.7989C10.5465 32.9741 10.4167 33.0455 10.2544 33.0455C10.0402 33.0455 9.84553 32.9157 9.69625 32.9157C9.61188 32.9157 9.55346 32.9546 9.48206 33.052L9.28735 32.8833C9.40418 32.708 9.51452 32.6366 9.67678 32.6366Z" fill="#DA5107"/>
<path d="M7.72964 33.6102C7.95031 33.6102 8.12555 33.7401 8.2943 33.7401C8.37219 33.7401 8.43061 33.7011 8.502 33.6038L8.71619 33.7725C8.59936 33.9478 8.46955 34.0192 8.30729 34.0192C8.0931 34.0192 7.89839 33.8893 7.74911 33.8893C7.66473 33.8893 7.60632 33.9283 7.53492 34.0256L7.34021 33.8569C7.45704 33.6816 7.56738 33.6102 7.72964 33.6102Z" fill="#DA5107"/>
<path d="M5.78255 32.6366C6.00323 32.6366 6.17847 32.7664 6.34722 32.7664C6.42511 32.7664 6.48353 32.7275 6.55492 32.6301L6.7691 32.7989C6.65228 32.9741 6.52247 33.0455 6.36021 33.0455C6.14602 33.0455 5.95131 32.9157 5.80203 32.9157C5.71765 32.9157 5.65923 32.9546 5.58784 33.052L5.39313 32.8833C5.50996 32.708 5.62029 32.6366 5.78255 32.6366Z" fill="#DA5107"/>
<path d="M9.67678 30.6894C9.89746 30.6894 10.0727 30.8192 10.2414 30.8192C10.3193 30.8192 10.3778 30.7802 10.4491 30.6829L10.6633 30.8516C10.5465 31.0269 10.4167 31.0983 10.2544 31.0983C10.0402 31.0983 9.84553 30.9684 9.69625 30.9684C9.61188 30.9684 9.55346 31.0074 9.48206 31.1047L9.28735 30.936C9.40418 30.7607 9.51452 30.6894 9.67678 30.6894Z" fill="#DA5107"/>
<path d="M7.72964 31.663C7.95031 31.663 8.12555 31.7928 8.2943 31.7928C8.37219 31.7928 8.43061 31.7539 8.502 31.6565L8.71619 31.8252C8.59936 32.0005 8.46955 32.0719 8.30729 32.0719C8.0931 32.0719 7.89839 31.9421 7.74911 31.9421C7.66473 31.9421 7.60632 31.981 7.53492 32.0784L7.34021 31.9096C7.45704 31.7344 7.56738 31.663 7.72964 31.663Z" fill="#DA5107"/>
<path d="M5.78255 30.6894C6.00323 30.6894 6.17847 30.8192 6.34722 30.8192C6.42511 30.8192 6.48353 30.7802 6.55492 30.6829L6.7691 30.8516C6.65228 31.0269 6.52247 31.0983 6.36021 31.0983C6.14602 31.0983 5.95131 30.9684 5.80203 30.9684C5.71765 30.9684 5.65923 31.0074 5.58784 31.1047L5.39313 30.936C5.50996 30.7607 5.62029 30.6894 5.78255 30.6894Z" fill="#DA5107"/>
<path d="M7.72964 29.716C7.95031 29.716 8.12555 29.8458 8.2943 29.8458C8.37219 29.8458 8.43061 29.8068 8.502 29.7095L8.71619 29.8782C8.59936 30.0535 8.46955 30.1249 8.30729 30.1249C8.0931 30.1249 7.89839 29.9951 7.74911 29.9951C7.66473 29.9951 7.60632 30.034 7.53492 30.1314L7.34021 29.9626C7.45704 29.7874 7.56738 29.716 7.72964 29.716Z" fill="#DA5107"/>
<path d="M9.67678 36.5309C9.89746 36.5309 10.0727 36.6607 10.2414 36.6607C10.3193 36.6607 10.3778 36.6218 10.4491 36.5244L10.6633 36.6932C10.5465 36.8684 10.4167 36.9398 10.2544 36.9398C10.0402 36.9398 9.84553 36.81 9.69625 36.81C9.61188 36.81 9.55346 36.8489 9.48206 36.9463L9.28735 36.7775C9.40418 36.6023 9.51452 36.5309 9.67678 36.5309Z" fill="#DA5107"/>
<path d="M7.72964 37.5045C7.95031 37.5045 8.12555 37.6343 8.2943 37.6343C8.37219 37.6343 8.43061 37.5954 8.502 37.498L8.71619 37.6668C8.59936 37.842 8.46955 37.9134 8.30729 37.9134C8.0931 37.9134 7.89839 37.7836 7.74911 37.7836C7.66473 37.7836 7.60632 37.8226 7.53492 37.9199L7.34021 37.7512C7.45704 37.5759 7.56738 37.5045 7.72964 37.5045Z" fill="#DA5107"/>
<path d="M5.78255 36.5309C6.00323 36.5309 6.17847 36.6607 6.34722 36.6607C6.42511 36.6607 6.48353 36.6218 6.55492 36.5244L6.7691 36.6932C6.65228 36.8684 6.52247 36.9398 6.36021 36.9398C6.14602 36.9398 5.95131 36.81 5.80203 36.81C5.71765 36.81 5.65923 36.8489 5.58784 36.9463L5.39313 36.7775C5.50996 36.6023 5.62029 36.5309 5.78255 36.5309Z" fill="#DA5107"/>
<path d="M9.67678 34.5836C9.89746 34.5836 10.0727 34.7134 10.2414 34.7134C10.3193 34.7134 10.3778 34.6745 10.4491 34.5771L10.6633 34.7459C10.5465 34.9211 10.4167 34.9925 10.2544 34.9925C10.0402 34.9925 9.84553 34.8627 9.69625 34.8627C9.61188 34.8627 9.55346 34.9017 9.48206 34.999L9.28735 34.8303C9.40418 34.655 9.51452 34.5836 9.67678 34.5836Z" fill="#DA5107"/>
<path d="M7.72964 35.5573C7.95031 35.5573 8.12555 35.6871 8.2943 35.6871C8.37219 35.6871 8.43061 35.6481 8.502 35.5508L8.71619 35.7195C8.59936 35.8948 8.46955 35.9662 8.30729 35.9662C8.0931 35.9662 7.89839 35.8364 7.74911 35.8364C7.66473 35.8364 7.60632 35.8753 7.53492 35.9727L7.34021 35.8039C7.45704 35.6287 7.56738 35.5573 7.72964 35.5573Z" fill="#DA5107"/>
<path d="M5.78255 34.5836C6.00323 34.5836 6.17847 34.7134 6.34722 34.7134C6.42511 34.7134 6.48353 34.6745 6.55492 34.5771L6.7691 34.7459C6.65228 34.9211 6.52247 34.9925 6.36021 34.9925C6.14602 34.9925 5.95131 34.8627 5.80203 34.8627C5.71765 34.8627 5.65923 34.9017 5.58784 34.999L5.39313 34.8303C5.50996 34.655 5.62029 34.5836 5.78255 34.5836Z" fill="#DA5107"/>
<path d="M7.72964 33.6102C7.95031 33.6102 8.12555 33.7401 8.2943 33.7401C8.37219 33.7401 8.43061 33.7011 8.502 33.6038L8.71619 33.7725C8.59936 33.9478 8.46955 34.0192 8.30729 34.0192C8.0931 34.0192 7.89839 33.8893 7.74911 33.8893C7.66473 33.8893 7.60632 33.9283 7.53492 34.0256L7.34021 33.8569C7.45704 33.6816 7.56738 33.6102 7.72964 33.6102Z" fill="#DA5107"/>
<path d="M5.78255 13.1652C6.00323 13.1652 6.17847 13.295 6.34722 13.295C6.42511 13.295 6.48353 13.256 6.55492 13.1587L6.7691 13.3274C6.65228 13.5027 6.52247 13.5741 6.36021 13.5741C6.14602 13.5741 5.95131 13.4443 5.80203 13.4443C5.71765 13.4443 5.65923 13.4832 5.58784 13.5806L5.39313 13.4118C5.50996 13.2366 5.62029 13.1652 5.78255 13.1652Z" fill="#DA5107"/>
<path d="M3.83535 14.1388C4.05603 14.1388 4.23127 14.2686 4.40002 14.2686C4.4779 14.2686 4.53632 14.2297 4.60772 14.1323L4.8219 14.3011C4.70507 14.4763 4.57526 14.5477 4.413 14.5477C4.19882 14.5477 4.0041 14.4179 3.85482 14.4179C3.77044 14.4179 3.71203 14.4568 3.64063 14.5542L3.44592 14.3855C3.56275 14.2102 3.67309 14.1388 3.83535 14.1388Z" fill="#DA5107"/>
<path d="M3.83535 12.1915C4.05603 12.1915 4.23127 12.3214 4.40002 12.3214C4.4779 12.3214 4.53632 12.2824 4.60772 12.1851L4.8219 12.3538C4.70507 12.5291 4.57526 12.6004 4.413 12.6004C4.19882 12.6004 4.0041 12.4706 3.85482 12.4706C3.77044 12.4706 3.71203 12.5096 3.64063 12.6069L3.44592 12.4382C3.56275 12.2629 3.67309 12.1915 3.83535 12.1915Z" fill="#DA5107"/>
<path d="M5.78255 17.0595C6.00323 17.0595 6.17847 17.1893 6.34722 17.1893C6.42511 17.1893 6.48353 17.1503 6.55492 17.053L6.7691 17.2217C6.65228 17.397 6.52247 17.4684 6.36021 17.4684C6.14602 17.4684 5.95131 17.3386 5.80203 17.3386C5.71765 17.3386 5.65923 17.3775 5.58784 17.4749L5.39313 17.3061C5.50996 17.1309 5.62029 17.0595 5.78255 17.0595Z" fill="#DA5107"/>
<path d="M3.83535 18.0331C4.05603 18.0331 4.23127 18.1629 4.40002 18.1629C4.4779 18.1629 4.53632 18.124 4.60772 18.0266L4.8219 18.1954C4.70507 18.3706 4.57526 18.442 4.413 18.442C4.19882 18.442 4.0041 18.3122 3.85482 18.3122C3.77044 18.3122 3.71203 18.3511 3.64063 18.4485L3.44592 18.2797C3.56275 18.1045 3.67309 18.0331 3.83535 18.0331Z" fill="#DA5107"/>
<path d="M5.78255 15.1122C6.00323 15.1122 6.17847 15.242 6.34722 15.242C6.42511 15.242 6.48353 15.2031 6.55492 15.1057L6.7691 15.2745C6.65228 15.4497 6.52247 15.5211 6.36021 15.5211C6.14602 15.5211 5.95131 15.3913 5.80203 15.3913C5.71765 15.3913 5.65923 15.4302 5.58784 15.5276L5.39313 15.3588C5.50996 15.1836 5.62029 15.1122 5.78255 15.1122Z" fill="#DA5107"/>
<path d="M3.83535 16.0858C4.05603 16.0858 4.23127 16.2156 4.40002 16.2156C4.4779 16.2156 4.53632 16.1767 4.60772 16.0793L4.8219 16.2481C4.70507 16.4233 4.57526 16.4947 4.413 16.4947C4.19882 16.4947 4.0041 16.3649 3.85482 16.3649C3.77044 16.3649 3.71203 16.4039 3.64063 16.5012L3.44592 16.3325C3.56275 16.1572 3.67309 16.0858 3.83535 16.0858Z" fill="#DA5107"/>
<path d="M3.83535 14.1388C4.05603 14.1388 4.23127 14.2686 4.40002 14.2686C4.4779 14.2686 4.53632 14.2297 4.60772 14.1323L4.8219 14.3011C4.70507 14.4763 4.57526 14.5477 4.413 14.5477C4.19882 14.5477 4.0041 14.4179 3.85482 14.4179C3.77044 14.4179 3.71203 14.4568 3.64063 14.5542L3.44592 14.3855C3.56275 14.2102 3.67309 14.1388 3.83535 14.1388Z" fill="#DA5107"/>
<path d="M5.78256 20.9538C6.00323 20.9538 6.17847 21.0836 6.34722 21.0836C6.42511 21.0836 6.48353 21.0446 6.55492 20.9473L6.76911 21.116C6.65228 21.2913 6.52247 21.3627 6.36021 21.3627C6.14602 21.3627 5.95131 21.2328 5.80203 21.2328C5.71765 21.2328 5.65923 21.2718 5.58784 21.3691L5.39313 21.2004C5.50996 21.0252 5.62029 20.9538 5.78256 20.9538Z" fill="#DA5107"/>
<path d="M3.83535 21.9274C4.05603 21.9274 4.23127 22.0572 4.40002 22.0572C4.4779 22.0572 4.53632 22.0183 4.60772 21.9209L4.8219 22.0897C4.70507 22.2649 4.57526 22.3363 4.413 22.3363C4.19882 22.3363 4.0041 22.2065 3.85482 22.2065C3.77044 22.2065 3.71203 22.2454 3.64063 22.3428L3.44592 22.174C3.56275 21.9988 3.67309 21.9274 3.83535 21.9274Z" fill="#DA5107"/>
<path d="M5.78256 19.0065C6.00323 19.0065 6.17847 19.1363 6.34722 19.1363C6.42511 19.1363 6.48353 19.0974 6.55492 19L6.76911 19.1688C6.65228 19.344 6.52247 19.4154 6.36021 19.4154C6.14602 19.4154 5.95131 19.2856 5.80203 19.2856C5.71765 19.2856 5.65923 19.3245 5.58784 19.4219L5.39313 19.2531C5.50996 19.0779 5.62029 19.0065 5.78256 19.0065Z" fill="#DA5107"/>
<path d="M3.83535 19.9801C4.05603 19.9801 4.23127 20.1099 4.40002 20.1099C4.4779 20.1099 4.53632 20.071 4.60772 19.9736L4.8219 20.1424C4.70507 20.3176 4.57526 20.389 4.413 20.389C4.19882 20.389 4.0041 20.2592 3.85482 20.2592C3.77044 20.2592 3.71203 20.2982 3.64063 20.3955L3.44592 20.2268C3.56275 20.0515 3.67309 19.9801 3.83535 19.9801Z" fill="#DA5107"/>
<path d="M3.83535 18.0331C4.05603 18.0331 4.23127 18.1629 4.40002 18.1629C4.4779 18.1629 4.53632 18.124 4.60772 18.0266L4.8219 18.1954C4.70507 18.3706 4.57526 18.442 4.413 18.442C4.19882 18.442 4.0041 18.3122 3.85482 18.3122C3.77044 18.3122 3.71203 18.3511 3.64063 18.4485L3.44592 18.2797C3.56275 18.1045 3.67309 18.0331 3.83535 18.0331Z" fill="#DA5107"/>
<path d="M5.78256 24.848C6.00323 24.848 6.17847 24.9779 6.34722 24.9779C6.42511 24.9779 6.48353 24.9389 6.55492 24.8416L6.76911 25.0103C6.65228 25.1855 6.52247 25.2569 6.36021 25.2569C6.14602 25.2569 5.95131 25.1271 5.80203 25.1271C5.71765 25.1271 5.65923 25.1661 5.58784 25.2634L5.39313 25.0947C5.50996 24.9194 5.62029 24.848 5.78256 24.848Z" fill="#DA5107"/>
<path d="M3.83535 25.8217C4.05603 25.8217 4.23127 25.9515 4.40002 25.9515C4.4779 25.9515 4.53632 25.9125 4.60772 25.8152L4.8219 25.9839C4.70507 26.1592 4.57526 26.2306 4.413 26.2306C4.19882 26.2306 4.0041 26.1008 3.85482 26.1008C3.77044 26.1008 3.71203 26.1397 3.64063 26.2371L3.44592 26.0683C3.56275 25.8931 3.67309 25.8217 3.83535 25.8217Z" fill="#DA5107"/>
<path d="M5.78256 22.9008C6.00323 22.9008 6.17847 23.0306 6.34722 23.0306C6.42511 23.0306 6.48353 22.9916 6.55492 22.8943L6.76911 23.063C6.65228 23.2383 6.52247 23.3097 6.36021 23.3097C6.14602 23.3097 5.95131 23.1799 5.80203 23.1799C5.71765 23.1799 5.65923 23.2188 5.58784 23.3162L5.39313 23.1474C5.50996 22.9722 5.62029 22.9008 5.78256 22.9008Z" fill="#DA5107"/>
<path d="M3.83535 23.8744C4.05603 23.8744 4.23127 24.0042 4.40002 24.0042C4.4779 24.0042 4.53632 23.9653 4.60772 23.8679L4.8219 24.0367C4.70507 24.2119 4.57526 24.2833 4.413 24.2833C4.19882 24.2833 4.0041 24.1535 3.85482 24.1535C3.77044 24.1535 3.71203 24.1924 3.64063 24.2898L3.44592 24.121C3.56275 23.9458 3.67309 23.8744 3.83535 23.8744Z" fill="#DA5107"/>
<path d="M3.83535 21.9274C4.05603 21.9274 4.23127 22.0572 4.40002 22.0572C4.4779 22.0572 4.53632 22.0183 4.60772 21.9209L4.8219 22.0896C4.70507 22.2649 4.57526 22.3363 4.413 22.3363C4.19882 22.3363 4.0041 22.2065 3.85482 22.2065C3.77044 22.2065 3.71203 22.2454 3.64063 22.3428L3.44592 22.174C3.56275 21.9988 3.67309 21.9274 3.83535 21.9274Z" fill="#DA5107"/>
<path d="M5.78256 28.7423C6.00323 28.7423 6.17847 28.8721 6.34722 28.8721C6.42511 28.8721 6.48353 28.8332 6.55492 28.7358L6.76911 28.9046C6.65228 29.0798 6.52247 29.1512 6.36021 29.1512C6.14602 29.1512 5.95131 29.0214 5.80203 29.0214C5.71765 29.0214 5.65923 29.0604 5.58784 29.1577L5.39313 28.989C5.50996 28.8137 5.62029 28.7423 5.78256 28.7423Z" fill="#DA5107"/>
<path d="M3.83535 29.716C4.05603 29.716 4.23127 29.8458 4.40002 29.8458C4.4779 29.8458 4.53632 29.8068 4.60772 29.7095L4.8219 29.8782C4.70507 30.0535 4.57526 30.1249 4.413 30.1249C4.19882 30.1249 4.0041 29.9951 3.85482 29.9951C3.77044 29.9951 3.71203 30.034 3.64063 30.1314L3.44592 29.9626C3.56275 29.7874 3.67309 29.716 3.83535 29.716Z" fill="#DA5107"/>
<path d="M5.78256 26.7951C6.00323 26.7951 6.17847 26.9249 6.34722 26.9249C6.42511 26.9249 6.48353 26.8859 6.55492 26.7886L6.76911 26.9573C6.65228 27.1326 6.52247 27.204 6.36021 27.204C6.14602 27.204 5.95131 27.0742 5.80203 27.0742C5.71765 27.0742 5.65923 27.1131 5.58784 27.2105L5.39313 27.0417C5.50996 26.8665 5.62029 26.7951 5.78256 26.7951Z" fill="#DA5107"/>
<path d="M3.83535 27.7687C4.05603 27.7687 4.23127 27.8985 4.40002 27.8985C4.4779 27.8985 4.53632 27.8596 4.60772 27.7622L4.8219 27.931C4.70507 28.1062 4.57526 28.1776 4.413 28.1776C4.19882 28.1776 4.0041 28.0478 3.85482 28.0478C3.77044 28.0478 3.71203 28.0867 3.64063 28.1841L3.44592 28.0153C3.56275 27.8401 3.67309 27.7687 3.83535 27.7687Z" fill="#DA5107"/>
<path d="M3.83535 25.8217C4.05603 25.8217 4.23127 25.9515 4.40002 25.9515C4.4779 25.9515 4.53632 25.9125 4.60772 25.8152L4.8219 25.9839C4.70507 26.1592 4.57526 26.2306 4.413 26.2306C4.19882 26.2306 4.0041 26.1008 3.85482 26.1008C3.77044 26.1008 3.71203 26.1397 3.64063 26.2371L3.44592 26.0683C3.56275 25.8931 3.67309 25.8217 3.83535 25.8217Z" fill="#DA5107"/>
<path d="M5.78256 32.6366C6.00323 32.6366 6.17847 32.7664 6.34722 32.7664C6.42511 32.7664 6.48353 32.7275 6.55492 32.6301L6.76911 32.7989C6.65228 32.9741 6.52247 33.0455 6.36021 33.0455C6.14602 33.0455 5.95131 32.9157 5.80203 32.9157C5.71765 32.9157 5.65923 32.9546 5.58784 33.052L5.39313 32.8833C5.50996 32.708 5.62029 32.6366 5.78256 32.6366Z" fill="#DA5107"/>
<path d="M3.83535 33.6102C4.05603 33.6102 4.23127 33.7401 4.40002 33.7401C4.4779 33.7401 4.53632 33.7011 4.60772 33.6038L4.8219 33.7725C4.70507 33.9478 4.57526 34.0192 4.413 34.0192C4.19882 34.0192 4.0041 33.8893 3.85482 33.8893C3.77044 33.8893 3.71203 33.9283 3.64063 34.0256L3.44592 33.8569C3.56275 33.6816 3.67309 33.6102 3.83535 33.6102Z" fill="#DA5107"/>
<path d="M5.78256 30.6894C6.00323 30.6894 6.17847 30.8192 6.34722 30.8192C6.42511 30.8192 6.48353 30.7802 6.55492 30.6829L6.76911 30.8516C6.65228 31.0269 6.52247 31.0983 6.36021 31.0983C6.14602 31.0983 5.95131 30.9684 5.80203 30.9684C5.71765 30.9684 5.65923 31.0074 5.58784 31.1047L5.39313 30.936C5.50996 30.7607 5.62029 30.6894 5.78256 30.6894Z" fill="#DA5107"/>
<path d="M3.83535 31.663C4.05603 31.663 4.23127 31.7928 4.40002 31.7928C4.4779 31.7928 4.53632 31.7539 4.60772 31.6565L4.8219 31.8252C4.70507 32.0005 4.57526 32.0719 4.413 32.0719C4.19882 32.0719 4.0041 31.9421 3.85482 31.9421C3.77044 31.9421 3.71203 31.981 3.64063 32.0784L3.44592 31.9096C3.56275 31.7344 3.67309 31.663 3.83535 31.663Z" fill="#DA5107"/>
<path d="M3.83535 29.716C4.05603 29.716 4.23127 29.8458 4.40002 29.8458C4.4779 29.8458 4.53632 29.8068 4.60772 29.7095L4.8219 29.8782C4.70507 30.0535 4.57526 30.1249 4.413 30.1249C4.19882 30.1249 4.0041 29.9951 3.85482 29.9951C3.77044 29.9951 3.71203 30.034 3.64063 30.1314L3.44592 29.9626C3.56275 29.7874 3.67309 29.716 3.83535 29.716Z" fill="#DA5107"/>
<path d="M5.78256 36.5309C6.00323 36.5309 6.17847 36.6607 6.34722 36.6607C6.42511 36.6607 6.48353 36.6218 6.55492 36.5244L6.76911 36.6932C6.65228 36.8684 6.52247 36.9398 6.36021 36.9398C6.14602 36.9398 5.95131 36.81 5.80203 36.81C5.71765 36.81 5.65923 36.8489 5.58784 36.9463L5.39313 36.7775C5.50996 36.6023 5.62029 36.5309 5.78256 36.5309Z" fill="#DA5107"/>
<path d="M3.83535 37.5045C4.05603 37.5045 4.23127 37.6343 4.40002 37.6343C4.4779 37.6343 4.53632 37.5954 4.60772 37.498L4.8219 37.6668C4.70507 37.842 4.57526 37.9134 4.413 37.9134C4.19882 37.9134 4.0041 37.7836 3.85482 37.7836C3.77044 37.7836 3.71203 37.8226 3.64063 37.9199L3.44592 37.7512C3.56275 37.5759 3.67309 37.5045 3.83535 37.5045Z" fill="#DA5107"/>
<path d="M5.78256 34.5836C6.00323 34.5836 6.17847 34.7134 6.34722 34.7134C6.42511 34.7134 6.48353 34.6745 6.55492 34.5771L6.76911 34.7459C6.65228 34.9211 6.52247 34.9925 6.36021 34.9925C6.14602 34.9925 5.95131 34.8627 5.80203 34.8627C5.71765 34.8627 5.65923 34.9017 5.58784 34.999L5.39313 34.8303C5.50996 34.655 5.62029 34.5836 5.78256 34.5836Z" fill="#DA5107"/>
<path d="M3.83535 35.5573C4.05603 35.5573 4.23127 35.6871 4.40002 35.6871C4.4779 35.6871 4.53632 35.6481 4.60772 35.5508L4.8219 35.7195C4.70507 35.8948 4.57526 35.9662 4.413 35.9662C4.19882 35.9662 4.0041 35.8364 3.85482 35.8364C3.77044 35.8364 3.71203 35.8753 3.64063 35.9727L3.44592 35.8039C3.56275 35.6287 3.67309 35.5573 3.83535 35.5573Z" fill="#DA5107"/>
<path d="M3.83535 33.6102C4.05603 33.6102 4.23127 33.7401 4.40002 33.7401C4.4779 33.7401 4.53632 33.7011 4.60772 33.6038L4.8219 33.7725C4.70507 33.9478 4.57526 34.0192 4.413 34.0192C4.19882 34.0192 4.0041 33.8893 3.85482 33.8893C3.77044 33.8893 3.71203 33.9283 3.64063 34.0256L3.44592 33.8569C3.56275 33.6816 3.67309 33.6102 3.83535 33.6102Z" fill="#DA5107"/>
</g>
</svg>
