<svg width="64" height="64" viewBox="0 0 64 64" fill="none" xmlns="http://www.w3.org/2000/svg">
<path d="M9.66362 21.0716L12.4574 19.3421L10.9808 39.7931L8.22779 42.9109L9.66362 21.0716Z" fill="#AFE8C2" stroke="#149A53" stroke-width="1.16865" stroke-linejoin="round"/>
<rect x="12.3774" y="18.8328" width="44.228" height="21.512" rx="1.3356" transform="rotate(3.65995 12.3774 18.8328)" fill="#AFE8C2" stroke="#149A53" stroke-width="1.16865"/>
<path d="M11.0502 39.9666L8.21657 43.0962L53.1679 45.49L55.1635 42.4532L11.0502 39.9666Z" fill="#3DD771" stroke="#149A53" stroke-width="1.0017" stroke-linejoin="round"/>
<mask id="mask0_1749_87753" style="mask-type:alpha" maskUnits="userSpaceOnUse" x="7" y="39" width="48" height="7">
<path d="M11.0487 39.9663L8.21505 43.0959L51.4492 45.4897L54.4323 42.5215L11.0487 39.9663Z" fill="#AFE8C2" stroke="#149A53" stroke-width="1.0017" stroke-linejoin="round"/>
</mask>
<g mask="url(#mask0_1749_87753)">
<path d="M5.98723 41.0771L7.8077 41.1936" stroke="#149A53" stroke-width="0.166951"/>
<path d="M8.1813 38.4866L8.0651 40.3033" stroke="#149A53" stroke-width="0.166951"/>
<path d="M7.21304 39.3369L9.03352 39.4534" stroke="#149A53" stroke-width="0.166951"/>
<path d="M7.94742 42.1143L7.83121 43.931" stroke="#149A53" stroke-width="0.166951"/>
<path d="M6.97916 42.9644L8.79963 43.0808" stroke="#149A53" stroke-width="0.166951"/>
<path d="M7.71355 45.7427L7.59734 47.5594" stroke="#149A53" stroke-width="0.166951"/>
<path d="M9.22173 40.3718L9.10552 42.1885" stroke="#149A53" stroke-width="0.166951"/>
<path d="M8.25346 41.2219L10.0739 41.3384" stroke="#149A53" stroke-width="0.166951"/>
<path d="M8.98785 43.9995L8.87165 45.8162" stroke="#149A53" stroke-width="0.166951"/>
<path d="M8.01959 44.8494L9.84007 44.9658" stroke="#149A53" stroke-width="0.166951"/>
<path d="M10.4474 38.6316L10.3312 40.4483" stroke="#149A53" stroke-width="0.166951"/>
<path d="M9.47916 39.4819L11.2996 39.5984" stroke="#149A53" stroke-width="0.166951"/>
<path d="M10.2177 42.2595L10.1015 44.0762" stroke="#149A53" stroke-width="0.166951"/>
<path d="M9.24944 43.1099L11.0699 43.2263" stroke="#149A53" stroke-width="0.166951"/>
<path d="M9.98383 45.8877L9.86762 47.7044" stroke="#149A53" stroke-width="0.166951"/>
<path d="M11.4919 40.5166L11.3757 42.3333" stroke="#149A53" stroke-width="0.166951"/>
<path d="M10.5236 41.3667L12.3441 41.4831" stroke="#149A53" stroke-width="0.166951"/>
<path d="M11.254 44.1445L11.1378 45.9612" stroke="#149A53" stroke-width="0.166951"/>
<path d="M10.2857 44.9951L12.1062 45.1116" stroke="#149A53" stroke-width="0.166951"/>
<path d="M12.7177 38.7764L12.6015 40.5931" stroke="#149A53" stroke-width="0.166951"/>
<path d="M11.7494 39.6267L13.5699 39.7432" stroke="#149A53" stroke-width="0.166951"/>
<path d="M12.4838 42.4048L12.3676 44.2215" stroke="#149A53" stroke-width="0.166951"/>
<path d="M11.5156 43.2544L13.336 43.3708" stroke="#149A53" stroke-width="0.166951"/>
<path d="M13.762 40.6619L13.6458 42.4786" stroke="#149A53" stroke-width="0.166951"/>
<path d="M12.7938 41.512L14.6142 41.6284" stroke="#149A53" stroke-width="0.166951"/>
<path d="M13.5282 44.29L13.4119 46.1068" stroke="#149A53" stroke-width="0.166951"/>
<path d="M12.5599 45.1404L14.3804 45.2568" stroke="#149A53" stroke-width="0.166951"/>
<path d="M14.9838 38.9216L14.8676 40.7383" stroke="#149A53" stroke-width="0.166951"/>
<path d="M14.0156 39.7717L15.836 39.8882" stroke="#149A53" stroke-width="0.166951"/>
<path d="M14.754 42.5498L14.6378 44.3665" stroke="#149A53" stroke-width="0.166951"/>
<path d="M13.7857 43.4001L15.6062 43.5166" stroke="#149A53" stroke-width="0.166951"/>
<path d="M16.0282 40.8071L15.9119 42.6238" stroke="#149A53" stroke-width="0.166951"/>
<path d="M15.0599 41.6575L16.8804 41.7739" stroke="#149A53" stroke-width="0.166951"/>
<path d="M15.7943 44.4351L15.6781 46.2518" stroke="#149A53" stroke-width="0.166951"/>
<path d="M14.826 45.2852L16.6465 45.4016" stroke="#149A53" stroke-width="0.166951"/>
<path d="M17.254 39.0667L17.1378 40.8834" stroke="#149A53" stroke-width="0.166951"/>
<path d="M16.2857 39.917L18.1062 40.0334" stroke="#149A53" stroke-width="0.166951"/>
<path d="M17.0241 42.6948L16.9079 44.5115" stroke="#149A53" stroke-width="0.166951"/>
<path d="M16.0559 43.5452L17.8763 43.6616" stroke="#149A53" stroke-width="0.166951"/>
<path d="M18.2943 40.9519L18.1781 42.7686" stroke="#149A53" stroke-width="0.166951"/>
<path d="M17.326 41.8022L19.1465 41.9187" stroke="#149A53" stroke-width="0.166951"/>
<path d="M18.0644 44.5803L17.9482 46.397" stroke="#149A53" stroke-width="0.166951"/>
<path d="M17.0962 45.4307L18.9166 45.5471" stroke="#149A53" stroke-width="0.166951"/>
<path d="M19.5241 39.2119L19.4079 41.0286" stroke="#149A53" stroke-width="0.166951"/>
<path d="M18.5559 40.0623L20.3763 40.1787" stroke="#149A53" stroke-width="0.166951"/>
<path d="M19.2943 42.8403L19.1781 44.657" stroke="#149A53" stroke-width="0.166951"/>
<path d="M18.326 43.6899L20.1465 43.8064" stroke="#149A53" stroke-width="0.166951"/>
<path d="M20.5644 41.0972L20.4482 42.9139" stroke="#149A53" stroke-width="0.166951"/>
<path d="M19.5962 41.9473L21.4166 42.0637" stroke="#149A53" stroke-width="0.166951"/>
<path d="M20.3346 44.7253L20.2184 46.5421" stroke="#149A53" stroke-width="0.166951"/>
<path d="M19.3663 45.5754L21.1868 45.6919" stroke="#149A53" stroke-width="0.166951"/>
<path d="M21.7943 39.3569L21.6781 41.1736" stroke="#149A53" stroke-width="0.166951"/>
<path d="M20.826 40.2073L22.6465 40.3237" stroke="#149A53" stroke-width="0.166951"/>
<path d="M21.5644 42.9849L21.4482 44.8016" stroke="#149A53" stroke-width="0.166951"/>
<path d="M20.5962 43.8352L22.4166 43.9516" stroke="#149A53" stroke-width="0.166951"/>
<path d="M22.8346 41.2427L22.7184 43.0594" stroke="#149A53" stroke-width="0.166951"/>
<path d="M21.8663 42.093L23.6868 42.2095" stroke="#149A53" stroke-width="0.166951"/>
<path d="M22.6047 44.8701L22.4885 46.6868" stroke="#149A53" stroke-width="0.166951"/>
<path d="M21.6365 45.7205L23.4569 45.8369" stroke="#149A53" stroke-width="0.166951"/>
<path d="M24.0644 39.502L23.9482 41.3187" stroke="#149A53" stroke-width="0.166951"/>
<path d="M23.0962 40.3523L24.9167 40.4687" stroke="#149A53" stroke-width="0.166951"/>
<path d="M23.8265 43.1299L23.7103 44.9466" stroke="#149A53" stroke-width="0.166951"/>
<path d="M22.8583 43.9802L24.6787 44.0967" stroke="#149A53" stroke-width="0.166951"/>
<path d="M25.3386 37.7595L25.2224 39.5762" stroke="#149A53" stroke-width="0.166951"/>
<path d="M25.1047 41.3875L24.9885 43.2042" stroke="#149A53" stroke-width="0.166951"/>
<path d="M24.1365 42.2375L25.9569 42.354" stroke="#149A53" stroke-width="0.166951"/>
<path d="M24.8708 45.0151L24.7546 46.8318" stroke="#149A53" stroke-width="0.166951"/>
<path d="M23.9026 45.8657L25.7231 45.9822" stroke="#149A53" stroke-width="0.166951"/>
<path d="M26.3265 39.6472L26.2103 41.4639" stroke="#149A53" stroke-width="0.166951"/>
<path d="M25.3583 40.4978L27.1787 40.6142" stroke="#149A53" stroke-width="0.166951"/>
<path d="M26.1007 43.2756L25.9845 45.0923" stroke="#149A53" stroke-width="0.166951"/>
<path d="M25.1324 44.126L26.9529 44.2424" stroke="#149A53" stroke-width="0.166951"/>
<path d="M27.6047 37.9043L27.4885 39.721" stroke="#149A53" stroke-width="0.166951"/>
<path d="M27.3708 41.5327L27.2546 43.3494" stroke="#149A53" stroke-width="0.166951"/>
<path d="M26.4026 42.3831L28.2231 42.4995" stroke="#149A53" stroke-width="0.166951"/>
<path d="M27.141 45.1609L27.0248 46.9776" stroke="#149A53" stroke-width="0.166951"/>
<path d="M26.1727 46.0112L27.9932 46.1277" stroke="#149A53" stroke-width="0.166951"/>
<path d="M28.6007 39.792L28.4845 41.6087" stroke="#149A53" stroke-width="0.166951"/>
<path d="M27.6324 40.6426L29.4529 40.759" stroke="#149A53" stroke-width="0.166951"/>
<path d="M28.3708 43.4199L28.2546 45.2366" stroke="#149A53" stroke-width="0.166951"/>
<path d="M27.4026 44.2703L29.2231 44.3867" stroke="#149A53" stroke-width="0.166951"/>
<path d="M29.8708 38.0498L29.7546 39.8665" stroke="#149A53" stroke-width="0.166951"/>
<path d="M29.6491 41.6777L29.5329 43.4944" stroke="#149A53" stroke-width="0.166951"/>
<path d="M28.6808 42.5283L30.5013 42.6448" stroke="#149A53" stroke-width="0.166951"/>
<path d="M29.4111 45.3062L29.2949 47.1229" stroke="#149A53" stroke-width="0.166951"/>
<path d="M30.8708 39.9377L30.7546 41.7545" stroke="#149A53" stroke-width="0.166951"/>
<path d="M29.9026 40.7881L31.7231 40.9045" stroke="#149A53" stroke-width="0.166951"/>
<path d="M30.637 43.5657L30.5208 45.3824" stroke="#149A53" stroke-width="0.166951"/>
<path d="M29.6687 44.416L31.4892 44.5325" stroke="#149A53" stroke-width="0.166951"/>
<path d="M32.1491 38.1948L32.0329 40.0115" stroke="#149A53" stroke-width="0.166951"/>
<path d="M31.9112 41.823L31.7949 43.6397" stroke="#149A53" stroke-width="0.166951"/>
<path d="M30.9429 42.6733L32.7634 42.7898" stroke="#149A53" stroke-width="0.166951"/>
<path d="M31.6813 45.4504L31.5651 47.2671" stroke="#149A53" stroke-width="0.166951"/>
<path d="M33.141 40.0828L33.0248 41.8995" stroke="#149A53" stroke-width="0.166951"/>
<path d="M32.1727 40.9329L33.9932 41.0493" stroke="#149A53" stroke-width="0.166951"/>
<path d="M32.9112 43.7112L32.795 45.5279" stroke="#149A53" stroke-width="0.166951"/>
<path d="M31.9429 44.5615L33.7634 44.678" stroke="#149A53" stroke-width="0.166951"/>
<path d="M34.4111 38.3398L34.2949 40.1566" stroke="#149A53" stroke-width="0.166951"/>
<path d="M34.1813 41.9675L34.0651 43.7842" stroke="#149A53" stroke-width="0.166951"/>
<path d="M33.2131 42.8179L35.0335 42.9343" stroke="#149A53" stroke-width="0.166951"/>
<path d="M33.9474 45.5959L33.8312 47.4127" stroke="#149A53" stroke-width="0.166951"/>
<path d="M35.4071 40.2275L35.2909 42.0443" stroke="#149A53" stroke-width="0.166951"/>
<path d="M34.4389 41.0779L36.2593 41.1943" stroke="#149A53" stroke-width="0.166951"/>
<path d="M35.1732 43.8557L35.057 45.6724" stroke="#149A53" stroke-width="0.166951"/>
<path d="M34.205 44.7061L36.0255 44.8225" stroke="#149A53" stroke-width="0.166951"/>
<path d="M36.6813 38.4854L36.5651 40.3021" stroke="#149A53" stroke-width="0.166951"/>
<path d="M35.7131 39.3354L37.5335 39.4519" stroke="#149A53" stroke-width="0.166951"/>
<path d="M36.4474 42.1128L36.3312 43.9295" stroke="#149A53" stroke-width="0.166951"/>
<path d="M35.4792 42.9631L37.2996 43.0796" stroke="#149A53" stroke-width="0.166951"/>
<path d="M36.2135 45.7412L36.0973 47.5579" stroke="#149A53" stroke-width="0.166951"/>
<path d="M37.6732 40.3726L37.557 42.1893" stroke="#149A53" stroke-width="0.166951"/>
<path d="M36.705 41.2229L38.5255 41.3393" stroke="#149A53" stroke-width="0.166951"/>
<path d="M37.4474 44.001L37.3312 45.8177" stroke="#149A53" stroke-width="0.166951"/>
<path d="M36.4792 44.8513L38.2996 44.9678" stroke="#149A53" stroke-width="0.166951"/>
<path d="M38.9474 38.6299L38.8312 40.4466" stroke="#149A53" stroke-width="0.166951"/>
<path d="M37.9792 39.4805L39.7996 39.5969" stroke="#149A53" stroke-width="0.166951"/>
<path d="M38.7135 42.2581L38.5973 44.0748" stroke="#149A53" stroke-width="0.166951"/>
<path d="M37.7453 43.1084L39.5658 43.2248" stroke="#149A53" stroke-width="0.166951"/>
<path d="M38.4798 45.8867L38.3636 47.7034" stroke="#149A53" stroke-width="0.166951"/>
<path d="M39.9474 40.5183L39.8312 42.335" stroke="#149A53" stroke-width="0.166951"/>
<path d="M38.9792 41.3684L40.7996 41.4849" stroke="#149A53" stroke-width="0.166951"/>
<path d="M39.7135 44.1462L39.5973 45.963" stroke="#149A53" stroke-width="0.166951"/>
<path d="M38.7453 44.9963L40.5658 45.1128" stroke="#149A53" stroke-width="0.166951"/>
<path d="M41.2177 38.7754L41.1015 40.5921" stroke="#149A53" stroke-width="0.166951"/>
<path d="M40.2494 39.626L42.0699 39.7424" stroke="#149A53" stroke-width="0.166951"/>
<path d="M40.9838 42.4033L40.8676 44.22" stroke="#149A53" stroke-width="0.166951"/>
<path d="M40.0156 43.2537L41.836 43.3701" stroke="#149A53" stroke-width="0.166951"/>
<path d="M42.2135 40.6631L42.0973 42.4798" stroke="#149A53" stroke-width="0.166951"/>
<path d="M41.2453 41.5134L43.0658 41.6299" stroke="#149A53" stroke-width="0.166951"/>
<path d="M41.9798 44.2915L41.8636 46.1082" stroke="#149A53" stroke-width="0.166951"/>
<path d="M41.0115 45.1414L42.832 45.2578" stroke="#149A53" stroke-width="0.166951"/>
<path d="M43.4838 38.9207L43.3676 40.7374" stroke="#149A53" stroke-width="0.166951"/>
<path d="M42.5156 39.7708L44.336 39.8872" stroke="#149A53" stroke-width="0.166951"/>
<path d="M43.254 42.5486L43.1378 44.3653" stroke="#149A53" stroke-width="0.166951"/>
<path d="M42.2857 43.3989L44.1062 43.5154" stroke="#149A53" stroke-width="0.166951"/>
<path d="M44.4798 40.8086L44.3636 42.6253" stroke="#149A53" stroke-width="0.166951"/>
<path d="M43.5115 41.6587L45.332 41.7751" stroke="#149A53" stroke-width="0.166951"/>
<path d="M44.2499 44.4365L44.1337 46.2532" stroke="#149A53" stroke-width="0.166951"/>
<path d="M43.2817 45.2866L45.1022 45.4031" stroke="#149A53" stroke-width="0.166951"/>
<path d="M45.754 39.0659L45.6378 40.8826" stroke="#149A53" stroke-width="0.166951"/>
<path d="M44.7857 39.916L46.6062 40.0325" stroke="#149A53" stroke-width="0.166951"/>
<path d="M45.5201 42.6934L45.4039 44.5101" stroke="#149A53" stroke-width="0.166951"/>
<path d="M44.5518 43.5437L46.3723 43.6601" stroke="#149A53" stroke-width="0.166951"/>
<path d="M46.7499 40.9534L46.6337 42.7701" stroke="#149A53" stroke-width="0.166951"/>
<path d="M45.7817 41.8035L47.6022 41.9199" stroke="#149A53" stroke-width="0.166951"/>
<path d="M46.5161 44.5815L46.3999 46.3983" stroke="#149A53" stroke-width="0.166951"/>
<path d="M45.5478 45.4319L47.3683 45.5483" stroke="#149A53" stroke-width="0.166951"/>
<path d="M48.0241 39.2112L47.9079 41.0279" stroke="#149A53" stroke-width="0.166951"/>
<path d="M47.0559 40.0615L48.8763 40.178" stroke="#149A53" stroke-width="0.166951"/>
<path d="M47.7943 42.8389L47.6781 44.6556" stroke="#149A53" stroke-width="0.166951"/>
<path d="M46.826 43.6892L48.6465 43.8057" stroke="#149A53" stroke-width="0.166951"/>
<path d="M49.0201 41.0984L48.9039 42.9151" stroke="#149A53" stroke-width="0.166951"/>
<path d="M48.0518 41.9487L49.8723 42.0652" stroke="#149A53" stroke-width="0.166951"/>
<path d="M48.7862 44.7268L48.67 46.5435" stroke="#149A53" stroke-width="0.166951"/>
<path d="M47.818 45.5771L49.6384 45.6936" stroke="#149A53" stroke-width="0.166951"/>
<path d="M50.2943 39.3557L50.1781 41.1724" stroke="#149A53" stroke-width="0.166951"/>
<path d="M49.326 40.2058L51.1465 40.3223" stroke="#149A53" stroke-width="0.166951"/>
<path d="M50.0644 42.9836L49.9482 44.8004" stroke="#149A53" stroke-width="0.166951"/>
<path d="M49.0962 43.834L50.9166 43.9504" stroke="#149A53" stroke-width="0.166951"/>
<path d="M51.2862 41.2439L51.17 43.0606" stroke="#149A53" stroke-width="0.166951"/>
<path d="M50.318 42.094L52.1384 42.2104" stroke="#149A53" stroke-width="0.166951"/>
<path d="M51.0564 44.8713L50.9402 46.6881" stroke="#149A53" stroke-width="0.166951"/>
<path d="M50.0881 45.7217L51.9086 45.8381" stroke="#149A53" stroke-width="0.166951"/>
<path d="M52.5644 39.501L52.4482 41.3177" stroke="#149A53" stroke-width="0.166951"/>
<path d="M51.5962 40.3511L53.4166 40.4675" stroke="#149A53" stroke-width="0.166951"/>
<path d="M52.3265 43.1292L52.2103 44.9459" stroke="#149A53" stroke-width="0.166951"/>
<path d="M51.3583 43.9795L53.1787 44.0959" stroke="#149A53" stroke-width="0.166951"/>
<path d="M53.7862 37.7607L53.67 39.5775" stroke="#149A53" stroke-width="0.166951"/>
<path d="M53.5564 41.3887L53.4402 43.2054" stroke="#149A53" stroke-width="0.166951"/>
<path d="M52.5881 42.239L54.4086 42.3555" stroke="#149A53" stroke-width="0.166951"/>
<path d="M53.3265 45.0166L53.2103 46.8333" stroke="#149A53" stroke-width="0.166951"/>
<path d="M52.3583 45.8669L54.1787 45.9834" stroke="#149A53" stroke-width="0.166951"/>
<path d="M54.8265 39.646L54.7103 41.4627" stroke="#149A53" stroke-width="0.166951"/>
<path d="M53.8583 40.4963L55.6787 40.6128" stroke="#149A53" stroke-width="0.166951"/>
<path d="M54.5967 43.2744L54.4805 45.0911" stroke="#149A53" stroke-width="0.166951"/>
<path d="M53.6284 44.1248L55.4489 44.2412" stroke="#149A53" stroke-width="0.166951"/>
<path d="M54.8583 42.384L56.6787 42.5005" stroke="#149A53" stroke-width="0.166951"/>
<path d="M54.6284 46.012L56.4489 46.1284" stroke="#149A53" stroke-width="0.166951"/>
</g>
<ellipse cx="22.0745" cy="30.2313" rx="4.45996" ry="4.45075" transform="rotate(3.65995 22.0745 30.2313)" stroke="#149A53" stroke-width="0.333901" stroke-linecap="round" stroke-linejoin="round" stroke-dasharray="1.4 1.4"/>
<ellipse cx="22.0745" cy="30.2313" rx="2.67598" ry="2.67045" transform="rotate(3.65995 22.0745 30.2313)" fill="#DDFFE4"/>
<ellipse cx="22.0744" cy="30.2309" rx="1.78399" ry="1.7803" transform="rotate(3.65995 22.0744 30.2309)" fill="#3DD771"/>
<path d="M29.5464 33.6825C29.5287 33.9585 29.7382 34.1966 30.0142 34.2143L34.6379 34.51C34.8252 34.522 34.9951 34.4294 35.0904 34.2824C35.1663 34.4404 35.3229 34.5539 35.5103 34.5658L36.8049 34.6487C37.0809 34.6663 37.319 34.4569 37.3367 34.1808L37.6823 28.7778L39.6751 34.5247C39.7411 34.7153 39.915 34.8476 40.1163 34.8605L41.7161 34.9628C41.9171 34.9757 42.1063 34.8668 42.1962 34.6866L44.9176 29.2332L44.5715 34.6436C44.5538 34.9196 44.7633 35.1577 45.0393 35.1754L49.6722 35.4717C49.9483 35.4894 50.1864 35.2799 50.204 35.0039L50.2766 33.8702C50.2942 33.5941 50.0848 33.356 49.8087 33.3384L46.9703 33.1568L46.9913 32.8282L49.4506 32.9855C49.7266 33.0032 49.9647 32.7937 49.9824 32.5177L50.0549 31.384C50.0726 31.1079 49.8631 30.8698 49.587 30.8522L47.1277 30.6949L47.1401 30.5016L49.9785 30.6832C50.2546 30.7008 50.4927 30.4914 50.5103 30.2153L50.5829 29.0816C50.6005 28.8056 50.3911 28.5675 50.115 28.5498L45.4821 28.2535C45.3103 28.2425 45.1533 28.3194 45.0548 28.4457C44.9706 28.3031 44.8212 28.2112 44.6556 28.2006L43.213 28.1083C43.011 28.0954 42.8211 28.2054 42.7317 28.3869L41.1194 31.6616L39.9375 28.2082C39.872 28.0167 39.6976 27.8835 39.4956 27.8706L38.0715 27.7795C37.9068 27.7689 37.7476 27.8403 37.6458 27.9698C37.564 27.8332 37.4186 27.7377 37.2476 27.7268L35.953 27.644C35.677 27.6263 35.4389 27.8358 35.4212 28.1118L35.1362 32.5671C35.0513 32.459 34.9224 32.3862 34.7744 32.3767L31.9452 32.1957L32.2195 27.907C32.2371 27.631 32.0277 27.3929 31.7516 27.3752L30.457 27.2924C30.181 27.2747 29.9429 27.4842 29.9252 27.7603L29.5464 33.6825Z" fill="#DDFFE4" stroke="#149A53" stroke-width="1.0017" stroke-linejoin="round"/>
</svg>
